{
.appVersion = "3133";
DisplayStrings = (

glyphs = (
{
glyphname = A;
lastChange = "2022-11-02 05:18:06 +0000";
layers = (
{
anchors = (
{
name = bottom;
position = "{277, 0}";
},
{
name = ogonek;
position = "{499, 10}";
},
{
name = top;
position = "{277, 700}";
}
);
hints = (
{
origin = "{0, 9}";
target = "{0, 0}";
type = Stem;
},
{
origin = "{0, 3}";
target = "{0, 4}";
type = Stem;
}
);
layerId = "29C4A576-5D06-4D79-A0A1-2A812E5B89FB";
paths = (
{
closed = 1;
nodes = (
"170 0 LINE",
"195 159 LINE",
"359 159 LINE",
"384 0 LINE",
"549 0 LINE",
"549 25 LINE",
"410 699 LINE",
"144 700 LINE",
"5 25 LINE",
"5 0 LINE"
);
},
{
closed = 1;
nodes = (
"256 550 LINE",
"298 550 LINE",
"338 297 LINE",
"216 297 LINE"
);
}
);
width = 554;
},
{
anchors = (
{
name = bottom;
position = "{287, 0}";
},
{
name = ogonek;
position = "{504, 10}";
},
{
name = top;
position = "{287, 700}";
}
);
layerId = "AAC1BB4D-C727-4C18-8F18-05769E5A021D";
paths = (
{
closed = 1;
nodes = (
"73 0 LINE",
"141 258 LINE",
"433 258 LINE",
"501 0 LINE",
"554 0 LINE",
"554 15 LINE",
"369 699 LINE",
"205 700 LINE",
"20 15 LINE",
"20 0 LINE"
);
},
{
closed = 1;
nodes = (
"246 652 LINE",
"328 652 LINE",
"420 306 LINE",
"154 306 LINE"
);
}
);
width = 574;
},
{
anchors = (
{
name = bottom;
position = "{274, 0}";
},
{
name = ogonek;
position = "{497, 10}";
},
{
name = top;
position = "{274, 700}";
}
);
hints = (
{
origin = "{0, 9}";
target = "{0, 0}";
type = Stem;
},
{
origin = "{0, 3}";
target = "{0, 4}";
type = Stem;
}
);
layerId = "58CA432C-E1D8-4E0E-9662-6D1D9C8D1884";
paths = (
{
closed = 1;
nodes = (
"200 0 LINE",
"215 129 LINE",
"333 129 LINE",
"348 0 LINE",
"547 0 LINE",
"547 28 LINE",
"422 699 LINE",
"125 700 LINE",
"0 28 LINE",
"0 0 LINE"
);
},
{
closed = 1;
nodes = (
"259 519 LINE",
"289 519 LINE",
"315 294 LINE",
"233 294 LINE"
);
}
);
width = 547.90476;
}
);
leftKerningGroup = A;
rightKerningGroup = A;
unicode = 0041;
},
{
glyphname = AE;
lastChange = "2022-09-03 19:03:39 +0000";
layers = (
{
anchors = (
{
name = bottom;
position = "{287, 0}";
},
{
name = ogonek;
position = "{504, 10}";
},
{
name = top;
position = "{287, 700}";
}
);
components = (
{
name = E;
transform = "{1, 0, 0, 1, 282, 0}";
}
);
layerId = "AAC1BB4D-C727-4C18-8F18-05769E5A021D";
paths = (
{
closed = 1;
nodes = (
"73 0 LINE",
"246 652 LINE",
"370 652 LINE",
"370 699 LINE",
"205 700 LINE",
"20 12 LINE",
"20 0 LINE"
);
},
{
closed = 1;
nodes = (
"120 298 LINE",
"383 298 LINE",
"383 346 LINE",
"120 346 LINE"
);
}
);
width = 732;
},
{
anchors = (
{
name = bottom;
position = "{277, 0}";
},
{
name = ogonek;
position = "{499, 10}";
},
{
name = top;
position = "{277, 700}";
}
);
components = (
{
name = E;
transform = "{1, 0, 0, 1, 261, 0}";
}
);
hints = (
{
origin = "{0, 6}";
target = "{0, 0}";
type = Stem;
},
{
origin = "{1, 1}";
target = "{1, 1}";
type = Stem;
}
);
layerId = "29C4A576-5D06-4D79-A0A1-2A812E5B89FB";
paths = (
{
closed = 1;
nodes = (
"170 0 LINE",
"252 550 LINE",
"410 550 LINE",
"410 699 LINE",
"144 700 LINE",
"5 25 LINE",
"5 0 LINE"
);
},
{
closed = 1;
nodes = (
"138 159 LINE",
"416 159 LINE",
"416 297 LINE",
"138 297 LINE"
);
}
);
width = 693;
},
{
anchors = (
{
name = bottom;
position = "{274, 0}";
},
{
name = ogonek;
position = "{497, 10}";
},
{
name = top;
position = "{274, 700}";
}
);
components = (
{
alignment = -1;
name = E;
transform = "{1, 0, 0, 1, 255, 0}";
}
);
hints = (
{
origin = "{0, 6}";
target = "{0, 0}";
type = Stem;
},
{
origin = "{1, 1}";
target = "{1, 1}";
type = Stem;
}
);
layerId = "58CA432C-E1D8-4E0E-9662-6D1D9C8D1884";
paths = (
{
closed = 1;
nodes = (
"200 0 LINE",
"254 519 LINE",
"422 519 LINE",
"422 699 LINE",
"125 700 LINE",
"0 29 LINE",
"0 0 LINE"
);
},
{
closed = 1;
nodes = (
"143 117 LINE",
"426 117 LINE",
"426 282 LINE",
"143 282 LINE"
);
}
);
width = 681.11429;
}
);
leftKerningGroup = A;
rightKerningGroup = E;
unicode = 00C6;
},
{
glyphname = B;
lastChange = "2022-09-03 19:03:39 +0000";
layers = (
{
anchors = (
{
name = bottom;
position = "{260, 0}";
},
{
name = center;
position = "{260, 350}";
},
{
name = top;
position = "{260, 700}";
}
);
hints = (
{
horizontal = 1;
place = "{-1, 144}";
type = Stem;
},
{
place = "{45, 158}";
type = Stem;
},
{
horizontal = 1;
place = "{293, 124}";
type = Stem;
},
{
place = "{350, 166}";
type = Stem;
},
{
horizontal = 1;
place = "{700, 136}";
type = Stem;
}
);
layerId = "29C4A576-5D06-4D79-A0A1-2A812E5B89FB";
paths = (
{
closed = 1;
nodes = (
"45 700 LINE",
"327 700 LINE SMOOTH",
"430 700 OFFCURVE",
"498 636 OFFCURVE",
"498 537 CURVE SMOOTH",
"498 446 OFFCURVE",
"443 401 OFFCURVE",
"399 387 CURVE",
"399 380 LINE",
"452 366 OFFCURVE",
"523 305 OFFCURVE",
"523 198 CURVE SMOOTH",
"523 69 OFFCURVE",
"442 0 OFFCURVE",
"320 0 CURVE SMOOTH",
"45 0 LINE"
);
},
{
closed = 1;
nodes = (
"285 143 LINE SMOOTH",
"326 143 OFFCURVE",
"357 171 OFFCURVE",
"357 219 CURVE SMOOTH",
"357 267 OFFCURVE",
"326 293 OFFCURVE",
"285 293 CURVE SMOOTH",
"203 293 LINE",
"203 143 LINE"
);
},
{
closed = 1;
nodes = (
"281 417 LINE SMOOTH",
"317 417 OFFCURVE",
"344 445 OFFCURVE",
"344 491 CURVE SMOOTH",
"344 537 OFFCURVE",
"317 564 OFFCURVE",
"281 564 CURVE SMOOTH",
"203 564 LINE",
"203 417 LINE"
);
}
);
width = 533;
},
{
anchors = (
{
name = bottom;
position = "{283, 0}";
},
{
name = center;
position = "{283, 350}";
},
{
name = top;
position = "{283, 700}";
}
);
layerId = "AAC1BB4D-C727-4C18-8F18-05769E5A021D";
paths = (
{
closed = 1;
nodes = (
"70 700 LINE",
"354 700 LINE SMOOTH",
"451 700 OFFCURVE",
"517 638 OFFCURVE",
"517 528 CURVE SMOOTH",
"517 422 OFFCURVE",
"460 379 OFFCURVE",
"420 368 CURVE",
"420 364 LINE",
"475 350 OFFCURVE",
"536 304 OFFCURVE",
"536 195 CURVE SMOOTH",
"536 56 OFFCURVE",
"455 0 OFFCURVE",
"345 0 CURVE SMOOTH",
"70 0 LINE"
);
},
{
closed = 1;
nodes = (
"340 48 LINE SMOOTH",
"435 48 OFFCURVE",
"482 96 OFFCURVE",
"482 195 CURVE SMOOTH",
"482 284 OFFCURVE",
"417 337 OFFCURVE",
"338 337 CURVE SMOOTH",
"123 337 LINE",
"123 48 LINE"
);
},
{
closed = 1;
nodes = (
"343 383 LINE SMOOTH",
"417 383 OFFCURVE",
"463 430 OFFCURVE",
"463 515 CURVE SMOOTH",
"463 603 OFFCURVE",
"418 652 OFFCURVE",
"343 652 CURVE SMOOTH",
"123 652 LINE",
"123 383 LINE"
);
}
);
width = 571;
},
{
anchors = (
{
name = bottom;
position = "{253, 0}";
},
{
name = center;
position = "{253, 350}";
},
{
name = top;
position = "{253, 700}";
}
);
hints = (
{
horizontal = 1;
place = "{-1, 188}";
type = Stem;
},
{
place = "{59, 206}";
type = Stem;
},
{
horizontal = 1;
place = "{382, 162}";
type = Stem;
},
{
place = "{457, 217}";
type = Stem;
},
{
horizontal = 1;
place = "{913, 177}";
type = Stem;
}
);
layerId = "58CA432C-E1D8-4E0E-9662-6D1D9C8D1884";
paths = (
{
closed = 1;
nodes = (
"37 700 LINE",
"319 700 LINE SMOOTH",
"424 700 OFFCURVE",
"492 635 OFFCURVE",
"492 540 CURVE SMOOTH",
"492 453 OFFCURVE",
"438 408 OFFCURVE",
"393 393 CURVE",
"393 385 LINE",
"445 371 OFFCURVE",
"519 305 OFFCURVE",
"519 199 CURVE SMOOTH",
"519 73 OFFCURVE",
"438 0 OFFCURVE",
"312 0 CURVE SMOOTH",
"37 0 LINE"
);
},
{
closed = 1;
nodes = (
"268 172 LINE SMOOTH",
"293 172 OFFCURVE",
"319 194 OFFCURVE",
"319 226 CURVE SMOOTH",
"319 262 OFFCURVE",
"298 280 OFFCURVE",
"269 280 CURVE SMOOTH",
"227 280 LINE",
"227 172 LINE"
);
},
{
closed = 1;
nodes = (
"262 427 LINE SMOOTH",
"287 427 OFFCURVE",
"308 450 OFFCURVE",
"308 484 CURVE SMOOTH",
"308 517 OFFCURVE",
"286 537 OFFCURVE",
"262 537 CURVE SMOOTH",
"227 537 LINE",
"227 427 LINE"
);
}
);
width = 521.41905;
}
);
leftKerningGroup = H;
rightKerningGroup = B;
unicode = 0042;
},
{
glyphname = C;
lastChange = "2022-11-02 05:17:15 +0000";
layers = (
{
anchors = (
{
name = bottom;
position = "{309, -11}";
},
{
name = top;
position = "{309, 700}";
}
);
hints = (
{
horizontal = 1;
origin = "{0, 20}";
target = "{0, 21}";
type = Stem;
},
{
horizontal = 1;
place = "{-11, 150}";
type = Stem;
},
{
origin = "{0, 27}";
target = "{0, 0}";
type = Stem;
},
{
origin = "{0, 27}";
target = "{0, 13}";
type = Stem;
}
);
layerId = "29C4A576-5D06-4D79-A0A1-2A812E5B89FB";
paths = (
{
closed = 1;
nodes = (
"20 102 OFFCURVE",
"166 -11 OFFCURVE",
"321 -11 CURVE SMOOTH",
"396 -11 OFFCURVE",
"444 7 OFFCURVE",
"466 25 CURVE",
"466 176 LINE",
"446 176 LINE",
"429 157 OFFCURVE",
"396 135 OFFCURVE",
"349 135 CURVE SMOOTH",
"251 135 OFFCURVE",
"184 210 OFFCURVE",
"184 350 CURVE SMOOTH",
"184 490 OFFCURVE",
"251 565 OFFCURVE",
"349 565 CURVE SMOOTH",
"396 565 OFFCURVE",
"429 543 OFFCURVE",
"446 524 CURVE",
"466 524 LINE",
"466 675 LINE",
"444 693 OFFCURVE",
"396 711 OFFCURVE",
"321 711 CURVE SMOOTH",
"166 711 OFFCURVE",
"20 598 OFFCURVE",
"20 350 CURVE SMOOTH"
);
}
);
width = 496;
},
{
anchors = (
{
name = bottom;
position = "{328, 0}";
},
{
name = top;
position = "{331, 700}";
}
);
hints = (
{
origin = "{0, 27}";
target = "{0, 13}";
type = Stem;
}
);
layerId = "AAC1BB4D-C727-4C18-8F18-05769E5A021D";
paths = (
{
closed = 1;
nodes = (
"40 104 OFFCURVE",
"177 -11 OFFCURVE",
"338 -11 CURVE SMOOTH",
"416 -11 OFFCURVE",
"464 9 OFFCURVE",
"486 31 CURVE",
"486 84 LINE",
"472 84 LINE",
"446 55 OFFCURVE",
"400 40 OFFCURVE",
"331 40 CURVE SMOOTH",
"194 40 OFFCURVE",
"94 150 OFFCURVE",
"94 350 CURVE SMOOTH",
"94 550 OFFCURVE",
"195 660 OFFCURVE",
"332 660 CURVE SMOOTH",
"401 660 OFFCURVE",
"446 645 OFFCURVE",
"472 616 CURVE",
"486 616 LINE",
"486 669 LINE",
"464 691 OFFCURVE",
"416 711 OFFCURVE",
"341 711 CURVE SMOOTH",
"185 711 OFFCURVE",
"40 596 OFFCURVE",
"40 350 CURVE SMOOTH"
);
}
);
width = 521;
},
{
anchors = (
{
name = bottom;
position = "{303, -14}";
},
{
name = top;
position = "{302, 700}";
}
);
hints = (
{
origin = "{0, 27}";
target = "{0, 13}";
type = Stem;
}
);
layerId = "58CA432C-E1D8-4E0E-9662-6D1D9C8D1884";
paths = (
{
closed = 1;
nodes = (
"14 101 OFFCURVE",
"163 -11 OFFCURVE",
"316 -11 CURVE SMOOTH",
"390 -11 OFFCURVE",
"438 6 OFFCURVE",
"460 23 CURVE",
"460 204 LINE",
"438 204 LINE",
"424 188 OFFCURVE",
"395 164 OFFCURVE",
"354 164 CURVE SMOOTH",
"268 164 OFFCURVE",
"211 228 OFFCURVE",
"211 350 CURVE SMOOTH",
"211 472 OFFCURVE",
"268 536 OFFCURVE",
"354 536 CURVE SMOOTH",
"394 536 OFFCURVE",
"424 512 OFFCURVE",
"438 496 CURVE",
"460 496 LINE",
"460 677 LINE",
"438 694 OFFCURVE",
"390 711 OFFCURVE",
"315 711 CURVE SMOOTH",
"160 711 OFFCURVE",
"14 599 OFFCURVE",
"14 350 CURVE SMOOTH"
);
}
);
width = 488.38095;
}
);
leftKerningGroup = O;
rightKerningGroup = C;
unicode = 0043;
},
{
glyphname = D;
lastChange = "2022-09-03 19:03:39 +0000";
layers = (
{
anchors = (
{
name = bottom;
position = "{242, 0}";
},
{
name = center;
position = "{278, 350}";
},
{
name = top;
position = "{242, 700}";
}
);
hints = (
{
horizontal = 1;
origin = "{0, 5}";
target = "{1, 7}";
type = Stem;
},
{
horizontal = 1;
origin = "{0, 8}";
target = "{1, 6}";
type = Stem;
},
{
origin = "{0, 6}";
target = "{1, 7}";
type = Stem;
},
{
origin = "{1, 2}";
target = "{0, 2}";
type = Stem;
}
);
layerId = "29C4A576-5D06-4D79-A0A1-2A812E5B89FB";
paths = (
{
closed = 1;
nodes = (
"407 700 OFFCURVE",
"535 591 OFFCURVE",
"535 350 CURVE SMOOTH",
"535 109 OFFCURVE",
"407 0 OFFCURVE",
"242 0 CURVE",
"45 0 LINE",
"45 700 LINE",
"242 700 LINE"
);
},
{
closed = 1;
nodes = (
"318 150 OFFCURVE",
"373 223 OFFCURVE",
"373 350 CURVE SMOOTH",
"373 479 OFFCURVE",
"317 550 OFFCURVE",
"240 550 CURVE SMOOTH",
"203 550 LINE",
"203 150 LINE",
"240 150 LINE"
);
}
);
width = 555;
},
{
anchors = (
{
name = bottom;
position = "{238, 0}";
},
{
name = center;
position = "{278, 350}";
},
{
name = top;
position = "{238, 700}";
}
);
layerId = "AAC1BB4D-C727-4C18-8F18-05769E5A021D";
paths = (
{
closed = 1;
nodes = (
"410 700 OFFCURVE",
"535 591 OFFCURVE",
"535 350 CURVE SMOOTH",
"535 109 OFFCURVE",
"410 0 OFFCURVE",
"240 0 CURVE",
"70 0 LINE",
"70 700 LINE",
"240 700 LINE"
);
},
{
closed = 1;
nodes = (
"386 48 OFFCURVE",
"481 159 OFFCURVE",
"481 350 CURVE SMOOTH",
"481 544 OFFCURVE",
"385 652 OFFCURVE",
"238 652 CURVE SMOOTH",
"123 652 LINE",
"123 48 LINE",
"238 48 LINE"
);
}
);
width = 575;
},
{
anchors = (
{
name = bottom;
position = "{243, 0}";
},
{
name = center;
position = "{278, 350}";
},
{
name = top;
position = "{243, 700}";
}
);
hints = (
{
horizontal = 1;
origin = "{0, 5}";
target = "{1, 7}";
type = Stem;
},
{
horizontal = 1;
origin = "{0, 8}";
target = "{1, 6}";
type = Stem;
},
{
origin = "{0, 6}";
target = "{1, 7}";
type = Stem;
},
{
origin = "{1, 2}";
target = "{0, 2}";
type = Stem;
}
);
layerId = "58CA432C-E1D8-4E0E-9662-6D1D9C8D1884";
paths = (
{
closed = 1;
nodes = (
"406 700 OFFCURVE",
"535 591 OFFCURVE",
"535 350 CURVE SMOOTH",
"535 109 OFFCURVE",
"406 0 OFFCURVE",
"243 0 CURVE",
"37 0 LINE",
"37 700 LINE",
"243 700 LINE"
);
},
{
closed = 1;
nodes = (
"297 181 OFFCURVE",
"340 243 OFFCURVE",
"340 350 CURVE SMOOTH",
"340 459 OFFCURVE",
"296 519 OFFCURVE",
"241 519 CURVE SMOOTH",
"227 519 LINE",
"227 181 LINE",
"241 181 LINE"
);
}
);
width = 548.90476;
}
);
leftKerningGroup = H;
rightKerningGroup = O;
unicode = 0044;
},
{
glyphname = Dcroat;
lastChange = "2022-09-03 19:03:39 +0000";
layers = (
{
anchors = (
{
name = bottom;
position = "{282, 0}";
},
{
name = center;
position = "{322, 350}";
},
{
name = top;
position = "{282, 700}";
}
);
layerId = "AAC1BB4D-C727-4C18-8F18-05769E5A021D";
paths = (
{
closed = 1;
nodes = (
"167 333 LINE",
"167 48 LINE",
"282 48 LINE SMOOTH",
"430 48 OFFCURVE",
"525 159 OFFCURVE",
"525 350 CURVE SMOOTH",
"525 544 OFFCURVE",
"429 652 OFFCURVE",
"282 652 CURVE SMOOTH",
"167 652 LINE",
"167 365 LINE",
"284 365 LINE",
"284 333 LINE"
);
},
{
closed = 1;
nodes = (
"20 365 LINE",
"114 365 LINE",
"114 700 LINE",
"284 700 LINE SMOOTH",
"454 700 OFFCURVE",
"579 591 OFFCURVE",
"579 350 CURVE SMOOTH",
"579 109 OFFCURVE",
"454 0 OFFCURVE",
"284 0 CURVE SMOOTH",
"114 0 LINE",
"114 333 LINE",
"20 333 LINE"
);
}
);
width = 619;
},
{
anchors = (
{
name = bottom;
position = "{258, 0}";
},
{
name = center;
position = "{294, 350}";
},
{
name = top;
position = "{258, 700}";
}
);
hints = (
{
horizontal = 1;
place = "{0, 150}";
type = Stem;
},
{
horizontal = 1;
place = "{700, -150}";
type = Stem;
},
{
place = "{45, 158}";
type = Stem;
},
{
origin = "{0, 5}";
place = "{389, 162}";
type = Stem;
}
);
layerId = "29C4A576-5D06-4D79-A0A1-2A812E5B89FB";
paths = (
{
closed = 1;
nodes = (
"219 321 LINE",
"219 150 LINE",
"256 150 LINE SMOOTH",
"334 150 OFFCURVE",
"389 223 OFFCURVE",
"389 350 CURVE SMOOTH",
"389 479 OFFCURVE",
"333 550 OFFCURVE",
"256 550 CURVE SMOOTH",
"219 550 LINE",
"219 377 LINE",
"294 377 LINE",
"294 321 LINE"
);
},
{
closed = 1;
nodes = (
"20 377 LINE",
"61 377 LINE",
"61 700 LINE",
"258 700 LINE SMOOTH",
"423 700 OFFCURVE",
"551 591 OFFCURVE",
"551 350 CURVE SMOOTH",
"551 109 OFFCURVE",
"423 0 OFFCURVE",
"258 0 CURVE SMOOTH",
"61 0 LINE",
"61 321 LINE",
"20 321 LINE"
);
}
);
width = 571;
},
{
anchors = (
{
name = bottom;
position = "{251, 0}";
},
{
name = center;
position = "{285, 350}";
},
{
name = top;
position = "{251, 700}";
}
);
hints = (
{
horizontal = 1;
place = "{0, 196}";
type = Stem;
},
{
horizontal = 1;
place = "{913, -196}";
type = Stem;
},
{
place = "{59, 206}";
type = Stem;
},
{
origin = "{0, 5}";
place = "{348, 211}";
type = Stem;
}
);
layerId = "58CA432C-E1D8-4E0E-9662-6D1D9C8D1884";
paths = (
{
closed = 1;
nodes = (
"235 317 LINE",
"235 181 LINE",
"248 181 LINE SMOOTH",
"305 181 OFFCURVE",
"348 243 OFFCURVE",
"348 350 CURVE SMOOTH",
"348 459 OFFCURVE",
"304 519 OFFCURVE",
"248 519 CURVE SMOOTH",
"235 519 LINE",
"235 381 LINE",
"297 381 LINE",
"297 317 LINE"
);
},
{
closed = 1;
nodes = (
"20 381 LINE",
"45 381 LINE",
"45 700 LINE",
"250 700 LINE SMOOTH",
"414 700 OFFCURVE",
"542 591 OFFCURVE",
"542 350 CURVE SMOOTH",
"542 109 OFFCURVE",
"414 0 OFFCURVE",
"250 0 CURVE SMOOTH",
"45 0 LINE",
"45 317 LINE",
"20 317 LINE"
);
}
);
width = 556.37143;
}
);
leftKerningGroup = H;
rightKerningGroup = O;
unicode = 0110;
},
{
glyphname = E;
lastChange = "2022-09-04 09:09:36 +0000";
layers = (
{
anchors = (
{
name = bottom;
position = "{216, 0}";
},
{
name = ogonek;
position = "{389, 10}";
},
{
name = top;
position = "{226, 700}";
},
{
name = topleft;
position = "{20, 700}";
}
);
hints = (
{
origin = "{0, 1}";
target = "{0, 4}";
type = Stem;
},
{
horizontal = 1;
origin = "{0, 16}";
target = "{0, 15}";
type = Stem;
},
{
horizontal = 1;
origin = "{0, 2}";
target = "{0, 3}";
type = Stem;
},
{
horizontal = 1;
origin = "{0, 8}";
target = "{0, 10}";
type = Stem;
}
);
layerId = "29C4A576-5D06-4D79-A0A1-2A812E5B89FB";
paths = (
{
closed = 1;
nodes = (
"45 700 LINE",
"45 0 LINE",
"407 0 LINE",
"407 144 LINE",
"203 144 LINE",
"203 278 LINE",
"269 299 OFFCURVE",
"334 301 OFFCURVE",
"376 288 CURVE",
"386 294 LINE",
"386 433 LINE",
"332 439 OFFCURVE",
"263 429 OFFCURVE",
"203 408 CURVE",
"203 556 LINE",
"407 556 LINE",
"407 700 LINE"
);
}
);
width = 432;
},
{
anchors = (
{
name = bottom;
position = "{233, 0}";
},
{
name = ogonek;
position = "{407, 10}";
},
{
name = top;
position = "{244, 700}";
},
{
name = topleft;
position = "{70, 700}";
}
);
layerId = "AAC1BB4D-C727-4C18-8F18-05769E5A021D";
paths = (
{
closed = 1;
nodes = (
"70 700 LINE",
"70 0 LINE",
"415 0 LINE",
"415 48 LINE",
"123 48 LINE",
"123 319 LINE",
"195 354 OFFCURVE",
"321 363 OFFCURVE",
"381 347 CURVE",
"388 353 LINE",
"388 397 LINE",
"307 410 OFFCURVE",
"192 398 OFFCURVE",
"123 369 CURVE",
"123 652 LINE",
"415 652 LINE",
"415 700 LINE"
);
}
);
width = 450;
},
{
anchors = (
{
name = bottom;
position = "{211, 0}";
},
{
name = ogonek;
position = "{384, 10}";
},
{
name = top;
position = "{221, 700}";
},
{
name = topleft;
position = "{5, 700}";
}
);
hints = (
{
origin = "{0, 1}";
target = "{0, 4}";
type = Stem;
},
{
horizontal = 1;
origin = "{0, 16}";
target = "{0, 15}";
type = Stem;
},
{
horizontal = 1;
origin = "{0, 2}";
target = "{0, 3}";
type = Stem;
},
{
horizontal = 1;
origin = "{0, 8}";
target = "{0, 10}";
type = Stem;
}
);
layerId = "58CA432C-E1D8-4E0E-9662-6D1D9C8D1884";
paths = (
{
closed = 1;
nodes = (
"37 700 LINE",
"37 0 LINE",
"405 0 LINE",
"405 173 LINE",
"227 173 LINE",
"227 265 LINE",
"284 282 OFFCURVE",
"336 282 OFFCURVE",
"374 270 CURVE",
"385 276 LINE",
"385 444 LINE",
"339 449 OFFCURVE",
"280 440 OFFCURVE",
"227 422 CURVE",
"227 527 LINE",
"405 527 LINE",
"405 700 LINE"
);
}
);
width = 426.51429;
}
);
leftKerningGroup = H;
rightKerningGroup = E;
unicode = 0045;
},
{
glyphname = Schwa;
lastChange = "2022-09-03 19:03:39 +0000";
layers = (
{
layerId = "AAC1BB4D-C727-4C18-8F18-05769E5A021D";
paths = (
{
closed = 1;
nodes = (
"572 599 OFFCURVE",
"425 711 OFFCURVE",
"244 711 CURVE SMOOTH",
"146 711 OFFCURVE",
"75 670 OFFCURVE",
"50 644 CURVE",
"50 588 LINE",
"64 588 LINE",
"101 627 OFFCURVE",
"162 659 OFFCURVE",
"257 659 CURVE SMOOTH",
"416 659 OFFCURVE",
"518 546 OFFCURVE",
"518 352 CURVE SMOOTH",
"518 158 OFFCURVE",
"416 41 OFFCURVE",
"269 41 CURVE SMOOTH",
"185 41 OFFCURVE",
"124 72 OFFCURVE",
"103 98 CURVE",
"103 341 LINE",
"530 341 LINE",
"530 389 LINE",
"50 389 LINE",
"50 71 LINE",
"108 13 OFFCURVE",
"183 -11 OFFCURVE",
"269 -11 CURVE SMOOTH",
"436 -11 OFFCURVE",
"572 101 OFFCURVE",
"572 350 CURVE SMOOTH"
);
}
);
width = 612;
},
{
layerId = "29C4A576-5D06-4D79-A0A1-2A812E5B89FB";
paths = (
{
closed = 1;
nodes = (
"567 600 OFFCURVE",
"419 711 OFFCURVE",
"239 711 CURVE SMOOTH",
"141 711 OFFCURVE",
"70 678 OFFCURVE",
"45 652 CURVE",
"45 487 LINE",
"55 487 LINE",
"87 523 OFFCURVE",
"156 561 OFFCURVE",
"229 561 CURVE SMOOTH",
"336 561 OFFCURVE",
"403 494 OFFCURVE",
"403 350 CURVE SMOOTH",
"403 210 OFFCURVE",
"342 131 OFFCURVE",
"235 131 CURVE SMOOTH",
"215 131 OFFCURVE",
"199 135 OFFCURVE",
"189 144 CURVE",
"189 284 LINE",
"479 284 LINE",
"479 422 LINE",
"45 422 LINE",
"45 71 LINE",
"103 13 OFFCURVE",
"178 -11 OFFCURVE",
"264 -11 CURVE SMOOTH",
"421 -11 OFFCURVE",
"567 100 OFFCURVE",
"567 350 CURVE SMOOTH"
);
}
);
width = 587;
},
{
layerId = "58CA432C-E1D8-4E0E-9662-6D1D9C8D1884";
paths = (
{
closed = 1;
nodes = (
"565 600 OFFCURVE",
"417 711 OFFCURVE",
"237 711 CURVE SMOOTH",
"139 711 OFFCURVE",
"68 680 OFFCURVE",
"43 654 CURVE",
"43 456 LINE",
"52 456 LINE",
"83 491 OFFCURVE",
"154 531 OFFCURVE",
"220 531 CURVE SMOOTH",
"312 531 OFFCURVE",
"368 478 OFFCURVE",
"368 349 CURVE SMOOTH",
"368 226 OFFCURVE",
"319 158 OFFCURVE",
"225 158 CURVE SMOOTH",
"224 158 OFFCURVE",
"222 154 OFFCURVE",
"215 158 CURVE",
"215 267 LINE",
"463 267 LINE",
"463 432 LINE",
"43 432 LINE",
"43 71 LINE",
"101 13 OFFCURVE",
"176 -11 OFFCURVE",
"262 -11 CURVE SMOOTH",
"416 -11 OFFCURVE",
"565 100 OFFCURVE",
"565 350 CURVE SMOOTH"
);
}
);
width = 579.38095;
}
);
leftKerningGroup = G;
rightKerningGroup = O;
unicode = 018F;
},
{
glyphname = F;
lastChange = "2022-09-04 09:09:46 +0000";
layers = (
{
anchors = (
{
name = bottom;
position = "{213, 0}";
},
{
name = top;
position = "{213, 700}";
}
);
hints = (
{
origin = "{0, 1}";
target = "{0, 2}";
type = Stem;
}
);
layerId = "29C4A576-5D06-4D79-A0A1-2A812E5B89FB";
paths = (
{
closed = 1;
nodes = (
"45 700 LINE",
"45 0 LINE",
"203 0 LINE",
"203 263 LINE",
"269 284 OFFCURVE",
"334 286 OFFCURVE",
"376 273 CURVE",
"386 279 LINE",
"386 418 LINE",
"332 424 OFFCURVE",
"263 414 OFFCURVE",
"203 393 CURVE",
"203 556 LINE",
"405 556 LINE",
"405 700 LINE"
);
}
);
width = 425;
},
{
anchors = (
{
name = bottom;
position = "{228, 0}";
},
{
name = top;
position = "{228, 700}";
}
);
layerId = "AAC1BB4D-C727-4C18-8F18-05769E5A021D";
paths = (
{
closed = 1;
nodes = (
"70 700 LINE",
"70 0 LINE",
"123 0 LINE",
"123 285 LINE",
"195 320 OFFCURVE",
"321 329 OFFCURVE",
"381 313 CURVE",
"388 319 LINE",
"388 363 LINE",
"307 376 OFFCURVE",
"192 364 OFFCURVE",
"123 335 CURVE",
"123 652 LINE",
"410 652 LINE",
"410 700 LINE"
);
}
);
width = 435;
},
{
anchors = (
{
name = bottom;
position = "{208, 0}";
},
{
name = top;
position = "{208, 700}";
}
);
hints = (
{
origin = "{0, 1}";
target = "{0, 2}";
type = Stem;
}
);
layerId = "58CA432C-E1D8-4E0E-9662-6D1D9C8D1884";
paths = (
{
closed = 1;
nodes = (
"37 700 LINE",
"37 0 LINE",
"227 0 LINE",
"227 256 LINE",
"284 273 OFFCURVE",
"336 272 OFFCURVE",
"374 261 CURVE",
"385 267 LINE",
"385 435 LINE",
"339 440 OFFCURVE",
"280 431 OFFCURVE",
"227 413 CURVE",
"227 527 LINE",
"403 527 LINE",
"403 700 LINE"
);
}
);
width = 421.95238;
}
);
leftKerningGroup = H;
rightKerningGroup = F;
unicode = 0046;
},
{
glyphname = G;
lastChange = "2022-09-03 19:03:39 +0000";
layers = (
{
anchors = (
{
name = bottom;
position = "{324, 0}";
},
{
name = top;
position = "{348, 703}";
}
);
hints = (
{
horizontal = 1;
origin = "{0, 23}";
target = "{0, 24}";
type = Stem;
},
{
horizontal = 1;
origin = "{0, 27}";
target = "{0, 19}";
type = Stem;
},
{
horizontal = 1;
origin = "{0, 2}";
target = "{0, 10}";
type = Stem;
},
{
horizontal = 1;
origin = "{0, 8}";
target = "{0, 7}";
type = Stem;
},
{
origin = "{0, 30}";
target = "{0, 16}";
type = Stem;
}
);
layerId = "29C4A576-5D06-4D79-A0A1-2A812E5B89FB";
paths = (
{
closed = 1;
nodes = (
"20 100 OFFCURVE",
"166 -11 OFFCURVE",
"323 -11 CURVE SMOOTH",
"409 -11 OFFCURVE",
"484 13 OFFCURVE",
"542 71 CURVE",
"542 422 LINE",
"254 422 LINE",
"254 284 LINE",
"398 284 LINE",
"398 144 LINE",
"388 135 OFFCURVE",
"372 131 OFFCURVE",
"352 131 CURVE SMOOTH",
"245 131 OFFCURVE",
"184 210 OFFCURVE",
"184 350 CURVE SMOOTH",
"184 494 OFFCURVE",
"251 565 OFFCURVE",
"368 565 CURVE SMOOTH",
"441 565 OFFCURVE",
"500 527 OFFCURVE",
"522 491 CURVE",
"542 491 LINE",
"542 652 LINE",
"517 678 OFFCURVE",
"446 711 OFFCURVE",
"348 711 CURVE SMOOTH",
"168 711 OFFCURVE",
"20 600 OFFCURVE",
"20 350 CURVE SMOOTH"
);
}
);
width = 587;
},
{
anchors = (
{
name = bottom;
position = "{343, 0}";
},
{
name = top;
position = "{361, 700}";
}
);
layerId = "AAC1BB4D-C727-4C18-8F18-05769E5A021D";
paths = (
{
closed = 1;
nodes = (
"40 101 OFFCURVE",
"176 -11 OFFCURVE",
"343 -11 CURVE SMOOTH",
"429 -11 OFFCURVE",
"504 13 OFFCURVE",
"562 71 CURVE",
"562 389 LINE",
"215 389 LINE",
"215 341 LINE",
"509 341 LINE",
"509 98 LINE",
"488 72 OFFCURVE",
"427 41 OFFCURVE",
"343 41 CURVE SMOOTH",
"196 41 OFFCURVE",
"94 158 OFFCURVE",
"94 352 CURVE SMOOTH",
"94 546 OFFCURVE",
"196 661 OFFCURVE",
"355 661 CURVE SMOOTH",
"450 661 OFFCURVE",
"511 629 OFFCURVE",
"548 590 CURVE",
"562 590 LINE",
"562 644 LINE",
"537 670 OFFCURVE",
"466 711 OFFCURVE",
"368 711 CURVE SMOOTH",
"187 711 OFFCURVE",
"40 599 OFFCURVE",
"40 350 CURVE SMOOTH"
);
}
);
width = 612;
},
{
anchors = (
{
name = bottom;
position = "{318, 0}";
},
{
name = top;
position = "{344, 704}";
}
);
hints = (
{
horizontal = 1;
origin = "{0, 23}";
target = "{0, 24}";
type = Stem;
},
{
horizontal = 1;
origin = "{0, 27}";
target = "{0, 19}";
type = Stem;
},
{
horizontal = 1;
origin = "{0, 2}";
target = "{0, 10}";
type = Stem;
},
{
horizontal = 1;
origin = "{0, 8}";
target = "{0, 7}";
type = Stem;
},
{
origin = "{0, 30}";
target = "{0, 16}";
type = Stem;
}
);
layerId = "58CA432C-E1D8-4E0E-9662-6D1D9C8D1884";
paths = (
{
closed = 1;
nodes = (
"14 100 OFFCURVE",
"163 -11 OFFCURVE",
"317 -11 CURVE SMOOTH",
"403 -11 OFFCURVE",
"478 13 OFFCURVE",
"536 71 CURVE",
"536 432 LINE",
"266 432 LINE",
"266 267 LINE",
"364 267 LINE",
"364 158 LINE",
"358 154 OFFCURVE",
"355 158 OFFCURVE",
"355 158 CURVE SMOOTH",
"260 158 OFFCURVE",
"211 226 OFFCURVE",
"211 349 CURVE SMOOTH",
"211 478 OFFCURVE",
"268 536 OFFCURVE",
"372 536 CURVE SMOOTH",
"438 536 OFFCURVE",
"497 496 OFFCURVE",
"514 461 CURVE",
"536 461 LINE",
"536 654 LINE",
"511 680 OFFCURVE",
"440 711 OFFCURVE",
"342 711 CURVE SMOOTH",
"162 711 OFFCURVE",
"14 600 OFFCURVE",
"14 350 CURVE SMOOTH"
);
}
);
width = 579.38095;
}
);
leftKerningGroup = O;
rightKerningGroup = G;
unicode = 0047;
},
{
glyphname = H;
lastChange = "2022-09-04 09:09:25 +0000";
layers = (
{
anchors = (
{
name = bottom;
position = "{286, 0}";
},
{
name = center;
position = "{286, 350}";
},
{
name = top;
position = "{286, 700}";
},
{
name = topleft;
position = "{20, 700}";
}
);
hints = (
{
horizontal = 1;
origin = "{0, 6}";
target = "{0, 1}";
type = Stem;
},
{
origin = "{0, 3}";
target = "{0, 2}";
type = Stem;
},
{
origin = "{0, 11}";
target = "{0, 10}";
type = Stem;
}
);
layerId = "29C4A576-5D06-4D79-A0A1-2A812E5B89FB";
paths = (
{
closed = 1;
nodes = (
"367 421 LINE",
"205 421 LINE",
"205 700 LINE",
"45 700 LINE",
"45 0 LINE",
"205 0 LINE",
"205 279 LINE",
"367 279 LINE",
"367 0 LINE",
"527 0 LINE",
"527 700 LINE",
"367 700 LINE"
);
}
);
width = 573;
},
{
anchors = (
{
name = bottom;
position = "{311, 0}";
},
{
name = center;
position = "{311, 350}";
},
{
name = top;
position = "{311, 700}";
},
{
name = topleft;
position = "{45, 700}";
}
);
layerId = "AAC1BB4D-C727-4C18-8F18-05769E5A021D";
paths = (
{
closed = 1;
nodes = (
"499 374 LINE",
"123 374 LINE",
"123 700 LINE",
"70 700 LINE",
"70 0 LINE",
"123 0 LINE",
"123 326 LINE",
"499 326 LINE",
"499 0 LINE",
"552 0 LINE",
"552 700 LINE",
"499 700 LINE"
);
}
);
width = 623;
},
{
anchors = (
{
name = bottom;
position = "{278, 0}";
},
{
name = center;
position = "{278, 350}";
},
{
name = top;
position = "{278, 700}";
},
{
name = topleft;
position = "{12, 700}";
}
);
hints = (
{
horizontal = 1;
origin = "{0, 6}";
target = "{0, 1}";
type = Stem;
},
{
origin = "{0, 3}";
target = "{0, 2}";
type = Stem;
},
{
origin = "{0, 11}";
target = "{0, 10}";
type = Stem;
}
);
layerId = "58CA432C-E1D8-4E0E-9662-6D1D9C8D1884";
paths = (
{
closed = 1;
nodes = (
"327 435 LINE",
"230 435 LINE",
"230 700 LINE",
"37 700 LINE",
"37 0 LINE",
"230 0 LINE",
"230 265 LINE",
"327 265 LINE",
"327 0 LINE",
"519 0 LINE",
"519 700 LINE",
"327 700 LINE"
);
}
);
width = 557.7619;
}
);
leftKerningGroup = H;
rightKerningGroup = H;
unicode = 0048;
},
{
glyphname = Hbar;
lastChange = "2022-09-03 19:03:39 +0000";
layers = (
{
components = (
{
name = H;
transform = "{1, 0, 0, 1, 12, 0}";
}
);
layerId = "AAC1BB4D-C727-4C18-8F18-05769E5A021D";
paths = (
{
closed = 1;
nodes = (
"29 516 LINE",
"616 516 LINE",
"616 564 LINE",
"29 564 LINE"
);
}
);
width = 646;
},
{
components = (
{
name = H;
transform = "{1, 0, 0, 1, 13, 0}";
}
);
layerId = "29C4A576-5D06-4D79-A0A1-2A812E5B89FB";
paths = (
{
closed = 1;
nodes = (
"19 500 LINE",
"579 500 LINE",
"579 642 LINE",
"19 642 LINE"
);
}
);
width = 599;
},
{
components = (
{
alignment = -1;
name = H;
transform = "{1, 0, 0, 1, 13, 0}";
}
);
layerId = "58CA432C-E1D8-4E0E-9662-6D1D9C8D1884";
paths = (
{
closed = 1;
nodes = (
"16 495 LINE",
"568 495 LINE",
"568 666 LINE",
"16 666 LINE"
);
}
);
width = 584.67619;
}
);
leftKerningGroup = H;
rightKerningGroup = H;
unicode = 0126;
},
{
glyphname = I;
lastChange = "2022-09-03 19:03:39 +0000";
layers = (
{
anchors = (
{
name = bottom;
position = "{124, 0}";
},
{
name = ogonek;
position = "{223, 10}";
},
{
name = top;
position = "{124, 700}";
},
{
name = topleft;
position = "{20, 700}";
}
);
hints = (
{
origin = "{0, 3}";
target = "{0, 2}";
type = Stem;
}
);
layerId = "29C4A576-5D06-4D79-A0A1-2A812E5B89FB";
paths = (
{
closed = 1;
nodes = (
"45 0 LINE",
"203 0 LINE",
"203 700 LINE",
"45 700 LINE"
);
}
);
width = 249;
},
{
anchors = (
{
name = bottom;
position = "{97, 0}";
},
{
name = ogonek;
position = "{154, 10}";
},
{
name = top;
position = "{96, 700}";
},
{
name = topleft;
position = "{45, 700}";
}
);
layerId = "AAC1BB4D-C727-4C18-8F18-05769E5A021D";
paths = (
{
closed = 1;
nodes = (
"70 0 LINE",
"123 0 LINE",
"123 700 LINE",
"70 700 LINE"
);
}
);
width = 194;
},
{
anchors = (
{
name = bottom;
position = "{132, 0}";
},
{
name = ogonek;
position = "{244, 10}";
},
{
name = top;
position = "{133, 700}";
},
{
name = topleft;
position = "{12, 700}";
}
);
hints = (
{
origin = "{0, 3}";
target = "{0, 2}";
type = Stem;
}
);
layerId = "58CA432C-E1D8-4E0E-9662-6D1D9C8D1884";
paths = (
{
closed = 1;
nodes = (
"37 0 LINE",
"227 0 LINE",
"227 700 LINE",
"37 700 LINE"
);
}
);
width = 265.7619;
}
);
leftKerningGroup = H;
rightKerningGroup = H;
unicode = 0049;
},
{
glyphname = J;
lastChange = "2022-09-03 19:03:39 +0000";
layers = (
{
anchors = (
{
name = bottom;
position = "{157, 0}";
},
{
name = top;
position = "{181, 700}";
}
);
hints = (
{
origin = "{0, 1}";
target = "{0, 0}";
type = Stem;
}
);
layerId = "29C4A576-5D06-4D79-A0A1-2A812E5B89FB";
paths = (
{
closed = 1;
nodes = (
"343 700 LINE",
"185 700 LINE",
"185 217 LINE SMOOTH",
"185 158 OFFCURVE",
"160 134 OFFCURVE",
"120 134 CURVE SMOOTH",
"90 134 OFFCURVE",
"55 156 OFFCURVE",
"35 189 CURVE",
"15 189 LINE",
"15 34 LINE",
"42 9 OFFCURVE",
"82 -12 OFFCURVE",
"157 -12 CURVE SMOOTH",
"252 -12 OFFCURVE",
"343 33 OFFCURVE",
"343 189 CURVE"
);
},
{
closed = 1;
nodes = (
"20 558 LINE",
"273 558 LINE",
"273 700 LINE",
"20 700 LINE"
);
}
);
width = 383;
},
{
anchors = (
{
name = bottom;
position = "{180, 0}";
},
{
name = top;
position = "{165, 700}";
}
);
guideLines = (
{
angle = 90;
position = "{25, 380}";
}
);
layerId = "AAC1BB4D-C727-4C18-8F18-05769E5A021D";
paths = (
{
closed = 1;
nodes = (
"305 700 LINE",
"252 700 LINE",
"252 159 LINE SMOOTH",
"252 65 OFFCURVE",
"205 36 OFFCURVE",
"151 36 CURVE SMOOTH",
"107 36 OFFCURVE",
"68 57 OFFCURVE",
"35 87 CURVE",
"25 87 LINE",
"25 34 LINE",
"47 14 OFFCURVE",
"89 -12 OFFCURVE",
"153 -12 CURVE SMOOTH",
"235 -12 OFFCURVE",
"305 25 OFFCURVE",
"305 172 CURVE"
);
},
{
closed = 1;
nodes = (
"25 652 LINE",
"278 652 LINE",
"278 700 LINE",
"25 700 LINE"
);
}
);
width = 360;
},
{
anchors = (
{
name = bottom;
position = "{150, 0}";
},
{
name = top;
position = "{186, 700}";
}
);
hints = (
{
origin = "{0, 1}";
target = "{0, 0}";
type = Stem;
}
);
layerId = "58CA432C-E1D8-4E0E-9662-6D1D9C8D1884";
paths = (
{
closed = 1;
nodes = (
"355 700 LINE",
"165 700 LINE",
"165 235 LINE SMOOTH",
"165 186 OFFCURVE",
"146 164 OFFCURVE",
"111 164 CURVE SMOOTH",
"85 164 OFFCURVE",
"51 186 OFFCURVE",
"35 220 CURVE",
"12 220 LINE",
"12 34 LINE",
"40 7 OFFCURVE",
"80 -12 OFFCURVE",
"158 -12 CURVE SMOOTH",
"257 -12 OFFCURVE",
"355 35 OFFCURVE",
"355 194 CURVE"
);
},
{
closed = 1;
nodes = (
"18 529 LINE",
"271 529 LINE",
"271 700 LINE",
"18 700 LINE"
);
}
);
width = 390.00952;
}
);
leftKerningGroup = J;
rightKerningGroup = U;
unicode = 004A;
},
{
glyphname = K;
lastChange = "2022-09-03 19:03:39 +0000";
layers = (
{
anchors = (
{
name = bottom;
position = "{250, 0}";
},
{
name = top;
position = "{250, 700}";
}
);
hints = (
{
place = "{328, 165}";
type = Stem;
},
{
place = "{45, 160}";
type = Stem;
}
);
layerId = "29C4A576-5D06-4D79-A0A1-2A812E5B89FB";
paths = (
{
closed = 1;
nodes = (
"205 0 LINE",
"205 276 LINE",
"220 276 LINE",
"353 0 LINE",
"520 0 LINE",
"520 25 LINE",
"345 355 LINE",
"520 675 LINE",
"520 700 LINE",
"353 700 LINE",
"220 432 LINE",
"205 432 LINE",
"205 700 LINE",
"45 700 LINE",
"45 0 LINE"
);
}
);
width = 525;
},
{
anchors = (
{
name = bottom;
position = "{240, 0}";
},
{
name = top;
position = "{240, 700}";
}
);
layerId = "AAC1BB4D-C727-4C18-8F18-05769E5A021D";
paths = (
{
closed = 1;
nodes = (
"123 0 LINE",
"123 330 LINE",
"169 330 LINE",
"417 0 LINE",
"470 0 LINE",
"470 12 LINE",
"213 354 LINE",
"470 688 LINE",
"470 700 LINE",
"417 700 LINE",
"169 378 LINE",
"123 378 LINE",
"123 700 LINE",
"70 700 LINE",
"70 0 LINE"
);
}
);
width = 488;
},
{
anchors = (
{
name = bottom;
position = "{253, 0}";
},
{
name = top;
position = "{253, 700}";
}
);
hints = (
{
place = "{428, 215}";
type = Stem;
},
{
place = "{59, 209}";
type = Stem;
}
);
layerId = "58CA432C-E1D8-4E0E-9662-6D1D9C8D1884";
paths = (
{
closed = 1;
nodes = (
"229.99 0 LINE",
"230 260 LINE",
"236 260 LINE",
"333 0 LINE",
"535 0 LINE",
"535 29 LINE",
"385 355 LINE",
"535 671 LINE",
"535 700 LINE",
"333 700 LINE",
"236 448 LINE",
"230 448 LINE",
"229.99 700 LINE",
"37 700 LINE",
"37 0 LINE"
);
}
);
width = 536.27619;
}
);
leftKerningGroup = H;
rightKerningGroup = K;
unicode = 004B;
},
{
glyphname = L;
lastChange = "2022-09-04 16:17:05 +0000";
layers = (
{
anchors = (
{
name = bottom;
position = "{211, 0}";
},
{
name = center;
position = "{196, 350}";
},
{
name = top;
position = "{124, 700}";
},
{
name = topright;
position = "{372, 700}";
}
);
hints = (
{
origin = "{0, 5}";
target = "{0, 4}";
type = Stem;
},
{
horizontal = 1;
origin = "{0, 1}";
target = "{0, 2}";
type = Stem;
}
);
layerId = "29C4A576-5D06-4D79-A0A1-2A812E5B89FB";
paths = (
{
closed = 1;
nodes = (
"45 0 LINE",
"377 0 LINE",
"377 144 LINE",
"203 144 LINE",
"203 700 LINE",
"45 700 LINE"
);
}
);
width = 387;
},
{
anchors = (
{
name = bottom;
position = "{231, 0}";
},
{
name = center;
position = "{221, 350}";
},
{
name = top;
position = "{97, 700}";
},
{
name = topright;
position = "{397, 700}";
}
);
layerId = "AAC1BB4D-C727-4C18-8F18-05769E5A021D";
paths = (
{
closed = 1;
nodes = (
"70 0 LINE",
"392 0 LINE",
"392 48 LINE",
"123 48 LINE",
"123 700 LINE",
"70 700 LINE"
);
}
);
width = 420;
},
{
anchors = (
{
name = bottom;
position = "{205, 0}";
},
{
name = center;
position = "{188, 350}";
},
{
name = top;
position = "{132, 700}";
},
{
name = topright;
position = "{364, 700}";
}
);
hints = (
{
origin = "{0, 5}";
target = "{0, 4}";
type = Stem;
},
{
horizontal = 1;
origin = "{0, 1}";
target = "{0, 2}";
type = Stem;
}
);
layerId = "58CA432C-E1D8-4E0E-9662-6D1D9C8D1884";
paths = (
{
closed = 1;
nodes = (
"37 0 LINE",
"372 0 LINE",
"372 173 LINE",
"227 173 LINE",
"227 700 LINE",
"37 700 LINE"
);
}
);
width = 376.94286;
}
);
leftKerningGroup = H;
rightKerningGroup = L;
unicode = 004C;
},
{
glyphname = M;
lastChange = "2022-09-03 19:03:39 +0000";
layers = (
{
anchors = (
{
name = bottom;
position = "{356, 0}";
},
{
name = top;
position = "{356, 700}";
}
);
hints = (
{
origin = "{0, 15}";
target = "{0, 0}";
type = Stem;
},
{
origin = "{0, 7}";
target = "{0, 8}";
type = Stem;
},
{
horizontal = 1;
origin = "{0, 13}";
target = "{0, 2}";
type = Stem;
}
);
layerId = "29C4A576-5D06-4D79-A0A1-2A812E5B89FB";
paths = (
{
closed = 1;
nodes = (
"199 0 LINE",
"194 482 LINE",
"204 482 LINE",
"300 0 LINE",
"411 0 LINE",
"507 482 LINE",
"517 482 LINE",
"512 0 LINE",
"666 0 LINE",
"666 700 LINE",
"427 700 LINE",
"359 300 LINE",
"353 300 LINE",
"284 700 LINE",
"45 700 LINE",
"45 0 LINE"
);
}
);
width = 712;
},
{
anchors = (
{
name = bottom;
position = "{381, 0}";
},
{
name = top;
position = "{381, 700}";
}
);
layerId = "AAC1BB4D-C727-4C18-8F18-05769E5A021D";
paths = (
{
closed = 1;
nodes = (
"123 0 LINE",
"120 650 LINE",
"135 650 LINE",
"334 0 LINE",
"427 0 LINE",
"626 650 LINE",
"641 650 LINE",
"638 0 LINE",
"691 0 LINE",
"691 700 LINE",
"590 700 LINE",
"388 45 LINE",
"374 45 LINE",
"171 700 LINE",
"70 700 LINE",
"70 0 LINE"
);
}
);
width = 762;
},
{
anchors = (
{
name = bottom;
position = "{348, 0}";
},
{
name = top;
position = "{348, 700}";
}
);
hints = (
{
origin = "{0, 15}";
target = "{0, 0}";
type = Stem;
},
{
origin = "{0, 7}";
target = "{0, 8}";
type = Stem;
},
{
horizontal = 1;
origin = "{0, 13}";
target = "{0, 2}";
type = Stem;
}
);
layerId = "58CA432C-E1D8-4E0E-9662-6D1D9C8D1884";
paths = (
{
closed = 1;
nodes = (
"222 0 LINE",
"217 431 LINE",
"225 431 LINE",
"290 0 LINE",
"406 0 LINE",
"471 431 LINE",
"479 431 LINE",
"474 0 LINE",
"658 0 LINE",
"658 700 LINE",
"377 700 LINE",
"350 378 LINE",
"347 378 LINE",
"318 700 LINE",
"37 700 LINE",
"37 0 LINE"
);
}
);
width = 696.7619;
}
);
leftKerningGroup = H;
rightKerningGroup = H;
unicode = 004D;
},
{
glyphname = N;
lastChange = "2022-09-04 16:16:08 +0000";
layers = (
{
anchors = (
{
name = bottom;
position = "{280, 0}";
},
{
name = top;
position = "{280, 700}";
}
);
hints = (
{
place = "{45, 156}";
type = Stem;
},
{
place = "{343, 156}";
type = Stem;
}
);
layerId = "29C4A576-5D06-4D79-A0A1-2A812E5B89FB";
paths = (
{
closed = 1;
nodes = (
"368 303 LINE",
"358 303 LINE",
"209 700 LINE",
"45 700 LINE",
"45 0 LINE",
"199 0 LINE",
"192 389 LINE",
"202 389 LINE",
"351 0 LINE",
"515 0 LINE",
"515 700 LINE",
"361 700 LINE"
);
}
);
width = 561;
},
{
anchors = (
{
name = bottom;
position = "{297, 0}";
},
{
name = top;
position = "{297, 700}";
}
);
layerId = "AAC1BB4D-C727-4C18-8F18-05769E5A021D";
paths = (
{
closed = 1;
nodes = (
"473 50 LINE",
"458 50 LINE",
"170 700 LINE",
"70 700 LINE",
"70 0 LINE",
"123 0 LINE",
"123 650 LINE",
"138 650 LINE",
"424 0 LINE",
"524 0 LINE",
"524 700 LINE",
"471 700 LINE"
);
}
);
width = 595;
},
{
anchors = (
{
name = bottom;
position = "{275, 0}";
},
{
name = top;
position = "{275, 700}";
}
);
hints = (
{
place = "{59, 204}";
type = Stem;
},
{
place = "{448, 204}";
type = Stem;
}
);
layerId = "58CA432C-E1D8-4E0E-9662-6D1D9C8D1884";
paths = (
{
closed = 1;
nodes = (
"336 380 LINE",
"328 380 LINE",
"221 700 LINE",
"37 700 LINE",
"37 0 LINE",
"222 0 LINE",
"213 309 LINE",
"222 309 LINE",
"329 0 LINE",
"512 0 LINE",
"512 700 LINE",
"327 700 LINE"
);
}
);
width = 550.6381;
}
);
leftKerningGroup = H;
rightKerningGroup = H;
unicode = 004E;
},
{
glyphname = Eng;
lastChange = "2022-09-04 08:07:23 +0000";
layers = (
{
anchors = (
{
name = bottom;
position = "{297, 0}";
},
{
name = top;
position = "{297, 700}";
}
);
layerId = "AAC1BB4D-C727-4C18-8F18-05769E5A021D";
paths = (
{
closed = 1;
nodes = (
"70 0 LINE",
"123 0 LINE",
"123 650 LINE",
"138 650 LINE",
"417 0 LINE",
"452 -75 OFFCURVE",
"427 -121 OFFCURVE",
"374 -121 CURVE SMOOTH",
"337 -121 OFFCURVE",
"296 -100 OFFCURVE",
"263 -70 CURVE",
"253 -70 LINE",
"253 -123 LINE",
"275 -143 OFFCURVE",
"314 -169 OFFCURVE",
"378 -169 CURVE SMOOTH",
"450 -169 OFFCURVE",
"524 -133 OFFCURVE",
"524 10 CURVE SMOOTH",
"524 700 LINE",
"471 700 LINE",
"473 30 LINE",
"458 30 LINE",
"170 700 LINE",
"70 700 LINE"
);
}
);
width = 595;
},
{
anchors = (
{
name = bottom;
position = "{290, 0}";
},
{
name = top;
position = "{290, 700}";
}
);
hints = (
{
place = "{45, 156}";
type = Stem;
},
{
place = "{343, 156}";
type = Stem;
}
);
layerId = "29C4A576-5D06-4D79-A0A1-2A812E5B89FB";
paths = (
{
closed = 1;
nodes = (
"45 0 LINE",
"199 0 LINE",
"192 389 LINE",
"202 389 LINE",
"361 0 LINE",
"377 -34 OFFCURVE",
"359 -70 OFFCURVE",
"321 -70 CURVE SMOOTH",
"294 -70 OFFCURVE",
"270 -52 OFFCURVE",
"254 -34 CURVE",
"234 -34 LINE",
"234 -169 LINE",
"260 -192 OFFCURVE",
"303 -206 OFFCURVE",
"358 -206 CURVE SMOOTH",
"443 -206 OFFCURVE",
"525 -131 OFFCURVE",
"525 0 CURVE SMOOTH",
"525 700 LINE",
"371 700 LINE",
"378 303 LINE",
"368 303 LINE",
"209 700 LINE",
"45 700 LINE"
);
}
);
width = 571;
},
{
anchors = (
{
name = bottom;
position = "{300, 0}";
},
{
name = top;
position = "{300, 700}";
}
);
hints = (
{
place = "{59, 204}";
type = Stem;
},
{
place = "{448, 204}";
type = Stem;
}
);
layerId = "58CA432C-E1D8-4E0E-9662-6D1D9C8D1884";
paths = (
{
closed = 1;
nodes = (
"37 0 LINE",
"222 0 LINE",
"213 309 LINE",
"222 309 LINE",
"346 22 LINE",
"367 -28 OFFCURVE",
"342 -50 OFFCURVE",
"317 -50 CURVE SMOOTH",
"291 -50 OFFCURVE",
"278 -43 OFFCURVE",
"261 -26 CURVE",
"238 -26 LINE",
"238 -177 LINE",
"261 -194 OFFCURVE",
"295 -210 OFFCURVE",
"363 -210 CURVE SMOOTH",
"462 -210 OFFCURVE",
"537 -149 OFFCURVE",
"537 0 CURVE SMOOTH",
"537 700 LINE",
"352 700 LINE",
"361 380 LINE",
"353 380 LINE",
"221 700 LINE",
"37 700 LINE"
);
}
);
width = 576;
}
);
unicode = 014A;
},
{
glyphname = O;
lastChange = "2022-09-04 16:16:20 +0000";
layers = (
{
anchors = (
{
name = bottom;
position = "{313, 0}";
},
{
name = center;
position = "{313, 350}";
},
{
name = ogonek;
position = "{563, 10}";
},
{
name = top;
position = "{313, 700}";
},
{
name = topleft;
position = "{20, 700}";
},
{
name = topright;
position = "{606, 700}";
}
);
hints = (
{
place = "{20, 164}";
type = Stem;
},
{
place = "{444, 162}";
type = Stem;
},
{
horizontal = 1;
place = "{711, 150}";
type = Stem;
},
{
horizontal = 1;
place = "{-11, 150}";
type = Stem;
}
);
layerId = "29C4A576-5D06-4D79-A0A1-2A812E5B89FB";
paths = (
{
closed = 1;
nodes = (
"20 96 OFFCURVE",
"158 -12 OFFCURVE",
"313 -12 CURVE SMOOTH",
"468 -12 OFFCURVE",
"606 96 OFFCURVE",
"606 350 CURVE SMOOTH",
"606 604 OFFCURVE",
"468 712 OFFCURVE",
"313 712 CURVE SMOOTH",
"158 712 OFFCURVE",
"20 604 OFFCURVE",
"20 350 CURVE SMOOTH"
);
},
{
closed = 1;
nodes = (
"184 490 OFFCURVE",
"241 562 OFFCURVE",
"313 562 CURVE SMOOTH",
"384 562 OFFCURVE",
"444 492 OFFCURVE",
"444 350 CURVE SMOOTH",
"444 210 OFFCURVE",
"385 138 OFFCURVE",
"313 138 CURVE SMOOTH",
"241 138 OFFCURVE",
"184 210 OFFCURVE",
"184 350 CURVE SMOOTH"
);
}
);
width = 626;
},
{
anchors = (
{
name = bottom;
position = "{333, 0}";
},
{
name = center;
position = "{333, 350}";
},
{
name = ogonek;
position = "{583, 10}";
},
{
name = top;
position = "{333, 700}";
},
{
name = topleft;
position = "{40, 700}";
},
{
name = topright;
position = "{626, 700}";
}
);
layerId = "AAC1BB4D-C727-4C18-8F18-05769E5A021D";
paths = (
{
closed = 1;
nodes = (
"40 95 OFFCURVE",
"178 -12 OFFCURVE",
"333 -12 CURVE SMOOTH",
"488 -12 OFFCURVE",
"626 95 OFFCURVE",
"626 350 CURVE SMOOTH",
"626 605 OFFCURVE",
"488 712 OFFCURVE",
"333 712 CURVE SMOOTH",
"178 712 OFFCURVE",
"40 605 OFFCURVE",
"40 350 CURVE SMOOTH"
);
},
{
closed = 1;
nodes = (
"94 558 OFFCURVE",
"198 661 OFFCURVE",
"332 661 CURVE SMOOTH",
"462 661 OFFCURVE",
"572 561 OFFCURVE",
"572 350 CURVE SMOOTH",
"572 139 OFFCURVE",
"464 39 OFFCURVE",
"332 39 CURVE SMOOTH",
"198 39 OFFCURVE",
"94 139 OFFCURVE",
"94 350 CURVE SMOOTH"
);
}
);
width = 666;
},
{
anchors = (
{
name = bottom;
position = "{307, 0}";
},
{
name = center;
position = "{307, 350}";
},
{
name = ogonek;
position = "{557, 10}";
},
{
name = top;
position = "{307, 700}";
},
{
name = topleft;
position = "{14, 700}";
},
{
name = topright;
position = "{600, 700}";
}
);
hints = (
{
place = "{26, 214}";
type = Stem;
},
{
place = "{579, 211}";
type = Stem;
},
{
horizontal = 1;
place = "{928, 196}";
type = Stem;
},
{
horizontal = 1;
place = "{-14, 196}";
type = Stem;
}
);
layerId = "58CA432C-E1D8-4E0E-9662-6D1D9C8D1884";
paths = (
{
closed = 1;
nodes = (
"14 96 OFFCURVE",
"152 -12 OFFCURVE",
"307 -12 CURVE SMOOTH",
"462 -12 OFFCURVE",
"600 96 OFFCURVE",
"600 350 CURVE SMOOTH",
"600 604 OFFCURVE",
"462 712 OFFCURVE",
"307 712 CURVE SMOOTH",
"152 712 OFFCURVE",
"14 604 OFFCURVE",
"14 350 CURVE SMOOTH"
);
},
{
closed = 1;
nodes = (
"211 469 OFFCURVE",
"254 532 OFFCURVE",
"307 532 CURVE SMOOTH",
"360 532 OFFCURVE",
"405 471 OFFCURVE",
"404.99 350 CURVE SMOOTH",
"405 232 OFFCURVE",
"361 168 OFFCURVE",
"307 168 CURVE SMOOTH",
"254 168 OFFCURVE",
"211 232 OFFCURVE",
"211 350 CURVE SMOOTH"
);
}
);
width = 613.80952;
}
);
leftKerningGroup = O;
rightKerningGroup = O;
unicode = 004F;
},
{
glyphname = Ohorn;
lastChange = "2022-09-03 19:03:39 +0000";
layers = (
{
anchors = (
{
name = topright;
position = "{702, 700}";
}
);
components = (
{
name = O;
}
);
layerId = "AAC1BB4D-C727-4C18-8F18-05769E5A021D";
paths = (
{
closed = 1;
nodes = (
"417 673 LINE",
"479 672 LINE",
"541 672 OFFCURVE",
"573 711 OFFCURVE",
"573 782 CURVE",
"537 782 LINE",
"537 722 OFFCURVE",
"517 697 OFFCURVE",
"473 697 CURVE SMOOTH",
"433 697 OFFCURVE",
"391 712 OFFCURVE",
"331 712 CURVE"
);
},
{
closed = 1;
nodes = (
"463 656 LINE",
"483 656 LINE",
"483 674 LINE",
"463 674 LINE"
);
}
);
width = 666;
},
{
anchors = (
{
name = topright;
position = "{702, 700}";
}
);
components = (
{
name = O;
}
);
layerId = "29C4A576-5D06-4D79-A0A1-2A812E5B89FB";
paths = (
{
closed = 1;
nodes = (
"417 659 LINE",
"469 658 LINE",
"545 658 OFFCURVE",
"579 710 OFFCURVE",
"579 782 CURVE",
"522 782 LINE",
"522 730 OFFCURVE",
"505 697 OFFCURVE",
"462 697 CURVE SMOOTH",
"425 697 OFFCURVE",
"391 712 OFFCURVE",
"313 712 CURVE"
);
},
{
closed = 1;
nodes = (
"460 646 LINE",
"490 646 LINE",
"490 664 LINE",
"460 664 LINE"
);
}
);
width = 626;
},
{
anchors = (
{
name = topright;
position = "{702, 700}";
}
);
components = (
{
alignment = -1;
name = O;
}
);
layerId = "58CA432C-E1D8-4E0E-9662-6D1D9C8D1884";
paths = (
{
closed = 1;
nodes = (
"417 655 LINE",
"466 654 LINE",
"546 654 OFFCURVE",
"581 710 OFFCURVE",
"581 782 CURVE",
"517 782 LINE",
"517 732 OFFCURVE",
"501 697 OFFCURVE",
"459 697 CURVE SMOOTH",
"423 697 OFFCURVE",
"391 712 OFFCURVE",
"308 712 CURVE"
);
},
{
closed = 1;
nodes = (
"459 643 LINE",
"492 643 LINE",
"492 661 LINE",
"459 661 LINE"
);
}
);
width = 613.80952;
}
);
leftKerningGroup = O;
rightKerningGroup = O;
unicode = 01A0;
},
{
glyphname = OE;
lastChange = "2022-09-03 19:03:39 +0000";
layers = (
{
anchors = (
{
name = bottom;
position = "{328, 0}";
},
{
name = center;
position = "{328, 350}";
},
{
name = ogonek;
position = "{578, 10}";
},
{
name = top;
position = "{328, 700}";
},
{
name = topleft;
position = "{35, 700}";
},
{
name = topright;
position = "{621, 700}";
}
);
components = (
{
alignment = -1;
name = E;
transform = "{1, 0, 0, 1, 263, 0}";
}
);
layerId = "AAC1BB4D-C727-4C18-8F18-05769E5A021D";
paths = (
{
closed = 1;
nodes = (
"333 49 LINE",
"199 49 OFFCURVE",
"94 146 OFFCURVE",
"94 350 CURVE SMOOTH",
"94 551 OFFCURVE",
"199 651 OFFCURVE",
"333 651 CURVE",
"333 700 LINE",
"178 700 OFFCURVE",
"40 597 OFFCURVE",
"40 350 CURVE SMOOTH",
"40 103 OFFCURVE",
"178 0 OFFCURVE",
"333 0 CURVE"
);
}
);
width = 713;
},
{
anchors = (
{
name = bottom;
position = "{312, 0}";
},
{
name = center;
position = "{312, 350}";
},
{
name = ogonek;
position = "{562, 10}";
},
{
name = top;
position = "{312, 700}";
},
{
name = topleft;
position = "{19, 700}";
},
{
name = topright;
position = "{605, 700}";
}
);
components = (
{
alignment = -1;
name = E;
transform = "{1, 0, 0, 1, 267, 0}";
}
);
hints = (
{
place = "{20, 164}";
type = Stem;
},
{
place = "{444, 162}";
type = Stem;
},
{
horizontal = 1;
place = "{711, 150}";
type = Stem;
},
{
horizontal = 1;
place = "{-11, 150}";
type = Stem;
}
);
layerId = "29C4A576-5D06-4D79-A0A1-2A812E5B89FB";
paths = (
{
closed = 1;
nodes = (
"313 145 LINE",
"241 145 OFFCURVE",
"183 215 OFFCURVE",
"183 350 CURVE SMOOTH",
"183 485 OFFCURVE",
"241 555 OFFCURVE",
"313 555 CURVE",
"313 700 LINE",
"158 700 OFFCURVE",
"20 597 OFFCURVE",
"20 350 CURVE SMOOTH",
"20 103 OFFCURVE",
"158 0 OFFCURVE",
"313 0 CURVE"
);
}
);
width = 699;
},
{
anchors = (
{
name = bottom;
position = "{307, 0}";
},
{
name = center;
position = "{307, 350}";
},
{
name = ogonek;
position = "{557, 10}";
},
{
name = top;
position = "{307, 700}";
},
{
name = topleft;
position = "{14, 700}";
},
{
name = topright;
position = "{600, 700}";
}
);
components = (
{
alignment = -1;
name = E;
transform = "{1, 0, 0, 1, 268, 0}";
}
);
hints = (
{
place = "{26, 214}";
type = Stem;
},
{
place = "{579, 211}";
type = Stem;
},
{
horizontal = 1;
place = "{928, 196}";
type = Stem;
},
{
horizontal = 1;
place = "{-14, 196}";
type = Stem;
}
);
layerId = "58CA432C-E1D8-4E0E-9662-6D1D9C8D1884";
paths = (
{
closed = 1;
nodes = (
"307 174 LINE",
"254 174 OFFCURVE",
"210 236 OFFCURVE",
"210 350 CURVE SMOOTH",
"210 465 OFFCURVE",
"254 526 OFFCURVE",
"307 526 CURVE",
"307 700 LINE",
"152 700 OFFCURVE",
"14 597 OFFCURVE",
"14 350 CURVE SMOOTH",
"14 103 OFFCURVE",
"152 0 OFFCURVE",
"307 0 CURVE"
);
}
);
width = 694.73333;
}
);
leftKerningGroup = O;
rightKerningGroup = E;
unicode = 0152;
},
{
glyphname = P;
lastChange = "2022-09-03 19:03:39 +0000";
layers = (
{
anchors = (
{
name = bottom;
position = "{247, 0}";
},
{
name = top;
position = "{247, 700}";
}
);
hints = (
{
origin = "{0, 9}";
target = "{1, 0}";
type = Stem;
},
{
origin = "{1, 4}";
target = "{0, 5}";
type = Stem;
},
{
horizontal = 1;
origin = "{0, 8}";
target = "{1, 1}";
type = Stem;
},
{
horizontal = 1;
origin = "{0, 2}";
target = "{1, 7}";
type = Stem;
}
);
layerId = "29C4A576-5D06-4D79-A0A1-2A812E5B89FB";
paths = (
{
closed = 1;
nodes = (
"203 0 LINE",
"203 227 LINE",
"295 227 LINE SMOOTH",
"409 227 OFFCURVE",
"508 306 OFFCURVE",
"508 468 CURVE SMOOTH",
"508 632 OFFCURVE",
"422 700 OFFCURVE",
"295 700 CURVE SMOOTH",
"45 700 LINE",
"45 0 LINE"
);
},
{
closed = 1;
nodes = (
"203 556 LINE",
"271 556 LINE SMOOTH",
"319 556 OFFCURVE",
"346 517 OFFCURVE",
"346 461 CURVE SMOOTH",
"346 404 OFFCURVE",
"319 363 OFFCURVE",
"271 363 CURVE SMOOTH",
"203 363 LINE"
);
}
);
width = 513;
},
{
anchors = (
{
name = bottom;
position = "{272, 0}";
},
{
name = top;
position = "{272, 700}";
}
);
layerId = "AAC1BB4D-C727-4C18-8F18-05769E5A021D";
paths = (
{
closed = 1;
nodes = (
"123 0 LINE",
"123 247 LINE",
"280 247 LINE SMOOTH",
"407 247 OFFCURVE",
"503 326 OFFCURVE",
"503 478 CURVE SMOOTH",
"503 632 OFFCURVE",
"407 700 OFFCURVE",
"280 700 CURVE SMOOTH",
"70 700 LINE",
"70 0 LINE"
);
},
{
closed = 1;
nodes = (
"123 652 LINE",
"280 652 LINE SMOOTH",
"371 652 OFFCURVE",
"449 593 OFFCURVE",
"449 473 CURVE SMOOTH",
"449 350 OFFCURVE",
"371 295 OFFCURVE",
"280 295 CURVE SMOOTH",
"123 295 LINE"
);
}
);
width = 525;
},
{
anchors = (
{
name = bottom;
position = "{239, 0}";
},
{
name = top;
position = "{239, 700}";
}
);
hints = (
{
origin = "{0, 9}";
target = "{1, 0}";
type = Stem;
},
{
origin = "{1, 4}";
target = "{0, 5}";
type = Stem;
},
{
horizontal = 1;
origin = "{0, 8}";
target = "{1, 1}";
type = Stem;
},
{
horizontal = 1;
origin = "{0, 2}";
target = "{1, 7}";
type = Stem;
}
);
layerId = "58CA432C-E1D8-4E0E-9662-6D1D9C8D1884";
paths = (
{
closed = 1;
nodes = (
"227 0 LINE",
"227 221 LINE",
"300 221 LINE SMOOTH",
"410 221 OFFCURVE",
"510 300 OFFCURVE",
"510 465 CURVE SMOOTH",
"510 632 OFFCURVE",
"427 700 OFFCURVE",
"300 700 CURVE SMOOTH",
"37 700 LINE",
"37 0 LINE"
);
},
{
closed = 1;
nodes = (
"227 527 LINE",
"268 527 LINE SMOOTH",
"303 527 OFFCURVE",
"315 494 OFFCURVE",
"315 457 CURVE SMOOTH",
"315 420 OFFCURVE",
"303 384 OFFCURVE",
"268 384 CURVE SMOOTH",
"227 384 LINE"
);
}
);
width = 509.34286;
}
);
leftKerningGroup = H;
rightKerningGroup = P;
unicode = 0050;
},
{
glyphname = Thorn;
lastChange = "2022-09-03 19:03:39 +0000";
layers = (
{
anchors = (
{
name = bottom;
position = "{272, 0}";
},
{
name = top;
position = "{272, 700}";
}
);
hints = (
{
origin = "{0, 11}";
target = "{1, 0}";
type = Stem;
}
);
layerId = "AAC1BB4D-C727-4C18-8F18-05769E5A021D";
paths = (
{
closed = 1;
nodes = (
"123 0 LINE",
"123 149 LINE",
"290 149 LINE SMOOTH",
"417 149 OFFCURVE",
"513 228 OFFCURVE",
"513 390 CURVE SMOOTH",
"513 554 OFFCURVE",
"417 622 OFFCURVE",
"290 622 CURVE SMOOTH",
"123 622 LINE",
"123 700 LINE",
"70 700 LINE",
"70 0 LINE"
);
},
{
closed = 1;
nodes = (
"123 574 LINE",
"290 574 LINE SMOOTH",
"381 574 OFFCURVE",
"459 515 OFFCURVE",
"459 385 CURVE SMOOTH",
"459 252 OFFCURVE",
"381 197 OFFCURVE",
"290 197 CURVE SMOOTH",
"123 197 LINE"
);
}
);
width = 535;
},
{
anchors = (
{
name = bottom;
position = "{247, 0}";
},
{
name = top;
position = "{247, 700}";
}
);
hints = (
{
origin = "{0, 11}";
target = "{1, 0}";
type = Stem;
},
{
origin = "{1, 4}";
target = "{0, 5}";
type = Stem;
},
{
horizontal = 1;
origin = "{0, 8}";
target = "{1, 1}";
type = Stem;
},
{
horizontal = 1;
origin = "{0, 2}";
target = "{1, 7}";
type = Stem;
}
);
layerId = "29C4A576-5D06-4D79-A0A1-2A812E5B89FB";
paths = (
{
closed = 1;
nodes = (
"203 0 LINE",
"203 152 LINE",
"295 152 LINE SMOOTH",
"409 152 OFFCURVE",
"508 231 OFFCURVE",
"508 393 CURVE SMOOTH",
"508 557 OFFCURVE",
"422 625 OFFCURVE",
"295 625 CURVE SMOOTH",
"203 625 LINE",
"203 700 LINE",
"45 700 LINE",
"45 0 LINE"
);
},
{
closed = 1;
nodes = (
"203 481 LINE",
"271 481 LINE SMOOTH",
"319 481 OFFCURVE",
"346 442 OFFCURVE",
"346 386 CURVE SMOOTH",
"346 329 OFFCURVE",
"319 288 OFFCURVE",
"271 288 CURVE SMOOTH",
"203 288 LINE"
);
}
);
width = 513;
},
{
anchors = (
{
name = bottom;
position = "{239, 0}";
},
{
name = top;
position = "{239, 700}";
}
);
hints = (
{
origin = "{0, 11}";
target = "{1, 0}";
type = Stem;
}
);
layerId = "58CA432C-E1D8-4E0E-9662-6D1D9C8D1884";
paths = (
{
closed = 1;
nodes = (
"227 0 LINE",
"227 153 LINE",
"297 153 LINE SMOOTH",
"407 153 OFFCURVE",
"506 232 OFFCURVE",
"506 394 CURVE SMOOTH",
"506 558 OFFCURVE",
"424 626 OFFCURVE",
"297 626 CURVE SMOOTH",
"227 626 LINE",
"227 700 LINE",
"37 700 LINE",
"37 0 LINE"
);
},
{
closed = 1;
nodes = (
"227 453 LINE",
"265 453 LINE SMOOTH",
"300 453 OFFCURVE",
"312 420 OFFCURVE",
"312 386 CURVE SMOOTH",
"312 352 OFFCURVE",
"300 316 OFFCURVE",
"265 316 CURVE SMOOTH",
"227 316 LINE"
);
}
);
width = 506.29524;
}
);
leftKerningGroup = H;
rightKerningGroup = P;
unicode = 00DE;
},
{
glyphname = Q;
lastChange = "2022-09-03 19:03:39 +0000";
layers = (
{
anchors = (
{
name = bottom;
position = "{303, 0}";
},
{
name = top;
position = "{303, 700}";
}
);
guideLines = (
{
position = "{336, -55}";
}
);
layerId = "29C4A576-5D06-4D79-A0A1-2A812E5B89FB";
paths = (
{
closed = 1;
nodes = (
"20 153 OFFCURVE",
"158 39 OFFCURVE",
"313 39 CURVE SMOOTH",
"468 39 OFFCURVE",
"606 153 OFFCURVE",
"606 376 CURVE SMOOTH",
"606 607 OFFCURVE",
"468 712 OFFCURVE",
"313 712 CURVE SMOOTH",
"158 712 OFFCURVE",
"20 607 OFFCURVE",
"20 376 CURVE SMOOTH"
);
},
{
closed = 1;
nodes = (
"184 504 OFFCURVE",
"243 562 OFFCURVE",
"313 562 CURVE SMOOTH",
"382 562 OFFCURVE",
"444 506 OFFCURVE",
"444 376 CURVE SMOOTH",
"444 245 OFFCURVE",
"383 181 OFFCURVE",
"313 181 CURVE SMOOTH",
"243 181 OFFCURVE",
"184 245 OFFCURVE",
"184 376 CURVE SMOOTH"
);
},
{
closed = 1;
nodes = (
"514 40 LINE",
"419 -19 OFFCURVE",
"287 82 OFFCURVE",
"192 26 CURVE",
"192 -53 LINE",
"198 -55 LINE",
"294 -1 OFFCURVE",
"426 -95 OFFCURVE",
"520 -41 CURVE",
"520 38 LINE"
);
},
{
closed = 1;
nodes = (
"240 31 LINE",
"336 31 LINE",
"336 56 LINE",
"240 56 LINE"
);
}
);
width = 628;
},
{
anchors = (
{
name = bottom;
position = "{323, 0}";
},
{
name = top;
position = "{323, 700}";
}
);
guideLines = (
{
position = "{360, -55}";
}
);
layerId = "AAC1BB4D-C727-4C18-8F18-05769E5A021D";
paths = (
{
closed = 1;
nodes = (
"40 114 OFFCURVE",
"178 4 OFFCURVE",
"333 4 CURVE SMOOTH",
"488 4 OFFCURVE",
"626 114 OFFCURVE",
"626 358 CURVE SMOOTH",
"626 601 OFFCURVE",
"490 712 OFFCURVE",
"333 712 CURVE SMOOTH",
"176 712 OFFCURVE",
"40 601 OFFCURVE",
"40 358 CURVE SMOOTH"
);
},
{
closed = 1;
nodes = (
"94 555 OFFCURVE",
"196 661 OFFCURVE",
"332 661 CURVE SMOOTH",
"464 661 OFFCURVE",
"572 558 OFFCURVE",
"572 358 CURVE SMOOTH",
"572 158 OFFCURVE",
"464 53 OFFCURVE",
"332 53 CURVE SMOOTH",
"198 53 OFFCURVE",
"94 158 OFFCURVE",
"94 358 CURVE SMOOTH"
);
},
{
closed = 1;
nodes = (
"530 2 LINE",
"435 -57 OFFCURVE",
"303 44 OFFCURVE",
"208 -12 CURVE",
"208 -52 LINE",
"214 -54 LINE",
"310 0 OFFCURVE",
"442 -94 OFFCURVE",
"536 -40 CURVE",
"536 0 LINE"
);
},
{
closed = 1;
nodes = (
"266 -11 LINE",
"332 -11 LINE",
"332 14 LINE",
"266 14 LINE"
);
}
);
width = 666;
},
{
anchors = (
{
name = bottom;
position = "{297, 0}";
},
{
name = top;
position = "{297, 700}";
}
);
layerId = "58CA432C-E1D8-4E0E-9662-6D1D9C8D1884";
paths = (
{
closed = 1;
nodes = (
"14 165 OFFCURVE",
"152 50 OFFCURVE",
"307 50 CURVE SMOOTH",
"462 50 OFFCURVE",
"600 165 OFFCURVE",
"600 381 CURVE SMOOTH",
"600 609 OFFCURVE",
"461 712 OFFCURVE",
"307 712 CURVE SMOOTH",
"153 712 OFFCURVE",
"14 609 OFFCURVE",
"14 381 CURVE SMOOTH"
);
},
{
closed = 1;
nodes = (
"211 488 OFFCURVE",
"257 532 OFFCURVE",
"307 532 CURVE SMOOTH",
"357 532 OFFCURVE",
"405 490 OFFCURVE",
"405 381 CURVE SMOOTH",
"405 272 OFFCURVE",
"358 220 OFFCURVE",
"307 220 CURVE SMOOTH",
"257 220 OFFCURVE",
"211 272 OFFCURVE",
"211 381 CURVE SMOOTH"
);
},
{
closed = 1;
nodes = (
"509 52 LINE",
"414 -7 OFFCURVE",
"282 94 OFFCURVE",
"187 38 CURVE",
"187 -53 LINE",
"193 -55 LINE",
"289 -1 OFFCURVE",
"421 -95 OFFCURVE",
"515 -41 CURVE",
"515 50 LINE"
);
},
{
closed = 1;
nodes = (
"232 44 LINE",
"337 44 LINE",
"337 69 LINE",
"232 69 LINE"
);
}
);
width = 616.41905;
}
);
leftKerningGroup = O;
rightKerningGroup = Q;
unicode = 0051;
},
{
glyphname = R;
lastChange = "2022-09-04 15:32:23 +0000";
layers = (
{
anchors = (
{
name = bottom;
position = "{262, 0}";
},
{
name = top;
position = "{254, 700}";
}
);
hints = (
{
horizontal = 1;
origin = "{1, 2}";
target = "{2, 7}";
type = Stem;
},
{
horizontal = 1;
origin = "{1, 8}";
target = "{2, 1}";
type = Stem;
},
{
origin = "{3, 0}";
target = "{3, 1}";
type = Stem;
},
{
origin = "{0, 0}";
target = "{0, 1}";
type = Stem;
}
);
layerId = "29C4A576-5D06-4D79-A0A1-2A812E5B89FB";
paths = (
{
closed = 1;
nodes = (
"45 0 LINE",
"205 0 LINE",
"205 700 LINE",
"47 700 LINE"
);
},
{
closed = 1;
nodes = (
"124 700 LINE",
"124 265 LINE",
"307 265 LINE",
"413 265 OFFCURVE",
"515 338 OFFCURVE",
"515 486 CURVE SMOOTH",
"515 629 OFFCURVE",
"426 700 OFFCURVE",
"307 700 CURVE"
);
},
{
closed = 1;
nodes = (
"205 556 LINE",
"286 556 LINE SMOOTH",
"327 556 OFFCURVE",
"351 526 OFFCURVE",
"351 480 CURVE SMOOTH",
"351 433 OFFCURVE",
"327 400 OFFCURVE",
"286 400 CURVE SMOOTH",
"205 400 LINE"
);
},
{
closed = 1;
nodes = (
"350 0 LINE",
"515 0 LINE",
"515 25 LINE",
"390 350 LINE",
"238 350 LINE"
);
}
);
width = 535;
},
{
anchors = (
{
name = bottom;
position = "{263, 0}";
},
{
name = top;
position = "{252, 700}";
}
);
layerId = "AAC1BB4D-C727-4C18-8F18-05769E5A021D";
paths = (
{
closed = 1;
nodes = (
"70 0 LINE",
"123 0 LINE",
"123 700 LINE",
"72 700 LINE"
);
},
{
closed = 1;
nodes = (
"81 700 LINE",
"81 285 LINE",
"306 285 LINE SMOOTH",
"410 285 OFFCURVE",
"499 358 OFFCURVE",
"499 491 CURVE SMOOTH",
"499 629 OFFCURVE",
"413 700 OFFCURVE",
"296 700 CURVE"
);
},
{
closed = 1;
nodes = (
"113 652 LINE",
"296 652 LINE SMOOTH",
"377 652 OFFCURVE",
"445 600 OFFCURVE",
"445 488 CURVE SMOOTH",
"445 386 OFFCURVE",
"377 333 OFFCURVE",
"296 333 CURVE SMOOTH",
"113 333 LINE"
);
},
{
closed = 1;
nodes = (
"446 0 LINE",
"498 0 LINE",
"498 12 LINE",
"325 332 LINE",
"277 316 LINE"
);
}
);
width = 539;
},
{
anchors = (
{
name = bottom;
position = "{262, 0}";
},
{
name = top;
position = "{255, 700}";
}
);
hints = (
{
horizontal = 1;
origin = "{1, 2}";
target = "{2, 7}";
type = Stem;
},
{
horizontal = 1;
origin = "{1, 8}";
target = "{2, 1}";
type = Stem;
},
{
origin = "{3, 0}";
target = "{3, 1}";
type = Stem;
},
{
origin = "{0, 0}";
target = "{0, 1}";
type = Stem;
}
);
layerId = "58CA432C-E1D8-4E0E-9662-6D1D9C8D1884";
paths = (
{
closed = 1;
nodes = (
"37 0 LINE",
"229.99 0 LINE",
"229.99 700 LINE",
"39 700 LINE"
);
},
{
closed = 1;
nodes = (
"137 700 LINE",
"137 259 LINE",
"307 259 LINE SMOOTH",
"414 259 OFFCURVE",
"520 332 OFFCURVE",
"520 484 CURVE SMOOTH",
"520 629 OFFCURVE",
"430 700 OFFCURVE",
"310 700 CURVE"
);
},
{
closed = 1;
nodes = (
"233 527 LINE",
"283 527 LINE SMOOTH",
"312 527 OFFCURVE",
"322 503 OFFCURVE",
"322 478 CURVE SMOOTH",
"322 447 OFFCURVE",
"312 420 OFFCURVE",
"283 420 CURVE SMOOTH",
"233 420 LINE"
);
},
{
closed = 1;
nodes = (
"325 0 LINE",
"524 0 LINE",
"524 29 LINE",
"410 355 LINE",
"226 360 LINE"
);
}
);
width = 533.78095;
}
);
leftKerningGroup = H;
rightKerningGroup = R;
unicode = 0052;
},
{
glyphname = S;
lastChange = "2022-09-04 16:39:15 +0000";
layers = (
{
anchors = (
{
name = bottom;
position = "{231, 0}";
},
{
name = top;
position = "{231, 700}";
}
);
hints = (
{
place = "{30, 162}";
type = Stem;
},
{
place = "{298, 162}";
type = Stem;
},
{
horizontal = 1;
place = "{711, 146}";
type = Stem;
},
{
horizontal = 1;
place = "{-12, 146}";
type = Stem;
}
);
layerId = "29C4A576-5D06-4D79-A0A1-2A812E5B89FB";
paths = (
{
closed = 1;
nodes = (
"450 287 OFFCURVE",
"408 343 OFFCURVE",
"340 385 CURVE SMOOTH",
"268 429 LINE SMOOTH",
"215 461 OFFCURVE",
"182 483 OFFCURVE",
"182 516 CURVE SMOOTH",
"182 548 OFFCURVE",
"208 565 OFFCURVE",
"242 565 CURVE SMOOTH",
"296 565 OFFCURVE",
"357 535 OFFCURVE",
"400 490 CURVE",
"420 490 LINE",
"420 645 LINE",
"379 684 OFFCURVE",
"311 711 OFFCURVE",
"226 711 CURVE SMOOTH",
"112 711 OFFCURVE",
"20 639 OFFCURVE",
"20 505 CURVE SMOOTH",
"20 392 OFFCURVE",
"88 340 OFFCURVE",
"150 305 CURVE SMOOTH",
"220 265 LINE SMOOTH",
"267 238 OFFCURVE",
"288 221 OFFCURVE",
"288 187 CURVE SMOOTH",
"288 154 OFFCURVE",
"259 134 OFFCURVE",
"219 134 CURVE SMOOTH",
"166 134 OFFCURVE",
"98 169 OFFCURVE",
"55 209 CURVE",
"35 209 LINE",
"35 54 LINE",
"63 31 OFFCURVE",
"144 -12 OFFCURVE",
"240 -12 CURVE SMOOTH",
"362 -12 OFFCURVE",
"450 62 OFFCURVE",
"450 192 CURVE SMOOTH"
);
}
);
width = 470;
},
{
anchors = (
{
name = bottom;
position = "{236, 0}";
},
{
name = top;
position = "{236, 700}";
}
);
layerId = "AAC1BB4D-C727-4C18-8F18-05769E5A021D";
paths = (
{
closed = 1;
nodes = (
"445 246 OFFCURVE",
"382 295 OFFCURVE",
"314 338 CURVE SMOOTH",
"182 422 LINE SMOOTH",
"134 453 OFFCURVE",
"87 496 OFFCURVE",
"87 557 CURVE SMOOTH",
"87 625 OFFCURVE",
"142 663 OFFCURVE",
"220 663 CURVE SMOOTH",
"306 663 OFFCURVE",
"373 631 OFFCURVE",
"402 595 CURVE",
"412 595 LINE",
"412 647 LINE",
"387 670 OFFCURVE",
"327 711 OFFCURVE",
"224 711 CURVE SMOOTH",
"117 711 OFFCURVE",
"35 657 OFFCURVE",
"35 551 CURVE SMOOTH",
"35 458 OFFCURVE",
"104 411 OFFCURVE",
"159 376 CURVE SMOOTH",
"305 282 LINE SMOOTH",
"363 245 OFFCURVE",
"393 208 OFFCURVE",
"393 148 CURVE SMOOTH",
"393 69 OFFCURVE",
"324 36 OFFCURVE",
"248 36 CURVE SMOOTH",
"175 36 OFFCURVE",
"100 71 OFFCURVE",
"60 106 CURVE",
"50 106 LINE",
"50 54 LINE",
"78 31 OFFCURVE",
"150 -12 OFFCURVE",
"248 -12 CURVE SMOOTH",
"368 -12 OFFCURVE",
"445 53 OFFCURVE",
"445 153 CURVE SMOOTH"
);
}
);
width = 480;
},
{
anchors = (
{
name = bottom;
position = "{229, 0}";
},
{
name = top;
position = "{229, 700}";
}
);
hints = (
{
place = "{39, 211}";
type = Stem;
},
{
place = "{389, 211}";
type = Stem;
},
{
horizontal = 1;
place = "{928, 190}";
type = Stem;
},
{
horizontal = 1;
place = "{-16, 190}";
type = Stem;
}
);
layerId = "58CA432C-E1D8-4E0E-9662-6D1D9C8D1884";
paths = (
{
closed = 1;
nodes = (
"452 299 OFFCURVE",
"416 358 OFFCURVE",
"348 399 CURVE SMOOTH",
"294 431 LINE SMOOTH",
"240 463 OFFCURVE",
"211 479 OFFCURVE",
"211 504 CURVE SMOOTH",
"211 525 OFFCURVE",
"228 535 OFFCURVE",
"249 535 CURVE SMOOTH",
"293 535 OFFCURVE",
"352 506 OFFCURVE",
"399 458 CURVE",
"422 458 LINE",
"422 644 LINE",
"377 688 OFFCURVE",
"306 711 OFFCURVE",
"227 711 CURVE SMOOTH",
"110 711 OFFCURVE",
"15 634 OFFCURVE",
"15 491 CURVE SMOOTH",
"15 372 OFFCURVE",
"83 318 OFFCURVE",
"147 283 CURVE SMOOTH",
"194 260 LINE SMOOTH",
"238 236 OFFCURVE",
"256 225 OFFCURVE",
"256 199 CURVE SMOOTH",
"256 180 OFFCURVE",
"239 164 OFFCURVE",
"210 164 CURVE SMOOTH",
"163 164 OFFCURVE",
"97 199 OFFCURVE",
"53 240 CURVE",
"30 240 LINE",
"30 54 LINE",
"58 31 OFFCURVE",
"142 -12 OFFCURVE",
"238 -12 CURVE SMOOTH",
"360 -12 OFFCURVE",
"452 65 OFFCURVE",
"452 204 CURVE SMOOTH"
);
}
);
width = 466.95238;
}
);
leftKerningGroup = S;
rightKerningGroup = S;
unicode = 0053;
},
{
glyphname = Saltillo;
lastChange = "2022-09-03 19:03:39 +0000";
layers = (
{
layerId = "AAC1BB4D-C727-4C18-8F18-05769E5A021D";
paths = (
{
closed = 1;
nodes = (
"107 700 LINE",
"50 700 LINE",
"60 128 LINE",
"60 120 LINE",
"96 120 LINE",
"96 128 LINE"
);
}
);
width = 157;
},
{
layerId = "29C4A576-5D06-4D79-A0A1-2A812E5B89FB";
paths = (
{
closed = 1;
nodes = (
"208 700 LINE",
"30 700 LINE",
"55 218 LINE",
"55 206 LINE",
"183 206 LINE",
"183 218 LINE"
);
}
);
width = 238;
},
{
layerId = "58CA432C-E1D8-4E0E-9662-6D1D9C8D1884";
paths = (
{
closed = 1;
nodes = (
"239 700 LINE",
"24 700 LINE",
"53 245 LINE",
"53 232 LINE",
"210 232 LINE",
"210 245 LINE"
);
}
);
width = 262.68571;
}
);
leftKerningGroup = S;
rightKerningGroup = S;
unicode = A78B;
},
{
glyphname = T;
lastChange = "2022-09-04 09:10:17 +0000";
layers = (
{
anchors = (
{
name = bottom;
position = "{217, 0}";
},
{
name = center;
position = "{217, 350}";
},
{
name = top;
position = "{217, 700}";
}
);
hints = (
{
horizontal = 1;
origin = "{0, 7}";
target = "{0, 6}";
type = Stem;
},
{
origin = "{0, 3}";
target = "{0, 4}";
type = Stem;
}
);
layerId = "29C4A576-5D06-4D79-A0A1-2A812E5B89FB";
paths = (
{
closed = 1;
nodes = (
"10 700 LINE",
"10 554 LINE",
"140 554 LINE",
"140 0 LINE",
"298 0 LINE",
"298 554 LINE",
"424 554 LINE",
"424 700 LINE"
);
}
);
width = 434;
},
{
anchors = (
{
name = bottom;
position = "{216, 0}";
},
{
name = center;
position = "{215, 350}";
},
{
name = top;
position = "{215, 700}";
}
);
layerId = "AAC1BB4D-C727-4C18-8F18-05769E5A021D";
paths = (
{
closed = 1;
nodes = (
"20 700 LINE",
"20 652 LINE",
"189 652 LINE",
"189 0 LINE",
"242 0 LINE",
"242 652 LINE",
"410 652 LINE",
"410 700 LINE"
);
}
);
width = 430;
},
{
anchors = (
{
name = bottom;
position = "{220, 0}";
},
{
name = center;
position = "{218, 350}";
},
{
name = top;
position = "{218, 700}";
}
);
hints = (
{
horizontal = 1;
origin = "{0, 7}";
target = "{0, 6}";
type = Stem;
},
{
origin = "{0, 3}";
target = "{0, 4}";
type = Stem;
}
);
layerId = "58CA432C-E1D8-4E0E-9662-6D1D9C8D1884";
paths = (
{
closed = 1;
nodes = (
"7 700 LINE",
"7 524 LINE",
"125 524 LINE",
"125 0 LINE",
"315 0 LINE",
"315 524 LINE",
"428 524 LINE",
"428 700 LINE"
);
}
);
width = 435.21905;
}
);
leftKerningGroup = T;
rightKerningGroup = T;
unicode = 0054;
},
{
glyphname = Tbar;
lastChange = "2022-09-03 19:03:39 +0000";
layers = (
{
components = (
{
name = T;
transform = "{1, 0, 0, 1, 4, 0}";
}
);
layerId = "AAC1BB4D-C727-4C18-8F18-05769E5A021D";
paths = (
{
closed = 1;
nodes = (
"91 302 LINE",
"355 302 LINE",
"355 350 LINE",
"91 350 LINE"
);
}
);
width = 438;
},
{
components = (
{
name = T;
transform = "{1, 0, 0, 1, 3, 0}";
}
);
layerId = "29C4A576-5D06-4D79-A0A1-2A812E5B89FB";
paths = (
{
closed = 1;
nodes = (
"73 207 LINE",
"367 207 LINE",
"367 349 LINE",
"73 349 LINE"
);
}
);
width = 440;
},
{
components = (
{
alignment = -1;
name = T;
transform = "{1, 0, 0, 1, 3, 0}";
}
);
layerId = "58CA432C-E1D8-4E0E-9662-6D1D9C8D1884";
paths = (
{
closed = 1;
nodes = (
"68 178 LINE",
"371 178 LINE",
"371 349 LINE",
"68 349 LINE"
);
}
);
width = 440.60952;
}
);
leftKerningGroup = T;
rightKerningGroup = T;
unicode = 0166;
},
{
glyphname = U;
lastChange = "2022-09-03 19:03:39 +0000";
layers = (
{
anchors = (
{
name = bottom;
position = "{283, 0}";
},
{
name = ogonek;
position = "{505, 10}";
},
{
name = top;
position = "{283, 700}";
},
{
name = topright;
position = "{541, 700}";
}
);
hints = (
{
horizontal = 1;
origin = "{0, 2}";
target = "{0, 10}";
type = Stem;
},
{
horizontal = 1;
origin = "{0, 11}";
target = "{0, 12}";
type = Stem;
},
{
origin = "{0, 14}";
target = "{0, 17}";
type = Stem;
},
{
origin = "{0, 5}";
target = "{0, 8}";
type = Stem;
}
);
layerId = "29C4A576-5D06-4D79-A0A1-2A812E5B89FB";
paths = (
{
closed = 1;
nodes = (
"526 55 OFFCURVE",
"398 -11 OFFCURVE",
"283 -11 CURVE SMOOTH",
"168 -11 OFFCURVE",
"40 55 OFFCURVE",
"40 248 CURVE SMOOTH",
"40 700 LINE",
"200 700 LINE",
"200 270 LINE SMOOTH",
"200 200 OFFCURVE",
"222 149 OFFCURVE",
"283 149 CURVE SMOOTH",
"342 149 OFFCURVE",
"366 200 OFFCURVE",
"366 270 CURVE SMOOTH",
"366 700 LINE",
"526 700 LINE",
"526 248 LINE"
);
}
);
width = 566;
},
{
anchors = (
{
name = bottom;
position = "{288, 0}";
},
{
name = ogonek;
position = "{494, 10}";
},
{
name = top;
position = "{283, 700}";
},
{
name = topright;
position = "{526, 700}";
}
);
layerId = "AAC1BB4D-C727-4C18-8F18-05769E5A021D";
paths = (
{
closed = 1;
nodes = (
"511 38 OFFCURVE",
"385 -11 OFFCURVE",
"285 -11 CURVE SMOOTH",
"181 -11 OFFCURVE",
"55 38 OFFCURVE",
"55 221 CURVE SMOOTH",
"55 700 LINE",
"108 700 LINE",
"108 220 LINE SMOOTH",
"108 98 OFFCURVE",
"187 37 OFFCURVE",
"285 37 CURVE SMOOTH",
"379 37 OFFCURVE",
"458 98 OFFCURVE",
"458 220 CURVE SMOOTH",
"458 700 LINE",
"511 700 LINE",
"511 221 LINE"
);
}
);
width = 566;
},
{
anchors = (
{
name = bottom;
position = "{281, 0}";
},
{
name = ogonek;
position = "{508, 10}";
},
{
name = top;
position = "{283, 700}";
},
{
name = topright;
position = "{546, 700}";
}
);
hints = (
{
horizontal = 1;
origin = "{0, 2}";
target = "{0, 10}";
type = Stem;
},
{
horizontal = 1;
origin = "{0, 11}";
target = "{0, 12}";
type = Stem;
},
{
origin = "{0, 14}";
target = "{0, 17}";
type = Stem;
},
{
origin = "{0, 5}";
target = "{0, 8}";
type = Stem;
}
);
layerId = "58CA432C-E1D8-4E0E-9662-6D1D9C8D1884";
paths = (
{
closed = 1;
nodes = (
"531 60 OFFCURVE",
"402 -11 OFFCURVE",
"282 -11 CURVE SMOOTH",
"164 -11 OFFCURVE",
"35 60 OFFCURVE",
"35 256 CURVE SMOOTH",
"35 700 LINE",
"228 700 LINE",
"228 285 LINE SMOOTH",
"228 231 OFFCURVE",
"233 183 OFFCURVE",
"282 183 CURVE SMOOTH",
"331 183 OFFCURVE",
"338 231 OFFCURVE",
"338 285 CURVE SMOOTH",
"338 700 LINE",
"531 700 LINE",
"531 256 LINE"
);
}
);
width = 566;
}
);
leftKerningGroup = U;
rightKerningGroup = U;
unicode = 0055;
},
{
glyphname = Ubar;
lastChange = "2022-09-03 19:03:39 +0000";
layers = (
{
components = (
{
name = U;
transform = "{1, 0, 0, 1, 7, 0}";
}
);
layerId = "AAC1BB4D-C727-4C18-8F18-05769E5A021D";
paths = (
{
closed = 1;
nodes = (
"560 402 LINE",
"560 354 LINE",
"20 354 LINE",
"20 402 LINE"
);
}
);
width = 580;
},
{
components = (
{
name = U;
transform = "{1, 0, 0, 1, 17, 0}";
}
);
layerId = "29C4A576-5D06-4D79-A0A1-2A812E5B89FB";
paths = (
{
closed = 1;
nodes = (
"580 493 LINE",
"580 351 LINE",
"20 351 LINE",
"20 493 LINE"
);
}
);
width = 600;
},
{
components = (
{
alignment = -1;
name = U;
transform = "{1, 0, 0, 1, 20, 0}";
}
);
layerId = "58CA432C-E1D8-4E0E-9662-6D1D9C8D1884";
paths = (
{
closed = 1;
nodes = (
"586 521 LINE",
"586 350 LINE",
"20 350 LINE",
"20 521 LINE"
);
}
);
width = 606.09524;
}
);
leftKerningGroup = U;
rightKerningGroup = U;
unicode = 0244;
},
{
glyphname = Uhorn;
lastChange = "2022-09-03 19:03:39 +0000";
layers = (
{
anchors = (
{
name = bottom;
position = "{288, 0}";
},
{
name = ogonek;
position = "{494, 10}";
},
{
name = top;
position = "{288, 700}";
},
{
name = topright;
position = "{526, 700}";
}
);
layerId = "AAC1BB4D-C727-4C18-8F18-05769E5A021D";
paths = (
{
closed = 1;
nodes = (
"529 700 OFFCURVE",
"532 729 OFFCURVE",
"532 782 CURVE",
"568 782 LINE",
"568 732 OFFCURVE",
"550 697 OFFCURVE",
"511 683 CURVE",
"511 221 LINE SMOOTH",
"511 38 OFFCURVE",
"385 -11 OFFCURVE",
"285 -11 CURVE SMOOTH",
"181 -11 OFFCURVE",
"55 38 OFFCURVE",
"55 221 CURVE SMOOTH",
"55 700 LINE",
"108 700 LINE",
"108 220 LINE SMOOTH",
"108 98 OFFCURVE",
"187 37 OFFCURVE",
"285 37 CURVE SMOOTH",
"379 37 OFFCURVE",
"458 98 OFFCURVE",
"458 220 CURVE SMOOTH",
"458 700 LINE",
"482 700 LINE"
);
}
);
width = 566;
},
{
anchors = (
{
name = bottom;
position = "{283, 0}";
},
{
name = ogonek;
position = "{505, 10}";
},
{
name = top;
position = "{283, 700}";
},
{
name = topright;
position = "{541, 700}";
}
);
hints = (
{
horizontal = 1;
origin = "{0, 10}";
target = "{0, 18}";
type = Stem;
},
{
horizontal = 1;
origin = "{0, 19}";
target = "{0, 20}";
type = Stem;
},
{
origin = "{0, 22}";
target = "{0, 7}";
type = Stem;
},
{
origin = "{0, 13}";
target = "{0, 16}";
type = Stem;
}
);
layerId = "29C4A576-5D06-4D79-A0A1-2A812E5B89FB";
paths = (
{
closed = 1;
nodes = (
"513 700 OFFCURVE",
"538 724 OFFCURVE",
"538 782 CURVE",
"595 782 LINE",
"595 724 OFFCURVE",
"569 687 OFFCURVE",
"526 671 CURVE",
"526 248 LINE SMOOTH",
"526 55 OFFCURVE",
"398 -11 OFFCURVE",
"283 -11 CURVE SMOOTH",
"168 -11 OFFCURVE",
"40 55 OFFCURVE",
"40 248 CURVE SMOOTH",
"40 700 LINE",
"200 700 LINE",
"200 270 LINE SMOOTH",
"200 200 OFFCURVE",
"222 149 OFFCURVE",
"283 149 CURVE SMOOTH",
"342 149 OFFCURVE",
"366 200 OFFCURVE",
"366 270 CURVE SMOOTH",
"366 700 LINE",
"463 700 LINE SMOOTH"
);
}
);
width = 573;
},
{
anchors = (
{
name = bottom;
position = "{281, 0}";
},
{
name = ogonek;
position = "{508, 10}";
},
{
name = top;
position = "{281, 700}";
},
{
name = topright;
position = "{546, 700}";
}
);
hints = (
{
horizontal = 1;
origin = "{0, 10}";
target = "{0, 18}";
type = Stem;
},
{
horizontal = 1;
origin = "{0, 19}";
target = "{0, 20}";
type = Stem;
},
{
origin = "{0, 22}";
target = "{0, 7}";
type = Stem;
},
{
origin = "{0, 13}";
target = "{0, 16}";
type = Stem;
}
);
layerId = "58CA432C-E1D8-4E0E-9662-6D1D9C8D1884";
paths = (
{
closed = 1;
nodes = (
"508 700 OFFCURVE",
"540 722 OFFCURVE",
"540 782 CURVE",
"603 782 LINE",
"603 722 OFFCURVE",
"575 684 OFFCURVE",
"531 667 CURVE",
"531 256 LINE SMOOTH",
"531 60 OFFCURVE",
"402 -11 OFFCURVE",
"282 -11 CURVE SMOOTH",
"164 -11 OFFCURVE",
"35 60 OFFCURVE",
"35 256 CURVE SMOOTH",
"35 700 LINE",
"228 700 LINE",
"228 285 LINE SMOOTH",
"228 231 OFFCURVE",
"233 183 OFFCURVE",
"282 183 CURVE SMOOTH",
"331 183 OFFCURVE",
"338 231 OFFCURVE",
"338 285 CURVE SMOOTH",
"338 700 LINE",
"457 700 LINE"
);
}
);
width = 575.13333;
}
);
leftKerningGroup = U;
rightKerningGroup = U;
unicode = 01AF;
},
{
glyphname = Uogonek;
lastChange = "2022-09-03 19:03:39 +0000";
layers = (
{
anchors = (
{
name = bottom;
position = "{271, -180}";
}
);
components = (
{
name = U;
}
);
layerId = "AAC1BB4D-C727-4C18-8F18-05769E5A021D";
paths = (
{
closed = 1;
nodes = (
"305 -137 OFFCURVE",
"290 -144 OFFCURVE",
"266 -144 CURVE SMOOTH",
"233 -144 OFFCURVE",
"207 -126 OFFCURVE",
"207 -93 CURVE SMOOTH",
"207 -59 OFFCURVE",
"230 -35 OFFCURVE",
"255 -16 CURVE SMOOTH",
"276 0 LINE",
"310 0 LINE",
"264 -40 LINE SMOOTH",
"250 -53 OFFCURVE",
"240 -68 OFFCURVE",
"241 -85 CURVE SMOOTH",
"242 -104 OFFCURVE",
"255 -114 OFFCURVE",
"272 -114 CURVE SMOOTH",
"285 -114 OFFCURVE",
"301 -109 OFFCURVE",
"312 -101 CURVE",
"318 -101 LINE",
"318 -129 LINE"
);
}
);
width = 566;
},
{
anchors = (
{
name = bottom;
position = "{288, -163}";
}
);
components = (
{
name = U;
}
);
layerId = "29C4A576-5D06-4D79-A0A1-2A812E5B89FB";
paths = (
{
closed = 1;
nodes = (
"330 -151 OFFCURVE",
"310 -162 OFFCURVE",
"280 -162 CURVE SMOOTH",
"242 -162 OFFCURVE",
"214 -140 OFFCURVE",
"214 -102 CURVE SMOOTH",
"214 -64 OFFCURVE",
"239 -38 OFFCURVE",
"264 -18 CURVE SMOOTH",
"286 0 LINE",
"334 0 LINE",
"283 -50 LINE SMOOTH",
"269 -64 OFFCURVE",
"263 -80 OFFCURVE",
"265 -94 CURVE SMOOTH",
"267 -111 OFFCURVE",
"280 -118 OFFCURVE",
"295 -118 CURVE SMOOTH",
"308 -118 OFFCURVE",
"325 -110 OFFCURVE",
"334 -101 CURVE",
"342 -101 LINE",
"342 -141 LINE"
);
}
);
width = 566;
},
{
anchors = (
{
name = bottom;
position = "{293, -158}";
}
);
components = (
{
alignment = -1;
name = U;
}
);
layerId = "58CA432C-E1D8-4E0E-9662-6D1D9C8D1884";
paths = (
{
closed = 1;
nodes = (
"338 -155 OFFCURVE",
"316 -167 OFFCURVE",
"284 -167 CURVE SMOOTH",
"245 -167 OFFCURVE",
"216 -144 OFFCURVE",
"216 -105 CURVE SMOOTH",
"216 -66 OFFCURVE",
"242 -39 OFFCURVE",
"267 -19 CURVE SMOOTH",
"289 0 LINE",
"341 0 LINE",
"289 -53 LINE SMOOTH",
"275 -67 OFFCURVE",
"270 -84 OFFCURVE",
"272 -97 CURVE SMOOTH",
"275 -113 OFFCURVE",
"288 -119 OFFCURVE",
"302 -119 CURVE SMOOTH",
"315 -119 OFFCURVE",
"332 -110 OFFCURVE",
"341 -101 CURVE",
"349 -101 LINE",
"349 -145 LINE"
);
}
);
width = 566;
}
);
leftKerningGroup = U;
rightKerningGroup = U;
unicode = 0172;
},
{
glyphname = V;
lastChange = "2022-09-04 16:25:57 +0000";
layers = (
{
anchors = (
{
name = bottom;
position = "{270, 0}";
},
{
name = top;
position = "{270, 700}";
}
);
hints = (
{
place = "{5, 165}";
type = Stem;
},
{
place = "{370, 165}";
type = Stem;
},
{
horizontal = 1;
place = "{1, 222}";
type = Stem;
}
);
layerId = "29C4A576-5D06-4D79-A0A1-2A812E5B89FB";
paths = (
{
closed = 1;
nodes = (
"5 675 LINE",
"144 0 LINE",
"410 1 LINE",
"549 675 LINE",
"549 700 LINE",
"384 700 LINE",
"298 156 LINE",
"256 156 LINE",
"170 700 LINE",
"5 700 LINE"
);
}
);
width = 554;
},
{
anchors = (
{
name = bottom;
position = "{285, 0}";
},
{
name = top;
position = "{285, 700}";
}
);
layerId = "AAC1BB4D-C727-4C18-8F18-05769E5A021D";
paths = (
{
closed = 1;
nodes = (
"20 685 LINE",
"204 0 LINE",
"365 1 LINE",
"550 685 LINE",
"550 700 LINE",
"497 700 LINE",
"323 48 LINE",
"246 48 LINE",
"73 700 LINE",
"20 700 LINE"
);
}
);
width = 570;
},
{
anchors = (
{
name = bottom;
position = "{265, 0}";
},
{
name = top;
position = "{265, 700}";
}
);
hints = (
{
place = "{7, 215}";
type = Stem;
},
{
place = "{483, 215}";
type = Stem;
},
{
horizontal = 1;
place = "{1, 290}";
type = Stem;
}
);
layerId = "58CA432C-E1D8-4E0E-9662-6D1D9C8D1884";
paths = (
{
closed = 1;
nodes = (
"0 672 LINE",
"126 0 LINE",
"424 1 LINE",
"549 672 LINE",
"549 700 LINE",
"350 700 LINE",
"290 189 LINE",
"259 189 LINE",
"200 700 LINE",
"0 700 LINE"
);
}
);
width = 549.12381;
}
);
leftKerningGroup = V;
rightKerningGroup = V;
unicode = 0056;
},
{
glyphname = W;
lastChange = "2022-09-04 16:27:51 +0000";
layers = (
{
anchors = (
{
name = bottom;
position = "{372, 0}";
},
{
name = top;
position = "{372, 700}";
}
);
hints = (
{
origin = "{0, 17}";
target = "{0, 16}";
type = Stem;
},
{
origin = "{0, 9}";
target = "{0, 8}";
type = Stem;
},
{
horizontal = 1;
origin = "{0, 2}";
target = "{0, 14}";
type = Stem;
}
);
layerId = "29C4A576-5D06-4D79-A0A1-2A812E5B89FB";
paths = (
{
closed = 1;
nodes = (
"8 675 LINE",
"116 0 LINE",
"321 0 LINE",
"367 400 LINE",
"377 400 LINE",
"422 0 LINE",
"627 0 LINE",
"735 675 LINE",
"735 700 LINE",
"570 700 LINE",
"517 218 LINE",
"506 218 LINE",
"443 700 LINE",
"300 700 LINE",
"237 218 LINE",
"227 218 LINE",
"173 700 LINE",
"8 700 LINE"
);
}
);
width = 743;
},
{
anchors = (
{
name = bottom;
position = "{357, 0}";
},
{
name = top;
position = "{357, 700}";
}
);
layerId = "AAC1BB4D-C727-4C18-8F18-05769E5A021D";
paths = (
{
closed = 1;
nodes = (
"23 685 LINE",
"137 0 LINE",
"251 0 LINE",
"349 652 LINE",
"365 652 LINE",
"463 0 LINE",
"577 0 LINE",
"690 685 LINE",
"690 700 LINE",
"641 700 LINE",
"531 48 LINE",
"510 48 LINE",
"410 700 LINE",
"303 700 LINE",
"204 48 LINE",
"184 48 LINE",
"72 700 LINE",
"23 700 LINE"
);
}
);
width = 713;
},
{
anchors = (
{
name = bottom;
position = "{377, 0}";
},
{
name = top;
position = "{377, 700}";
}
);
hints = (
{
origin = "{0, 17}";
target = "{0, 16}";
type = Stem;
},
{
origin = "{0, 9}";
target = "{0, 8}";
type = Stem;
},
{
horizontal = 1;
origin = "{0, 2}";
target = "{0, 14}";
type = Stem;
}
);
layerId = "58CA432C-E1D8-4E0E-9662-6D1D9C8D1884";
paths = (
{
closed = 1;
nodes = (
"3 672 LINE",
"110 0 LINE",
"342 0 LINE",
"372 323 LINE",
"381 323 LINE",
"410 0 LINE",
"642 0 LINE",
"749 672 LINE",
"749 700 LINE",
"548 700 LINE",
"513 270 LINE",
"505 270 LINE",
"453 700 LINE",
"299 700 LINE",
"247 270 LINE",
"240 270 LINE",
"204 700 LINE",
"3 700 LINE"
);
}
);
width = 752.14286;
}
);
leftKerningGroup = W;
rightKerningGroup = W;
unicode = 0057;
},
{
glyphname = X;
lastChange = "2022-09-03 19:03:39 +0000";
layers = (
{
anchors = (
{
name = bottom;
position = "{263, 0}";
},
{
name = top;
position = "{263, 700}";
}
);
hints = (
{
origin = "{0, 13}";
target = "{0, 12}";
type = Stem;
},
{
origin = "{0, 9}";
target = "{0, 8}";
type = Stem;
},
{
horizontal = 1;
origin = "{0, 2}";
target = "{0, 10}";
type = Stem;
}
);
layerId = "29C4A576-5D06-4D79-A0A1-2A812E5B89FB";
paths = (
{
closed = 1;
nodes = (
"168 0 LINE",
"269 258 LINE",
"283 258 LINE",
"383 0 LINE",
"546 0 LINE",
"546 25 LINE",
"418 360 LINE",
"536 675 LINE",
"536 700 LINE",
"373 700 LINE",
"283 441 LINE",
"269 441 LINE",
"178 700 LINE",
"15 700 LINE",
"15 675 LINE",
"139 360 LINE",
"5 25 LINE",
"5 0 LINE"
);
}
);
width = 551;
},
{
anchors = (
{
name = bottom;
position = "{221, 0}";
},
{
name = top;
position = "{221, 700}";
}
);
layerId = "AAC1BB4D-C727-4C18-8F18-05769E5A021D";
paths = (
{
closed = 1;
nodes = (
"73 0 LINE",
"243 336 LINE",
"263 336 LINE",
"427 0 LINE",
"480 0 LINE",
"480 12 LINE",
"305 360 LINE",
"470 688 LINE",
"470 700 LINE",
"417 700 LINE",
"263 384 LINE",
"243 384 LINE",
"83 700 LINE",
"30 700 LINE",
"30 688 LINE",
"201 360 LINE",
"20 12 LINE",
"20 0 LINE"
);
}
);
width = 500;
},
{
anchors = (
{
name = bottom;
position = "{276, 0}";
},
{
name = top;
position = "{276, 700}";
}
);
hints = (
{
origin = "{0, 13}";
target = "{0, 12}";
type = Stem;
},
{
origin = "{0, 9}";
target = "{0, 8}";
type = Stem;
},
{
horizontal = 1;
origin = "{0, 2}";
target = "{0, 10}";
type = Stem;
}
);
layerId = "58CA432C-E1D8-4E0E-9662-6D1D9C8D1884";
paths = (
{
closed = 1;
nodes = (
"197 0 LINE",
"277 234 LINE",
"289 234 LINE",
"370 0 LINE",
"566 0 LINE",
"566 29 LINE",
"452 360 LINE",
"556 671 LINE",
"556 700 LINE",
"360 700 LINE",
"289 458 LINE",
"277 458 LINE",
"207 700 LINE",
"10 700 LINE",
"10 671 LINE",
"120 360 LINE",
"0 29 LINE",
"0 0 LINE"
);
}
);
width = 566.54286;
}
);
leftKerningGroup = X;
rightKerningGroup = K;
unicode = 0058;
},
{
glyphname = Y;
lastChange = "2022-09-04 09:10:33 +0000";
layers = (
{
anchors = (
{
name = bottom;
position = "{273, 0}";
},
{
name = top;
position = "{273, 700}";
},
{
name = topleft;
position = "{20, 700}";
}
);
hints = (
{
origin = "{0, 13}";
target = "{0, 12}";
type = Stem;
},
{
origin = "{0, 9}";
target = "{0, 8}";
type = Stem;
}
);
layerId = "29C4A576-5D06-4D79-A0A1-2A812E5B89FB";
paths = (
{
closed = 1;
nodes = (
"6 675 LINE",
"132 213 LINE",
"194 213 LINE",
"194 0 LINE",
"352 0 LINE",
"352 214 LINE",
"414 214 LINE",
"540 675 LINE",
"540 700 LINE",
"374 700 LINE",
"296 365 LINE",
"250 365 LINE",
"172 700 LINE",
"6 700 LINE"
);
}
);
width = 546;
},
{
anchors = (
{
name = bottom;
position = "{264, 0}";
},
{
name = top;
position = "{264, 700}";
},
{
name = topleft;
position = "{11, 700}";
}
);
layerId = "AAC1BB4D-C727-4C18-8F18-05769E5A021D";
paths = (
{
closed = 1;
nodes = (
"22 685 LINE",
"176 268 LINE",
"238 268 LINE",
"238 0 LINE",
"291 0 LINE",
"291 269 LINE",
"352 269 LINE",
"506 685 LINE",
"506 700 LINE",
"453 700 LINE",
"316 317 LINE",
"212 317 LINE",
"75 700 LINE",
"22 700 LINE"
);
}
);
width = 528;
},
{
anchors = (
{
name = bottom;
position = "{276, 0}";
},
{
name = top;
position = "{276, 700}";
},
{
name = topleft;
position = "{23, 700}";
}
);
hints = (
{
origin = "{0, 13}";
target = "{0, 12}";
type = Stem;
},
{
origin = "{0, 9}";
target = "{0, 8}";
type = Stem;
}
);
layerId = "58CA432C-E1D8-4E0E-9662-6D1D9C8D1884";
paths = (
{
closed = 1;
nodes = (
"1 672 LINE",
"119 196 LINE",
"181 196 LINE",
"181 0 LINE",
"371 0 LINE",
"371 197 LINE",
"433 197 LINE",
"550 672 LINE",
"550 700 LINE",
"350 700 LINE",
"290 380 LINE",
"262 380 LINE",
"202 700 LINE",
"1 700 LINE"
);
}
);
width = 551.48571;
}
);
leftKerningGroup = Y;
rightKerningGroup = Y;
unicode = 0059;
},
{
glyphname = Z;
lastChange = "2022-09-03 19:03:39 +0000";
layers = (
{
anchors = (
{
name = bottom;
position = "{249, 0}";
},
{
name = center;
position = "{249, 350}";
},
{
name = top;
position = "{249, 700}";
}
);
layerId = "29C4A576-5D06-4D79-A0A1-2A812E5B89FB";
paths = (
{
closed = 1;
nodes = (
"470 700 LINE",
"28 700 LINE",
"28 545 LINE",
"290 545 LINE",
"290 535 LINE",
"28 155 LINE",
"28 0 LINE",
"470 0 LINE",
"470 155 LINE",
"212 155 LINE",
"212 165 LINE",
"470 545 LINE"
);
}
);
width = 498;
},
{
anchors = (
{
name = bottom;
position = "{251, 0}";
},
{
name = center;
position = "{251, 350}";
},
{
name = top;
position = "{250, 700}";
}
);
layerId = "AAC1BB4D-C727-4C18-8F18-05769E5A021D";
paths = (
{
closed = 1;
nodes = (
"472 700 LINE",
"30 700 LINE",
"30 650 LINE",
"407 650 LINE",
"407 640 LINE",
"30 51 LINE",
"30 0 LINE",
"472 0 LINE",
"472 50 LINE",
"95 50 LINE",
"95 60 LINE",
"472 649 LINE"
);
}
);
width = 502;
},
{
anchors = (
{
name = bottom;
position = "{248, 0}";
},
{
name = center;
position = "{248, 350}";
},
{
name = top;
position = "{249, 700}";
}
);
layerId = "58CA432C-E1D8-4E0E-9662-6D1D9C8D1884";
paths = (
{
closed = 1;
nodes = (
"469 700 LINE",
"27 700 LINE",
"27 513 LINE",
"254 513 LINE",
"254 503 LINE",
"27 187 LINE",
"27 0 LINE",
"469 0 LINE",
"469 187 LINE",
"248 187 LINE",
"248 197 LINE",
"469 513 LINE"
);
}
);
width = 496.78095;
}
);
leftKerningGroup = Z;
rightKerningGroup = K;
unicode = 005A;
},
{
glyphname = germandbls;
lastChange = "2022-09-03 19:03:39 +0000";
layers = (
{
layerId = "AAC1BB4D-C727-4C18-8F18-05769E5A021D";
paths = (
{
closed = 1;
nodes = (
"293 0 LINE SMOOTH",
"425 0 OFFCURVE",
"506 55 OFFCURVE",
"506 195 CURVE SMOOTH",
"506 304 OFFCURVE",
"445 350 OFFCURVE",
"390 364 CURVE",
"390 368 LINE",
"430 379 OFFCURVE",
"487 421 OFFCURVE",
"487 527 CURVE SMOOTH",
"487 637 OFFCURVE",
"410 705 OFFCURVE",
"265 705 CURVE SMOOTH",
"132 705 OFFCURVE",
"55 626 OFFCURVE",
"55 504 CURVE SMOOTH",
"55 0 LINE",
"108 0 LINE",
"108 496 LINE SMOOTH",
"108 594 OFFCURVE",
"159 652 OFFCURVE",
"266 652 CURVE SMOOTH",
"368 652 OFFCURVE",
"433 603 OFFCURVE",
"433 515 CURVE SMOOTH",
"433 430 OFFCURVE",
"387 383 OFFCURVE",
"313 383 CURVE SMOOTH",
"173 383 LINE",
"173 337 LINE",
"308 337 LINE",
"387 337 OFFCURVE",
"452 284 OFFCURVE",
"452 195 CURVE SMOOTH",
"452 95 OFFCURVE",
"405 48 OFFCURVE",
"308 48 CURVE SMOOTH",
"173 48 LINE",
"173 0 LINE"
);
}
);
width = 541;
},
{
layerId = "29C4A576-5D06-4D79-A0A1-2A812E5B89FB";
paths = (
{
closed = 1;
nodes = (
"318 0 LINE SMOOTH",
"440 0 OFFCURVE",
"521 58 OFFCURVE",
"521 198 CURVE SMOOTH",
"521 307 OFFCURVE",
"450 366 OFFCURVE",
"395 380 CURVE",
"395 387 LINE",
"435 398 OFFCURVE",
"496 446 OFFCURVE",
"496 537 CURVE SMOOTH",
"496 642 OFFCURVE",
"405 710 OFFCURVE",
"274 710 CURVE SMOOTH",
"106 710 OFFCURVE",
"40 609 OFFCURVE",
"40 469 CURVE SMOOTH",
"40 0 LINE",
"198 0 LINE",
"198 472 LINE SMOOTH",
"198 539 OFFCURVE",
"231 564 OFFCURVE",
"273 564 CURVE SMOOTH",
"315 564 OFFCURVE",
"342 537 OFFCURVE",
"342 491 CURVE SMOOTH",
"342 445 OFFCURVE",
"315 417 OFFCURVE",
"279 417 CURVE SMOOTH",
"237 417 LINE",
"237 293 LINE",
"283 293 LINE",
"324 293 OFFCURVE",
"355 267 OFFCURVE",
"355 219 CURVE SMOOTH",
"355 171 OFFCURVE",
"324 143 OFFCURVE",
"283 143 CURVE SMOOTH",
"237 143 LINE",
"237 0 LINE"
);
}
);
width = 531;
},
{
layerId = "58CA432C-E1D8-4E0E-9662-6D1D9C8D1884";
paths = (
{
closed = 1;
nodes = (
"326 0 LINE SMOOTH",
"445 0 OFFCURVE",
"526 59 OFFCURVE",
"526 199 CURVE SMOOTH",
"526 308 OFFCURVE",
"452 371 OFFCURVE",
"397 385 CURVE",
"397 393 LINE",
"437 404 OFFCURVE",
"499 454 OFFCURVE",
"499 540 CURVE SMOOTH",
"499 644 OFFCURVE",
"403 712 OFFCURVE",
"277 712 CURVE SMOOTH",
"98 712 OFFCURVE",
"35 604 OFFCURVE",
"35 458 CURVE SMOOTH",
"35 0 LINE",
"225 0 LINE",
"225 465 LINE SMOOTH",
"225 522 OFFCURVE",
"253 537 OFFCURVE",
"275 537 CURVE SMOOTH",
"299 537 OFFCURVE",
"314 517 OFFCURVE",
"314 484 CURVE SMOOTH",
"314 450 OFFCURVE",
"293 427 OFFCURVE",
"269 427 CURVE SMOOTH",
"257 427 LINE",
"257 280 LINE",
"275 280 LINE",
"305 280 OFFCURVE",
"325 262 OFFCURVE",
"325 226 CURVE SMOOTH",
"325 194 OFFCURVE",
"299 172 OFFCURVE",
"275 172 CURVE SMOOTH",
"257 172 LINE",
"257 0 LINE"
);
}
);
width = 527.95238;
}
);
leftKerningGroup = U;
rightKerningGroup = B;
unicode = 00DF;
},
{
glyphname = zero;
lastChange = "2022-09-04 15:37:10 +0000";
layers = (
{
hints = (
{
horizontal = 1;
origin = "{0, 10}";
target = "{1, 2}";
type = Stem;
},
{
horizontal = 1;
origin = "{1, 9}";
target = "{0, 3}";
type = Stem;
},
{
origin = "{1, 6}";
target = "{0, 6}";
type = Stem;
},
{
origin = "{0, 0}";
target = "{1, 12}";
type = Stem;
}
);
layerId = "29C4A576-5D06-4D79-A0A1-2A812E5B89FB";
paths = (
{
closed = 1;
nodes = (
"25 374 LINE SMOOTH",
"25 628 OFFCURVE",
"136 712 OFFCURVE",
"272 712 CURVE SMOOTH",
"408 712 OFFCURVE",
"519 628 OFFCURVE",
"519 374 CURVE SMOOTH",
"519 327 LINE SMOOTH",
"519 74 OFFCURVE",
"408 -10 OFFCURVE",
"272 -10 CURVE SMOOTH",
"136 -10 OFFCURVE",
"25 74 OFFCURVE",
"25 327 CURVE SMOOTH"
);
},
{
closed = 1;
nodes = (
"187 196 OFFCURVE",
"216 140 OFFCURVE",
"272 140 CURVE SMOOTH",
"327 140 OFFCURVE",
"357 196 OFFCURVE",
"357 329 CURVE SMOOTH",
"357 369 LINE SMOOTH",
"357 506 OFFCURVE",
"322 562 OFFCURVE",
"272 562 CURVE SMOOTH",
"221 562 OFFCURVE",
"187 506 OFFCURVE",
"187 369 CURVE SMOOTH",
"187 329 LINE SMOOTH"
);
}
);
width = 544;
},
{
layerId = "AAC1BB4D-C727-4C18-8F18-05769E5A021D";
paths = (
{
closed = 1;
nodes = (
"45 419 LINE SMOOTH",
"45 619 OFFCURVE",
"156 712 OFFCURVE",
"292 712 CURVE SMOOTH",
"428 712 OFFCURVE",
"539 619 OFFCURVE",
"539 419 CURVE SMOOTH",
"539 282 LINE SMOOTH",
"539 82 OFFCURVE",
"428 -12 OFFCURVE",
"292 -12 CURVE SMOOTH",
"156 -12 OFFCURVE",
"45 82 OFFCURVE",
"45 282 CURVE SMOOTH"
);
},
{
closed = 1;
nodes = (
"98 130 OFFCURVE",
"172 36 OFFCURVE",
"292 36 CURVE SMOOTH",
"408 36 OFFCURVE",
"486 130 OFFCURVE",
"486 282 CURVE SMOOTH",
"486 419 LINE SMOOTH",
"486 576 OFFCURVE",
"408 664 OFFCURVE",
"292 664 CURVE SMOOTH",
"172 664 OFFCURVE",
"98 576 OFFCURVE",
"98 419 CURVE SMOOTH",
"98 282 LINE SMOOTH"
);
}
);
width = 584;
},
{
hints = (
{
horizontal = 1;
origin = "{0, 10}";
target = "{1, 2}";
type = Stem;
},
{
horizontal = 1;
origin = "{1, 9}";
target = "{0, 3}";
type = Stem;
},
{
origin = "{1, 6}";
target = "{0, 6}";
type = Stem;
},
{
origin = "{0, 0}";
target = "{1, 12}";
type = Stem;
}
);
layerId = "58CA432C-E1D8-4E0E-9662-6D1D9C8D1884";
paths = (
{
closed = 1;
nodes = (
"19 360 LINE SMOOTH",
"19 631 OFFCURVE",
"130 712 OFFCURVE",
"266 712 CURVE SMOOTH",
"402 712 OFFCURVE",
"513 631 OFFCURVE",
"513 360 CURVE SMOOTH",
"513 341 LINE SMOOTH",
"513 72 OFFCURVE",
"402 -9 OFFCURVE",
"266 -9 CURVE SMOOTH",
"130 -9 OFFCURVE",
"19 72 OFFCURVE",
"19 341 CURVE SMOOTH"
);
},
{
closed = 1;
nodes = (
"214 216 OFFCURVE",
"229 172 OFFCURVE",
"266 172 CURVE SMOOTH",
"302 172 OFFCURVE",
"318 216 OFFCURVE",
"318 343 CURVE SMOOTH",
"318 354 LINE SMOOTH",
"318 485 OFFCURVE",
"296 531 OFFCURVE",
"266 531 CURVE SMOOTH",
"236 531 OFFCURVE",
"214 485 OFFCURVE",
"214 354 CURVE SMOOTH",
"214 343 LINE SMOOTH"
);
}
);
width = 531.80952;
}
);
leftKerningGroup = O;
rightKerningGroup = O;
unicode = 0030;
},
{
glyphname = one;
lastChange = "2022-09-04 16:36:32 +0000";
layers = (
{
hints = (
{
horizontal = 1;
origin = "{0, 4}";
target = "{0, 3}";
type = Stem;
},
{
origin = "{0, 7}";
target = "{0, 0}";
type = Stem;
}
);
layerId = "29C4A576-5D06-4D79-A0A1-2A812E5B89FB";
paths = (
{
closed = 1;
nodes = (
"296 0 LINE",
"296 700 LINE",
"138 700 LINE",
"20 626 LINE",
"20 461 LINE",
"32 461 LINE",
"138 529 LINE",
"138 0 LINE"
);
}
);
width = 341;
},
{
layerId = "AAC1BB4D-C727-4C18-8F18-05769E5A021D";
paths = (
{
closed = 1;
nodes = (
"248 0 LINE",
"248 700 LINE",
"193 700 LINE",
"45 621 LINE",
"45 569 LINE",
"57 569 LINE",
"195 642 LINE",
"195 0 LINE"
);
}
);
width = 319;
},
{
hints = (
{
horizontal = 1;
origin = "{0, 4}";
target = "{0, 3}";
type = Stem;
},
{
origin = "{0, 7}";
target = "{0, 0}";
type = Stem;
}
);
layerId = "58CA432C-E1D8-4E0E-9662-6D1D9C8D1884";
paths = (
{
closed = 1;
nodes = (
"311 0 LINE",
"311 700 LINE",
"121 700 LINE",
"12 628 LINE",
"12 428 LINE",
"24 428 LINE",
"121 495 LINE",
"121 0 LINE"
);
}
);
width = 347.70476;
}
);
rightKerningGroup = H;
unicode = 0031;
},
{
glyphname = two;
lastChange = "2022-09-04 15:30:35 +0000";
layers = (
{
guideLines = (
{
angle = 270;
position = "{25, 227}";
}
);
hints = (
{
horizontal = 1;
origin = "{0, 18}";
target = "{0, 19}";
type = Stem;
},
{
horizontal = 1;
origin = "{0, 6}";
target = "{0, 5}";
type = Stem;
},
{
origin = "{0, 11}";
target = "{0, 25}";
type = Stem;
}
);
layerId = "29C4A576-5D06-4D79-A0A1-2A812E5B89FB";
paths = (
{
closed = 1;
nodes = (
"452 404 OFFCURVE",
"405 333 OFFCURVE",
"345 266 CURVE SMOOTH",
"254 165 LINE",
"254 155 LINE",
"445 155 LINE",
"445 0 LINE",
"25 0 LINE",
"25 145 LINE",
"259 363 OFFCURVE",
"288 415 OFFCURVE",
"288 486 CURVE SMOOTH",
"288 537 OFFCURVE",
"254 566 OFFCURVE",
"200 566 CURVE SMOOTH",
"132 566 OFFCURVE",
"66 515 OFFCURVE",
"45 491 CURVE",
"25 491 LINE",
"25 646 LINE",
"58 676 OFFCURVE",
"127 712 OFFCURVE",
"229 712 CURVE SMOOTH",
"335 712 OFFCURVE",
"452 655 OFFCURVE",
"452 505 CURVE"
);
}
);
width = 477;
},
{
hints = (
{
origin = "{0, 11}";
target = "{0, 25}";
type = Stem;
}
);
layerId = "AAC1BB4D-C727-4C18-8F18-05769E5A021D";
paths = (
{
closed = 1;
nodes = (
"447 447 OFFCURVE",
"404 369 OFFCURVE",
"248 196 CURVE SMOOTH",
"124 58 LINE",
"124 48 LINE",
"447 48 LINE",
"447 0 LINE",
"35 0 LINE",
"35 44 LINE",
"378 396 OFFCURVE",
"395 463 OFFCURVE",
"395 535 CURVE SMOOTH",
"395 611 OFFCURVE",
"339 660 OFFCURVE",
"245 660 CURVE SMOOTH",
"170 660 OFFCURVE",
"97 624 OFFCURVE",
"57 591 CURVE",
"47 591 LINE",
"47 645 LINE",
"81 673 OFFCURVE",
"152 712 OFFCURVE",
"249 712 CURVE SMOOTH",
"367 712 OFFCURVE",
"447 651 OFFCURVE",
"447 535 CURVE"
);
}
);
width = 485;
},
{
hints = (
{
origin = "{0, 11}";
target = "{0, 25}";
type = Stem;
}
);
layerId = "58CA432C-E1D8-4E0E-9662-6D1D9C8D1884";
paths = (
{
closed = 1;
nodes = (
"454 391 OFFCURVE",
"405 322 OFFCURVE",
"375 287 CURVE SMOOTH",
"294 198 LINE",
"294 188 LINE",
"444 188 LINE",
"444 0 LINE",
"22 0 LINE",
"22 176 LINE",
"223 353 OFFCURVE",
"255 400 OFFCURVE",
"255 471 CURVE SMOOTH",
"255 514 OFFCURVE",
"228 537 OFFCURVE",
"186 537 CURVE SMOOTH",
"120 537 OFFCURVE",
"57 482 OFFCURVE",
"41 461 CURVE",
"18 461 LINE",
"18 646 LINE",
"51 677 OFFCURVE",
"119 712 OFFCURVE",
"223 712 CURVE SMOOTH",
"325 712 OFFCURVE",
"454 656 OFFCURVE",
"454 496 CURVE"
);
}
);
width = 474.5619;
}
);
leftKerningGroup = "2";
unicode = 0032;
},
{
glyphname = three;
lastChange = "2022-09-04 16:30:30 +0000";
layers = (
{
layerId = "29C4A576-5D06-4D79-A0A1-2A812E5B89FB";
paths = (
{
closed = 1;
nodes = (
"244 308 OFFCURVE",
"283 282 OFFCURVE",
"283 218 CURVE SMOOTH",
"283 161 OFFCURVE",
"244 135 OFFCURVE",
"197 135 CURVE SMOOTH",
"115 135 OFFCURVE",
"47 191 OFFCURVE",
"30 210 CURVE",
"20 210 LINE",
"20 55 LINE",
"51 27 OFFCURVE",
"109 -11 OFFCURVE",
"221 -11 CURVE SMOOTH",
"343 -11 OFFCURVE",
"449 61 OFFCURVE",
"449 211 CURVE SMOOTH",
"449 330 OFFCURVE",
"372 384 OFFCURVE",
"295 398 CURVE",
"295 406 LINE",
"437 555 LINE",
"437 700 LINE",
"33 700 LINE",
"33 545 LINE",
"248 545 LINE",
"248 535 LINE",
"125 406 LINE",
"125 308 LINE",
"177 308 LINE"
);
}
);
width = 469;
},
{
layerId = "AAC1BB4D-C727-4C18-8F18-05769E5A021D";
paths = (
{
closed = 1;
nodes = (
"336 341 OFFCURVE",
"415 295 OFFCURVE",
"415 193 CURVE SMOOTH",
"415 94 OFFCURVE",
"339 37 OFFCURVE",
"234 37 CURVE SMOOTH",
"142 37 OFFCURVE",
"67 89 OFFCURVE",
"50 109 CURVE",
"40 109 LINE",
"40 55 LINE",
"71 27 OFFCURVE",
"131 -11 OFFCURVE",
"243 -11 CURVE SMOOTH",
"365 -11 OFFCURVE",
"469 55 OFFCURVE",
"469 193 CURVE SMOOTH",
"469 325 OFFCURVE",
"372 393 OFFCURVE",
"217 389 CURVE",
"217 397 LINE",
"457 654 LINE",
"457 700 LINE",
"53 700 LINE",
"53 650 LINE",
"376 650 LINE",
"376 640 LINE",
"145 391 LINE",
"145 341 LINE",
"215 341 LINE"
);
}
);
width = 504;
},
{
layerId = "58CA432C-E1D8-4E0E-9662-6D1D9C8D1884";
paths = (
{
closed = 1;
nodes = (
"216 298 OFFCURVE",
"243 278 OFFCURVE",
"243 226 CURVE SMOOTH",
"243 181 OFFCURVE",
"215 165 OFFCURVE",
"186 165 CURVE SMOOTH",
"107 165 OFFCURVE",
"41 222 OFFCURVE",
"24 241 CURVE",
"14 241 LINE",
"14 55 LINE",
"45 27 OFFCURVE",
"102 -11 OFFCURVE",
"214 -11 CURVE SMOOTH",
"336 -11 OFFCURVE",
"443 63 OFFCURVE",
"443 216 CURVE SMOOTH",
"443 332 OFFCURVE",
"372 381 OFFCURVE",
"319 401 CURVE",
"319 409 LINE",
"431 525 LINE",
"431 700 LINE",
"27 700 LINE",
"27 513 LINE",
"208.99 513 LINE",
"208.99 503 LINE",
"119 411 LINE",
"119 298 LINE",
"165 298 LINE"
);
}
);
width = 458.33333;
}
);
unicode = 0033;
},
{
glyphname = four;
lastChange = "2022-09-03 19:03:39 +0000";
layers = (
{
hints = (
{
origin = "{0, 10}";
target = "{0, 0}";
type = Stem;
},
{
horizontal = 1;
origin = "{0, 5}";
target = "{0, 6}";
type = Stem;
}
);
layerId = "29C4A576-5D06-4D79-A0A1-2A812E5B89FB";
paths = (
{
closed = 1;
nodes = (
"450 0 LINE",
"450 700 LINE",
"282 700 LINE",
"15 296 LINE",
"15 144 LINE",
"517 144 LINE",
"517 280 LINE",
"166 280 LINE",
"166 292 LINE",
"292 484 LINE",
"292 0 LINE"
);
}
);
width = 535;
},
{
layerId = "AAC1BB4D-C727-4C18-8F18-05769E5A021D";
paths = (
{
closed = 1;
nodes = (
"425 0 LINE",
"425 700 LINE",
"346 700 LINE",
"30 248 LINE",
"30 196 LINE",
"512 196 LINE",
"512 244 LINE",
"97 244 LINE",
"97 256 LINE",
"372 650 LINE",
"372 0 LINE"
);
}
);
width = 542;
},
{
hints = (
{
origin = "{0, 10}";
target = "{0, 0}";
type = Stem;
},
{
horizontal = 1;
origin = "{0, 5}";
target = "{0, 6}";
type = Stem;
}
);
layerId = "58CA432C-E1D8-4E0E-9662-6D1D9C8D1884";
paths = (
{
closed = 1;
nodes = (
"458 0 LINE",
"458 700 LINE",
"262 700 LINE",
"10 311 LINE",
"10 128 LINE",
"519 128 LINE",
"519 291 LINE",
"187 291 LINE",
"187 303 LINE",
"268 433 LINE",
"268 0 LINE"
);
}
);
width = 532.86667;
}
);
unicode = 0034;
},
{
glyphname = five;
lastChange = "2022-09-03 19:03:39 +0000";
layers = (
{
hints = (
{
origin = "{0, 3}";
target = "{0, 0}";
type = Stem;
},
{
horizontal = 1;
origin = "{0, 2}";
target = "{0, 1}";
type = Stem;
},
{
horizontal = 1;
origin = "{0, 5}";
target = "{0, 27}";
type = Stem;
}
);
layerId = "29C4A576-5D06-4D79-A0A1-2A812E5B89FB";
paths = (
{
closed = 1;
nodes = (
"196 558 LINE",
"428 558 LINE",
"428 700 LINE",
"38 700 LINE",
"38 380 LINE",
"38 313 LINE",
"170 313 LINE",
"248 313 OFFCURVE",
"301 283 OFFCURVE",
"301 222 CURVE SMOOTH",
"301 163 OFFCURVE",
"265 135 OFFCURVE",
"215 135 CURVE SMOOTH",
"133 135 OFFCURVE",
"65 191 OFFCURVE",
"48 210 CURVE",
"38 210 LINE",
"38 55 LINE",
"69 27 OFFCURVE",
"129 -11 OFFCURVE",
"241 -11 CURVE SMOOTH",
"376 -11 OFFCURVE",
"467 74 OFFCURVE",
"467 234 CURVE SMOOTH",
"467 370 OFFCURVE",
"364 455 OFFCURVE",
"244 455 CURVE",
"196 455 LINE"
);
}
);
width = 492;
},
{
layerId = "AAC1BB4D-C727-4C18-8F18-05769E5A021D";
paths = (
{
closed = 1;
nodes = (
"108 650 LINE",
"445 650 LINE",
"445 700 LINE",
"55 700 LINE",
"55 393 LINE",
"55 369 LINE",
"229 369 LINE SMOOTH",
"374 369 OFFCURVE",
"430 297 OFFCURVE",
"430 203 CURVE SMOOTH",
"430 109 OFFCURVE",
"367 37 OFFCURVE",
"252 37 CURVE SMOOTH",
"155 37 OFFCURVE",
"82 89 OFFCURVE",
"65 109 CURVE",
"55 109 LINE",
"55 55 LINE",
"86 27 OFFCURVE",
"149 -11 OFFCURVE",
"257 -11 CURVE SMOOTH",
"393 -11 OFFCURVE",
"484 73 OFFCURVE",
"484 203 CURVE SMOOTH",
"484 331 OFFCURVE",
"406 417 OFFCURVE",
"231 417 CURVE SMOOTH",
"108 417 LINE"
);
}
);
width = 534;
},
{
hints = (
{
origin = "{0, 3}";
target = "{0, 0}";
type = Stem;
},
{
horizontal = 1;
origin = "{0, 2}";
target = "{0, 1}";
type = Stem;
},
{
horizontal = 1;
origin = "{0, 5}";
target = "{0, 27}";
type = Stem;
}
);
layerId = "58CA432C-E1D8-4E0E-9662-6D1D9C8D1884";
paths = (
{
closed = 1;
nodes = (
"223 530 LINE",
"423 530 LINE",
"423 700 LINE",
"33 700 LINE",
"33 376 LINE",
"33 296 LINE",
"152 296 LINE SMOOTH",
"210 296 OFFCURVE",
"262 279 OFFCURVE",
"262 228 CURVE SMOOTH",
"262 179 OFFCURVE",
"234 165 OFFCURVE",
"204 165 CURVE SMOOTH",
"126 165 OFFCURVE",
"60 222 OFFCURVE",
"43 241 CURVE",
"33 241 LINE",
"33 55 LINE",
"64 27 OFFCURVE",
"123 -11 OFFCURVE",
"236 -11 CURVE SMOOTH",
"371 -11 OFFCURVE",
"462 74 OFFCURVE",
"462 243 CURVE SMOOTH",
"462 382 OFFCURVE",
"351 467 OFFCURVE",
"248 467 CURVE SMOOTH",
"223 467 LINE"
);
}
);
width = 479.2;
}
);
unicode = 0035;
},
{
glyphname = six;
lastChange = "2022-09-04 16:38:10 +0000";
layers = (
{
hints = (
{
place = "{227, 170}";
type = Stem;
},
{
place = "{20, 162}";
type = Stem;
}
);
layerId = "29C4A576-5D06-4D79-A0A1-2A812E5B89FB";
paths = (
{
closed = 1;
nodes = (
"20 347 OFFCURVE",
"54 442 OFFCURVE",
"107 537 CURVE SMOOTH",
"141 598 OFFCURVE",
"191 673 OFFCURVE",
"227 712 CURVE",
"397 712 LINE",
"397 700 LINE",
"343 632 OFFCURVE",
"252 503 OFFCURVE",
"234 462 CURVE",
"234 451 LINE",
"248 458 OFFCURVE",
"267 468 OFFCURVE",
"319 468 CURVE SMOOTH",
"424 468 OFFCURVE",
"514 384 OFFCURVE",
"514 249 CURVE SMOOTH",
"514 84 OFFCURVE",
"403 0 OFFCURVE",
"267 0 CURVE SMOOTH",
"131 0 OFFCURVE",
"20 84 OFFCURVE",
"20 249 CURVE SMOOTH"
);
},
{
closed = 1;
nodes = (
"182 206 OFFCURVE",
"211 162 OFFCURVE",
"267 162 CURVE SMOOTH",
"322 162 OFFCURVE",
"352 199 OFFCURVE",
"352 255 CURVE SMOOTH",
"352 305 OFFCURVE",
"322 348 OFFCURVE",
"267 348 CURVE SMOOTH",
"211 348 OFFCURVE",
"182 298 OFFCURVE",
"182 255 CURVE SMOOTH"
);
}
);
width = 528;
},
{
layerId = "AAC1BB4D-C727-4C18-8F18-05769E5A021D";
paths = (
{
closed = 1;
nodes = (
"40 370 OFFCURVE",
"89 470 OFFCURVE",
"137 557 CURVE SMOOTH",
"171 618 OFFCURVE",
"212 673 OFFCURVE",
"248 712 CURVE",
"301 712 LINE",
"301 700 LINE",
"249 649 OFFCURVE",
"172 530 OFFCURVE",
"134 438 CURVE",
"139 433 LINE",
"187 473 OFFCURVE",
"233 489 OFFCURVE",
"292 489 CURVE SMOOTH",
"407 489 OFFCURVE",
"524 399 OFFCURVE",
"524 245 CURVE SMOOTH",
"524 86 OFFCURVE",
"408 0 OFFCURVE",
"283 0 CURVE SMOOTH",
"149 0 OFFCURVE",
"40 85 OFFCURVE",
"40 247 CURVE SMOOTH"
);
},
{
closed = 1;
nodes = (
"94 134 OFFCURVE",
"162 48 OFFCURVE",
"283 48 CURVE SMOOTH",
"394 48 OFFCURVE",
"470 136 OFFCURVE",
"470 245 CURVE SMOOTH",
"470 354 OFFCURVE",
"396 440 OFFCURVE",
"286 440 CURVE SMOOTH",
"162 440 OFFCURVE",
"94 352 OFFCURVE",
"94 245 CURVE SMOOTH"
);
}
);
width = 552;
},
{
hints = (
{
place = "{296, 222}";
type = Stem;
},
{
place = "{26, 211}";
type = Stem;
}
);
layerId = "58CA432C-E1D8-4E0E-9662-6D1D9C8D1884";
paths = (
{
closed = 1;
nodes = (
"14 340 OFFCURVE",
"43 433 OFFCURVE",
"98 531 CURVE SMOOTH",
"132 592 OFFCURVE",
"185 673 OFFCURVE",
"221 712 CURVE",
"426 712 LINE",
"426 700 LINE",
"372 627 OFFCURVE",
"276 495 OFFCURVE",
"264 469 CURVE",
"263 456 LINE",
"267 453 OFFCURVE",
"277 462 OFFCURVE",
"327 462 CURVE SMOOTH",
"429 462 OFFCURVE",
"511 379 OFFCURVE",
"511 250 CURVE SMOOTH",
"511 83 OFFCURVE",
"401 0 OFFCURVE",
"262 0 CURVE SMOOTH",
"126 0 OFFCURVE",
"14 84 OFFCURVE",
"14 250 CURVE SMOOTH"
);
},
{
closed = 1;
nodes = (
"209 228 OFFCURVE",
"226 197 OFFCURVE",
"262 197 CURVE SMOOTH",
"300 197 OFFCURVE",
"316 218 OFFCURVE",
"316 258 CURVE SMOOTH",
"316 290 OFFCURVE",
"299 320 OFFCURVE",
"261 320 CURVE SMOOTH",
"226 320 OFFCURVE",
"209 282 OFFCURVE",
"209 258 CURVE SMOOTH"
);
}
);
width = 520.68571;
}
);
unicode = 0036;
},
{
glyphname = seven;
lastChange = "2022-09-04 16:36:39 +0000";
layers = (
{
guideLines = (
{
position = "{-65, 0}";
}
);
hints = (
{
origin = "{0, 5}";
target = "{0, 6}";
type = Stem;
},
{
horizontal = 1;
origin = "{0, 1}";
target = "{0, 2}";
type = Stem;
}
);
layerId = "29C4A576-5D06-4D79-A0A1-2A812E5B89FB";
paths = (
{
closed = 1;
nodes = (
"427 700 LINE",
"5 700 LINE",
"5 548 LINE",
"258 548 LINE",
"258 538 LINE",
"65 0 LINE",
"240 0 LINE",
"427 539 LINE"
);
}
);
width = 442;
},
{
layerId = "AAC1BB4D-C727-4C18-8F18-05769E5A021D";
paths = (
{
closed = 1;
nodes = (
"445 700 LINE",
"28 700 LINE",
"28 650 LINE",
"392 650 LINE",
"392 640 LINE",
"124 0 LINE",
"178 0 LINE",
"445 641 LINE"
);
}
);
width = 460;
},
{
hints = (
{
origin = "{0, 5}";
target = "{0, 6}";
type = Stem;
},
{
horizontal = 1;
origin = "{0, 1}";
target = "{0, 2}";
type = Stem;
}
);
layerId = "58CA432C-E1D8-4E0E-9662-6D1D9C8D1884";
paths = (
{
closed = 1;
nodes = (
"422 700 LINE",
"-2.01 700 LINE",
"-2 517 LINE",
"217 517 LINE",
"217 507 LINE",
"47 0 LINE",
"259 0 LINE",
"422 508 LINE"
);
}
);
width = 436.51429;
}
);
rightKerningGroup = Y;
unicode = 0037;
},
{
glyphname = eight;
lastChange = "2022-09-04 15:29:45 +0000";
layers = (
{
guideLines = (
{
position = "{492, 686}";
}
);
hints = (
{
horizontal = 1;
origin = "{1, 11}";
target = "{2, 11}";
type = Stem;
}
);
layerId = "29C4A576-5D06-4D79-A0A1-2A812E5B89FB";
paths = (
{
closed = 1;
nodes = (
"431 -12 OFFCURVE",
"531 83 OFFCURVE",
"531 204 CURVE SMOOTH",
"531 316 OFFCURVE",
"447 375 OFFCURVE",
"405 386 CURVE",
"405 394 LINE",
"443 408 OFFCURVE",
"502 449 OFFCURVE",
"502 538 CURVE SMOOTH",
"502 636 OFFCURVE",
"419 712 OFFCURVE",
"273 712 CURVE SMOOTH",
"127 712 OFFCURVE",
"44 636 OFFCURVE",
"44 538 CURVE SMOOTH",
"44 449 OFFCURVE",
"103 408 OFFCURVE",
"141 394 CURVE",
"141 386 LINE",
"99 375 OFFCURVE",
"15 316 OFFCURVE",
"15 204 CURVE SMOOTH",
"15 83 OFFCURVE",
"115 -12 OFFCURVE",
"273 -12 CURVE SMOOTH"
);
},
{
closed = 1;
nodes = (
"321 290 OFFCURVE",
"365 262 OFFCURVE",
"365 214 CURVE SMOOTH",
"365 165 OFFCURVE",
"321 135 OFFCURVE",
"272 135 CURVE SMOOTH",
"220 135 OFFCURVE",
"181 165 OFFCURVE",
"181 214 CURVE SMOOTH",
"181 262 OFFCURVE",
"220 290 OFFCURVE",
"272 290 CURVE SMOOTH"
);
},
{
closed = 1;
nodes = (
"228 433 OFFCURVE",
"196 463 OFFCURVE",
"196 504 CURVE SMOOTH",
"196 550 OFFCURVE",
"228 577 OFFCURVE",
"273 577 CURVE SMOOTH",
"318 577 OFFCURVE",
"350 550 OFFCURVE",
"350 504 CURVE SMOOTH",
"350 463 OFFCURVE",
"318 433 OFFCURVE",
"273 433 CURVE SMOOTH"
);
}
);
width = 546;
},
{
layerId = "AAC1BB4D-C727-4C18-8F18-05769E5A021D";
paths = (
{
closed = 1;
nodes = (
"446 -12 OFFCURVE",
"556 65 OFFCURVE",
"556 199 CURVE SMOOTH",
"556 310 OFFCURVE",
"460 369 OFFCURVE",
"418 380 CURVE",
"418 388 LINE",
"456 402 OFFCURVE",
"525 438 OFFCURVE",
"525 537 CURVE SMOOTH",
"525 637 OFFCURVE",
"440 712 OFFCURVE",
"298 712 CURVE SMOOTH",
"156 712 OFFCURVE",
"71 637 OFFCURVE",
"71 537 CURVE SMOOTH",
"71 438 OFFCURVE",
"140 402 OFFCURVE",
"178 388 CURVE",
"178 380 LINE",
"136 369 OFFCURVE",
"40 310 OFFCURVE",
"40 199 CURVE SMOOTH",
"40 65 OFFCURVE",
"150 -12 OFFCURVE",
"298 -12 CURVE SMOOTH"
);
},
{
closed = 1;
nodes = (
"411 354 OFFCURVE",
"502 293 OFFCURVE",
"502 199 CURVE SMOOTH",
"502 94 OFFCURVE",
"408 36 OFFCURVE",
"298 36 CURVE SMOOTH",
"188 36 OFFCURVE",
"94 94 OFFCURVE",
"94 199 CURVE SMOOTH",
"94 293 OFFCURVE",
"178 354 OFFCURVE",
"298 354 CURVE SMOOTH"
);
},
{
closed = 1;
nodes = (
"190 408 OFFCURVE",
"123 453 OFFCURVE",
"123 536 CURVE SMOOTH",
"123 616 OFFCURVE",
"198 664 OFFCURVE",
"298 664 CURVE SMOOTH",
"398 664 OFFCURVE",
"473 616 OFFCURVE",
"473 536 CURVE SMOOTH",
"473 453 OFFCURVE",
"406 408 OFFCURVE",
"298 408 CURVE SMOOTH"
);
}
);
width = 596;
},
{
hints = (
{
horizontal = 1;
origin = "{1, 11}";
target = "{2, 11}";
type = Stem;
}
);
layerId = "58CA432C-E1D8-4E0E-9662-6D1D9C8D1884";
paths = (
{
closed = 1;
nodes = (
"426 -12 OFFCURVE",
"523 88 OFFCURVE",
"523 206 CURVE SMOOTH",
"523 318 OFFCURVE",
"443 377 OFFCURVE",
"401 388 CURVE",
"401 396 LINE",
"439 410 OFFCURVE",
"495 452 OFFCURVE",
"495 538 CURVE SMOOTH",
"495 636 OFFCURVE",
"413 712 OFFCURVE",
"265 712 CURVE SMOOTH",
"118 712 OFFCURVE",
"36 636 OFFCURVE",
"36 538 CURVE SMOOTH",
"36 452 OFFCURVE",
"92 410 OFFCURVE",
"130 396 CURVE",
"130 388 LINE",
"88 377 OFFCURVE",
"7 318 OFFCURVE",
"7 206 CURVE SMOOTH",
"7 88 OFFCURVE",
"104 -12 OFFCURVE",
"265 -12 CURVE SMOOTH"
);
},
{
closed = 1;
nodes = (
"294 270 OFFCURVE",
"323 253 OFFCURVE",
"323 219 CURVE SMOOTH",
"323 187 OFFCURVE",
"294 165 OFFCURVE",
"264 165 CURVE SMOOTH",
"230 165 OFFCURVE",
"208 187 OFFCURVE",
"208 219 CURVE SMOOTH",
"208 253 OFFCURVE",
"233 270 OFFCURVE",
"264 270 CURVE SMOOTH"
);
},
{
closed = 1;
nodes = (
"240 441 OFFCURVE",
"218 466 OFFCURVE",
"218 494 CURVE SMOOTH",
"218 530 OFFCURVE",
"237 550 OFFCURVE",
"265 550 CURVE SMOOTH",
"294 550 OFFCURVE",
"313 530 OFFCURVE",
"313 494 CURVE SMOOTH",
"313 466 OFFCURVE",
"291 441 OFFCURVE",
"265 441 CURVE SMOOTH"
);
}
);
width = 530.7619;
}
);
unicode = 0038;
},
{
glyphname = nine;
lastChange = "2022-09-04 16:38:05 +0000";
layers = (
{
guideLines = (
{
position = "{463, 686}";
}
);
layerId = "29C4A576-5D06-4D79-A0A1-2A812E5B89FB";
paths = (
{
closed = 1;
nodes = (
"508 365 OFFCURVE",
"474 270 OFFCURVE",
"421 175 CURVE SMOOTH",
"387 114 OFFCURVE",
"337 39 OFFCURVE",
"301 0 CURVE",
"131 0 LINE",
"131 12 LINE",
"185 80 OFFCURVE",
"276 209 OFFCURVE",
"294 250 CURVE",
"294 261 LINE",
"280 254 OFFCURVE",
"261 244 OFFCURVE",
"209 244 CURVE SMOOTH",
"104 244 OFFCURVE",
"14 328 OFFCURVE",
"14 463 CURVE SMOOTH",
"14 628 OFFCURVE",
"125 712 OFFCURVE",
"261 712 CURVE SMOOTH",
"397 712 OFFCURVE",
"508 628 OFFCURVE",
"508 463 CURVE SMOOTH"
);
},
{
closed = 1;
nodes = (
"346 506 OFFCURVE",
"317 550 OFFCURVE",
"261 550 CURVE SMOOTH",
"206 550 OFFCURVE",
"176 513 OFFCURVE",
"176 457 CURVE SMOOTH",
"176 407 OFFCURVE",
"206 364 OFFCURVE",
"261 364 CURVE SMOOTH",
"317 364 OFFCURVE",
"346 414 OFFCURVE",
"346 457 CURVE SMOOTH"
);
}
);
width = 528;
},
{
layerId = "AAC1BB4D-C727-4C18-8F18-05769E5A021D";
paths = (
{
closed = 1;
nodes = (
"512 345 OFFCURVE",
"463 242 OFFCURVE",
"415 155 CURVE SMOOTH",
"381 94 OFFCURVE",
"340 39 OFFCURVE",
"304 0 CURVE",
"251 0 LINE",
"251 12 LINE",
"303 63 OFFCURVE",
"381 182 OFFCURVE",
"417 274 CURVE",
"412 279 LINE",
"364 239 OFFCURVE",
"319 223 OFFCURVE",
"260 223 CURVE SMOOTH",
"145 223 OFFCURVE",
"28 313 OFFCURVE",
"28 467 CURVE SMOOTH",
"28 626 OFFCURVE",
"144 712 OFFCURVE",
"269 712 CURVE SMOOTH",
"403 712 OFFCURVE",
"512 627 OFFCURVE",
"512 467 CURVE SMOOTH"
);
},
{
closed = 1;
nodes = (
"458 578 OFFCURVE",
"390 664 OFFCURVE",
"269 664 CURVE SMOOTH",
"158 664 OFFCURVE",
"82 576 OFFCURVE",
"82 467 CURVE SMOOTH",
"82 358 OFFCURVE",
"156 272 OFFCURVE",
"266 272 CURVE SMOOTH",
"390 272 OFFCURVE",
"458 360 OFFCURVE",
"458 467 CURVE SMOOTH"
);
}
);
width = 552;
},
{
layerId = "58CA432C-E1D8-4E0E-9662-6D1D9C8D1884";
paths = (
{
closed = 1;
nodes = (
"507 371 OFFCURVE",
"477 279 OFFCURVE",
"423 181 CURVE SMOOTH",
"389 120 OFFCURVE",
"336 39 OFFCURVE",
"300 0 CURVE",
"94 0 LINE",
"94 12 LINE",
"149 85 OFFCURVE",
"244 217 OFFCURVE",
"257 243 CURVE",
"258 256 LINE",
"254 259 OFFCURVE",
"243 250 OFFCURVE",
"193 250 CURVE SMOOTH",
"92 250 OFFCURVE",
"10 333 OFFCURVE",
"10 462 CURVE SMOOTH",
"10 629 OFFCURVE",
"119 712 OFFCURVE",
"259 712 CURVE SMOOTH",
"395 712 OFFCURVE",
"507 628 OFFCURVE",
"507 462 CURVE SMOOTH"
);
},
{
closed = 1;
nodes = (
"312 484 OFFCURVE",
"295 515 OFFCURVE",
"259 515 CURVE SMOOTH",
"221 515 OFFCURVE",
"205 494 OFFCURVE",
"205 454 CURVE SMOOTH",
"205 422 OFFCURVE",
"221 392 OFFCURVE",
"259 392 CURVE SMOOTH",
"295 392 OFFCURVE",
"312 430 OFFCURVE",
"312 454 CURVE SMOOTH"
);
}
);
width = 520.68571;
}
);
unicode = 0039;
},
{
glyphname = fraction;
lastChange = "2022-09-03 19:03:39 +0000";
layers = (
{
layerId = "29C4A576-5D06-4D79-A0A1-2A812E5B89FB";
paths = (
{
closed = 1;
nodes = (
"-45 12 LINE",
"-45 0 LINE",
"-17 0 LINE",
"418 688 LINE",
"418 700 LINE",
"390 700 LINE"
);
}
);
width = 338;
},
{
layerId = "AAC1BB4D-C727-4C18-8F18-05769E5A021D";
paths = (
{
closed = 1;
nodes = (
"-40 12 LINE",
"-40 0 LINE",
"-27 0 LINE",
"408 688 LINE",
"408 700 LINE",
"395 700 LINE"
);
}
);
width = 328;
},
{
layerId = "58CA432C-E1D8-4E0E-9662-6D1D9C8D1884";
paths = (
{
closed = 1;
nodes = (
"-47 12 LINE",
"-47 0 LINE",
"-14 0 LINE",
"421 688 LINE",
"421 700 LINE",
"388 700 LINE"
);
}
);
width = 341.04762;
}
);
unicode = 2044;
},
{
glyphname = period;
lastChange = "2022-09-04 16:31:49 +0000";
layers = (
{
layerId = "29C4A576-5D06-4D79-A0A1-2A812E5B89FB";
paths = (
{
closed = 1;
nodes = (
"200 78 CURVE SMOOTH",
"200 125 OFFCURVE",
"162 168 OFFCURVE",
"110 168 CURVE SMOOTH",
"58 168 OFFCURVE",
"20 125 OFFCURVE",
"20 78 CURVE SMOOTH",
"20 26 OFFCURVE",
"58 -12 OFFCURVE",
"110 -12 CURVE SMOOTH",
"162 -12 OFFCURVE",
"200 26 OFFCURVE"
);
}
);
width = 220;
},
{
layerId = "AAC1BB4D-C727-4C18-8F18-05769E5A021D";
paths = (
{
closed = 1;
nodes = (
"127 30 CURVE SMOOTH",
"127 51 OFFCURVE",
"109 71 OFFCURVE",
"85 71 CURVE SMOOTH",
"61 71 OFFCURVE",
"43 51 OFFCURVE",
"43 30 CURVE SMOOTH",
"43 6 OFFCURVE",
"61 -12 OFFCURVE",
"85 -12 CURVE SMOOTH",
"109 -12 OFFCURVE",
"127 6 OFFCURVE"
);
}
);
width = 170;
},
{
layerId = "58CA432C-E1D8-4E0E-9662-6D1D9C8D1884";
paths = (
{
closed = 1;
nodes = (
"222 93 CURVE SMOOTH",
"222 148 OFFCURVE",
"178 198 OFFCURVE",
"118 198 CURVE SMOOTH",
"57 198 OFFCURVE",
"13 148 OFFCURVE",
"13 93 CURVE SMOOTH",
"13 32 OFFCURVE",
"57 -12 OFFCURVE",
"118 -12 CURVE SMOOTH",
"178 -12 OFFCURVE",
"222 32 OFFCURVE"
);
}
);
width = 235.2381;
}
);
unicode = 002E;
},
{
glyphname = comma;
lastChange = "2022-09-04 16:37:36 +0000";
layers = (
{
layerId = "29C4A576-5D06-4D79-A0A1-2A812E5B89FB";
paths = (
{
closed = 1;
nodes = (
"208 146 LINE",
"208 158 LINE",
"64 158 LINE",
"15 -73 LINE",
"110 -73 LINE"
);
}
);
width = 218;
},
{
layerId = "AAC1BB4D-C727-4C18-8F18-05769E5A021D";
paths = (
{
closed = 1;
nodes = (
"132 61 LINE",
"132 69 LINE",
"69 69 LINE",
"35 -64 LINE",
"72 -64 LINE"
);
}
);
width = 172;
},
{
layerId = "58CA432C-E1D8-4E0E-9662-6D1D9C8D1884";
paths = (
{
closed = 1;
nodes = (
"237 172 LINE",
"237 185 LINE",
"68 185 LINE",
"12 -76 LINE",
"125 -76 LINE"
);
}
);
width = 242;
}
);
leftKerningGroup = qbl;
rightKerningGroup = qbl;
unicode = 002C;
},
{
glyphname = colon;
lastChange = "2022-09-04 15:47:36 +0000";
layers = (
{
layerId = "29C4A576-5D06-4D79-A0A1-2A812E5B89FB";
paths = (
{
closed = 1;
nodes = (
"159 -4 OFFCURVE",
"196 36 OFFCURVE",
"196 86 CURVE SMOOTH",
"196 136 OFFCURVE",
"159 177 OFFCURVE",
"106 177 CURVE SMOOTH",
"52 177 OFFCURVE",
"16 136 OFFCURVE",
"16 86 CURVE SMOOTH",
"16 36 OFFCURVE",
"52 -4 OFFCURVE",
"106 -4 CURVE SMOOTH"
);
},
{
closed = 1;
nodes = (
"159 323 OFFCURVE",
"196 363 OFFCURVE",
"196 413 CURVE SMOOTH",
"196 463 OFFCURVE",
"159 504 OFFCURVE",
"106 504 CURVE SMOOTH",
"52 504 OFFCURVE",
"16 463 OFFCURVE",
"16 413 CURVE SMOOTH",
"16 363 OFFCURVE",
"52 323 OFFCURVE",
"106 323 CURVE SMOOTH"
);
}
);
width = 212;
},
{
layerId = "AAC1BB4D-C727-4C18-8F18-05769E5A021D";
paths = (
{
closed = 1;
nodes = (
"108 -12 OFFCURVE",
"125 5 OFFCURVE",
"125 28 CURVE SMOOTH",
"125 49 OFFCURVE",
"108 68 OFFCURVE",
"85 68 CURVE SMOOTH",
"62 68 OFFCURVE",
"45 49 OFFCURVE",
"45 28 CURVE SMOOTH",
"45 5 OFFCURVE",
"62 -12 OFFCURVE",
"85 -12 CURVE SMOOTH"
);
},
{
closed = 1;
nodes = (
"108 325 OFFCURVE",
"125 342 OFFCURVE",
"125 365 CURVE SMOOTH",
"125 386 OFFCURVE",
"108 405 OFFCURVE",
"85 405 CURVE SMOOTH",
"62 405 OFFCURVE",
"45 386 OFFCURVE",
"45 365 CURVE SMOOTH",
"45 342 OFFCURVE",
"62 325 OFFCURVE",
"85 325 CURVE SMOOTH"
);
}
);
width = 170;
},
{
layerId = "58CA432C-E1D8-4E0E-9662-6D1D9C8D1884";
paths = (
{
closed = 1;
nodes = (
"175 -2 OFFCURVE",
"218 45 OFFCURVE",
"218 104 CURVE SMOOTH",
"218 163 OFFCURVE",
"175 210 OFFCURVE",
"112 210 CURVE SMOOTH",
"49 210 OFFCURVE",
"7 163 OFFCURVE",
"7 104 CURVE SMOOTH",
"7 45 OFFCURVE",
"49 -2 OFFCURVE",
"112 -2 CURVE SMOOTH"
);
},
{
closed = 1;
nodes = (
"175 322 OFFCURVE",
"218 369 OFFCURVE",
"218 428 CURVE SMOOTH",
"218 486 OFFCURVE",
"175 534 OFFCURVE",
"112 534 CURVE SMOOTH",
"49 534 OFFCURVE",
"7 486 OFFCURVE",
"7 428 CURVE SMOOTH",
"7 369 OFFCURVE",
"49 322 OFFCURVE",
"112 322 CURVE SMOOTH"
);
}
);
width = 224.8;
}
);
unicode = 003A;
},
{
glyphname = semicolon;
lastChange = "2022-09-04 16:35:27 +0000";
layers = (
{
components = (
{
name = comma;
transform = "{1, 0, 0, 1, -5, 0}";
}
);
layerId = "29C4A576-5D06-4D79-A0A1-2A812E5B89FB";
paths = (
{
closed = 1;
nodes = (
"181 323 OFFCURVE",
"218 363 OFFCURVE",
"218 413 CURVE SMOOTH",
"218 463 OFFCURVE",
"181 504 OFFCURVE",
"128 504 CURVE SMOOTH",
"74 504 OFFCURVE",
"38 463 OFFCURVE",
"38 413 CURVE SMOOTH",
"38 363 OFFCURVE",
"74 323 OFFCURVE",
"128 323 CURVE SMOOTH"
);
}
);
width = 233;
},
{
components = (
{
name = comma;
transform = "{1, 0, 0, 1, -15, 0}";
}
);
layerId = "AAC1BB4D-C727-4C18-8F18-05769E5A021D";
paths = (
{
closed = 1;
nodes = (
"112 325 OFFCURVE",
"129 342 OFFCURVE",
"129 365 CURVE SMOOTH",
"129 386 OFFCURVE",
"112 405 OFFCURVE",
"89 405 CURVE SMOOTH",
"66 405 OFFCURVE",
"49 386 OFFCURVE",
"49 365 CURVE SMOOTH",
"49 342 OFFCURVE",
"66 325 OFFCURVE",
"89 325 CURVE SMOOTH"
);
}
);
width = 174;
},
{
components = (
{
alignment = -1;
name = comma;
transform = "{1, 0, 0, 1, -2, 0}";
}
);
layerId = "58CA432C-E1D8-4E0E-9662-6D1D9C8D1884";
paths = (
{
closed = 1;
nodes = (
"202 322 OFFCURVE",
"245 369 OFFCURVE",
"245 428 CURVE SMOOTH",
"245 486 OFFCURVE",
"202 534 OFFCURVE",
"140 534 CURVE SMOOTH",
"76 534 OFFCURVE",
"35 486 OFFCURVE",
"35 428 CURVE SMOOTH",
"35 369 OFFCURVE",
"76 322 OFFCURVE",
"140 322 CURVE SMOOTH"
);
}
);
width = 250.98095;
}
);
unicode = 003B;
},
{
glyphname = ellipsis;
lastChange = "2022-09-04 15:46:20 +0000";
layers = (
{
layerId = "29C4A576-5D06-4D79-A0A1-2A812E5B89FB";
paths = (
{
closed = 1;
nodes = (
"153 -12 OFFCURVE",
"190 28 OFFCURVE",
"190 78 CURVE SMOOTH",
"190 128 OFFCURVE",
"153 169 OFFCURVE",
"100 169 CURVE SMOOTH",
"46 169 OFFCURVE",
"10 128 OFFCURVE",
"10 78 CURVE SMOOTH",
"10 28 OFFCURVE",
"46 -12 OFFCURVE",
"100 -12 CURVE SMOOTH"
);
},
{
closed = 1;
nodes = (
"383 -12 OFFCURVE",
"420 28 OFFCURVE",
"420 78 CURVE SMOOTH",
"420 128 OFFCURVE",
"383 169 OFFCURVE",
"330 169 CURVE SMOOTH",
"276 169 OFFCURVE",
"240 128 OFFCURVE",
"240 78 CURVE SMOOTH",
"240 28 OFFCURVE",
"276 -12 OFFCURVE",
"330 -12 CURVE SMOOTH"
);
},
{
closed = 1;
nodes = (
"612 -12 OFFCURVE",
"649 28 OFFCURVE",
"649 78 CURVE SMOOTH",
"649 128 OFFCURVE",
"612 169 OFFCURVE",
"559 169 CURVE SMOOTH",
"505 169 OFFCURVE",
"469 128 OFFCURVE",
"469 78 CURVE SMOOTH",
"469 28 OFFCURVE",
"505 -12 OFFCURVE",
"559 -12 CURVE SMOOTH"
);
}
);
width = 700;
},
{
layerId = "AAC1BB4D-C727-4C18-8F18-05769E5A021D";
paths = (
{
closed = 1;
nodes = (
"106 -12 OFFCURVE",
"123 5 OFFCURVE",
"123 28 CURVE SMOOTH",
"123 49 OFFCURVE",
"106 68 OFFCURVE",
"83 68 CURVE SMOOTH",
"60 68 OFFCURVE",
"43 49 OFFCURVE",
"43 28 CURVE SMOOTH",
"43 5 OFFCURVE",
"60 -12 OFFCURVE",
"83 -12 CURVE SMOOTH"
);
},
{
closed = 1;
nodes = (
"236 -12 OFFCURVE",
"253 5 OFFCURVE",
"253 28 CURVE SMOOTH",
"253 49 OFFCURVE",
"236 68 OFFCURVE",
"213 68 CURVE SMOOTH",
"190 68 OFFCURVE",
"173 49 OFFCURVE",
"173 28 CURVE SMOOTH",
"173 5 OFFCURVE",
"190 -12 OFFCURVE",
"213 -12 CURVE SMOOTH"
);
},
{
closed = 1;
nodes = (
"366 -12 OFFCURVE",
"383 5 OFFCURVE",
"383 28 CURVE SMOOTH",
"383 49 OFFCURVE",
"366 68 OFFCURVE",
"343 68 CURVE SMOOTH",
"320 68 OFFCURVE",
"303 49 OFFCURVE",
"303 28 CURVE SMOOTH",
"303 5 OFFCURVE",
"320 -12 OFFCURVE",
"343 -12 CURVE SMOOTH"
);
}
);
width = 426;
},
{
layerId = "58CA432C-E1D8-4E0E-9662-6D1D9C8D1884";
paths = (
{
closed = 1;
nodes = (
"180 -12 OFFCURVE",
"223 35 OFFCURVE",
"223 93 CURVE SMOOTH",
"223 152 OFFCURVE",
"180 200 OFFCURVE",
"118 200 CURVE SMOOTH",
"55 200 OFFCURVE",
"13 152 OFFCURVE",
"13 93 CURVE SMOOTH",
"13 35 OFFCURVE",
"55 -12 OFFCURVE",
"118 -12 CURVE SMOOTH"
);
},
{
closed = 1;
nodes = (
"441 -12 OFFCURVE",
"484 35 OFFCURVE",
"484 93 CURVE SMOOTH",
"484 152 OFFCURVE",
"441 200 OFFCURVE",
"379 200 CURVE SMOOTH",
"315 200 OFFCURVE",
"273 152 OFFCURVE",
"273 93 CURVE SMOOTH",
"273 35 OFFCURVE",
"315 -12 OFFCURVE",
"379 -12 CURVE SMOOTH"
);
},
{
closed = 1;
nodes = (
"700 -12 OFFCURVE",
"743 35 OFFCURVE",
"743 93 CURVE SMOOTH",
"743 152 OFFCURVE",
"700 200 OFFCURVE",
"638 200 CURVE SMOOTH",
"574 200 OFFCURVE",
"533 152 OFFCURVE",
"533 93 CURVE SMOOTH",
"533 35 OFFCURVE",
"574 -12 OFFCURVE",
"638 -12 CURVE SMOOTH"
);
}
);
width = 756;
}
);
unicode = 2026;
},
{
glyphname = exclam;
lastChange = "2022-09-03 19:03:39 +0000";
layers = (
{
guideLines = (
{
position = "{315, 206}";
}
);
layerId = "29C4A576-5D06-4D79-A0A1-2A812E5B89FB";
paths = (
{
closed = 1;
nodes = (
"183 -12 OFFCURVE",
"220 28 OFFCURVE",
"220 78 CURVE SMOOTH",
"220 128 OFFCURVE",
"183 169 OFFCURVE",
"130 169 CURVE SMOOTH",
"76 169 OFFCURVE",
"40 128 OFFCURVE",
"40 78 CURVE SMOOTH",
"40 28 OFFCURVE",
"76 -12 OFFCURVE",
"130 -12 CURVE SMOOTH"
);
},
{
closed = 1;
nodes = (
"220 700 LINE",
"42 700 LINE",
"67 206 LINE",
"195 206 LINE"
);
}
);
width = 260;
},
{
guideLines = (
{
position = "{160, 120}";
}
);
layerId = "AAC1BB4D-C727-4C18-8F18-05769E5A021D";
paths = (
{
closed = 1;
nodes = (
"125 -12 OFFCURVE",
"142 5 OFFCURVE",
"142 28 CURVE SMOOTH",
"142 49 OFFCURVE",
"125 68 OFFCURVE",
"102 68 CURVE SMOOTH",
"79 68 OFFCURVE",
"62 49 OFFCURVE",
"62 28 CURVE SMOOTH",
"62 5 OFFCURVE",
"79 -12 OFFCURVE",
"102 -12 CURVE SMOOTH"
);
},
{
closed = 1;
nodes = (
"131 700 LINE",
"74 700 LINE",
"84 120 LINE",
"120 120 LINE"
);
}
);
width = 204;
},
{
layerId = "58CA432C-E1D8-4E0E-9662-6D1D9C8D1884";
paths = (
{
closed = 1;
nodes = (
"201 -12 OFFCURVE",
"244 35 OFFCURVE",
"244 93 CURVE SMOOTH",
"244 152 OFFCURVE",
"201 200 OFFCURVE",
"139 200 CURVE SMOOTH",
"75 200 OFFCURVE",
"33 152 OFFCURVE",
"33 93 CURVE SMOOTH",
"33 35 OFFCURVE",
"75 -12 OFFCURVE",
"139 -12 CURVE SMOOTH"
);
},
{
closed = 1;
nodes = (
"247 700 LINE",
"32 700 LINE",
"62 232 LINE",
"218 232 LINE"
);
}
);
width = 277.06667;
}
);
leftKerningGroup = U;
rightKerningGroup = U;
unicode = 0021;
},
{
glyphname = exclamdown;
lastChange = "2022-09-03 19:03:39 +0000";
layers = (
{
layerId = "29C4A576-5D06-4D79-A0A1-2A812E5B89FB";
paths = (
{
closed = 1;
nodes = (
"74 532 OFFCURVE",
"38 492 OFFCURVE",
"38 442 CURVE SMOOTH",
"38 392 OFFCURVE",
"74 351 OFFCURVE",
"128 351 CURVE SMOOTH",
"181 351 OFFCURVE",
"218 392 OFFCURVE",
"218 442 CURVE SMOOTH",
"218 492 OFFCURVE",
"181 532 OFFCURVE",
"128 532 CURVE SMOOTH"
);
},
{
closed = 1;
nodes = (
"193 314 LINE",
"65 314 LINE",
"40 -180 LINE",
"218 -180 LINE"
);
}
);
width = 256;
},
{
layerId = "AAC1BB4D-C727-4C18-8F18-05769E5A021D";
paths = (
{
closed = 1;
nodes = (
"77 532 OFFCURVE",
"60 515 OFFCURVE",
"60 492 CURVE SMOOTH",
"60 471 OFFCURVE",
"77 452 OFFCURVE",
"100 452 CURVE SMOOTH",
"123 452 OFFCURVE",
"140 471 OFFCURVE",
"140 492 CURVE SMOOTH",
"140 515 OFFCURVE",
"123 532 OFFCURVE",
"100 532 CURVE SMOOTH"
);
},
{
closed = 1;
nodes = (
"118 400 LINE",
"82 400 LINE",
"72 -180 LINE",
"129 -180 LINE"
);
}
);
width = 200;
},
{
layerId = "58CA432C-E1D8-4E0E-9662-6D1D9C8D1884";
paths = (
{
closed = 1;
nodes = (
"73 532 OFFCURVE",
"31 485 OFFCURVE",
"31 427 CURVE SMOOTH",
"31 368 OFFCURVE",
"73 320 OFFCURVE",
"137 320 CURVE SMOOTH",
"199 320 OFFCURVE",
"242 368 OFFCURVE",
"242 427 CURVE SMOOTH",
"242 485 OFFCURVE",
"199 532 OFFCURVE",
"137 532 CURVE SMOOTH"
);
},
{
closed = 1;
nodes = (
"216 288 LINE",
"60 288 LINE",
"30 -180 LINE",
"245 -180 LINE"
);
}
);
width = 273.06667;
}
);
unicode = 00A1;
},
{
glyphname = question;
lastChange = "2022-11-02 05:20:19 +0000";
layers = (
{
guideLines = (
{
position = "{317, 206}";
}
);
hints = (
{
origin = "{0, 19}";
target = "{0, 5}";
type = Stem;
}
);
layerId = "29C4A576-5D06-4D79-A0A1-2A812E5B89FB";
paths = (
{
closed = 1;
nodes = (
"272 275 OFFCURVE",
"278 306 OFFCURVE",
"314 341 CURVE SMOOTH",
"356 381 OFFCURVE",
"413 440 OFFCURVE",
"413 525 CURVE SMOOTH",
"413 653 OFFCURVE",
"319 711 OFFCURVE",
"203 711 CURVE SMOOTH",
"118 711 OFFCURVE",
"53 673 OFFCURVE",
"22 645 CURVE",
"22 490 LINE",
"32 490 LINE",
"49 509 OFFCURVE",
"125 565 OFFCURVE",
"193 565 CURVE SMOOTH",
"231 565 OFFCURVE",
"249 543 OFFCURVE",
"249 516 CURVE SMOOTH",
"249 490 OFFCURVE",
"234 467 OFFCURVE",
"202 441 CURVE SMOOTH",
"180 423 LINE SMOOTH",
"136 386 OFFCURVE",
"114 338 OFFCURVE",
"114 263 CURVE SMOOTH",
"114 206 LINE",
"272 206 LINE",
"272 235 LINE"
);
},
{
closed = 1;
nodes = (
"248 -12 OFFCURVE",
"285 28 OFFCURVE",
"285 78 CURVE SMOOTH",
"285 128 OFFCURVE",
"248 169 OFFCURVE",
"195 169 CURVE SMOOTH",
"141 169 OFFCURVE",
"105 128 OFFCURVE",
"105 78 CURVE SMOOTH",
"105 28 OFFCURVE",
"141 -12 OFFCURVE",
"195 -12 CURVE SMOOTH"
);
}
);
width = 437;
},
{
guideLines = (
{
position = "{105, 120}";
}
);
hints = (
{
origin = "{0, 19}";
target = "{0, 5}";
type = Stem;
}
);
layerId = "AAC1BB4D-C727-4C18-8F18-05769E5A021D";
paths = (
{
closed = 1;
nodes = (
"251 245 OFFCURVE",
"246 317 OFFCURVE",
"316 358 CURVE SMOOTH",
"381 397 OFFCURVE",
"442 446 OFFCURVE",
"442 546 CURVE SMOOTH",
"442 658 OFFCURVE",
"356 711 OFFCURVE",
"241 711 CURVE SMOOTH",
"138 711 OFFCURVE",
"80 670 OFFCURVE",
"55 647 CURVE",
"55 593 LINE",
"65 593 LINE",
"87 619 OFFCURVE",
"162 662 OFFCURVE",
"248 662 CURVE SMOOTH",
"338 662 OFFCURVE",
"390 616 OFFCURVE",
"390 544 CURVE SMOOTH",
"390 478 OFFCURVE",
"348 441 OFFCURVE",
"296 406 CURVE SMOOTH",
"284 398 LINE SMOOTH",
"199 341 OFFCURVE",
"199 274 OFFCURVE",
"199 206 CURVE SMOOTH",
"199 120 LINE",
"251 120 LINE",
"251 196 LINE"
);
},
{
closed = 1;
nodes = (
"249 -12 OFFCURVE",
"266 5 OFFCURVE",
"266 28 CURVE SMOOTH",
"266 49 OFFCURVE",
"249 68 OFFCURVE",
"226 68 CURVE SMOOTH",
"203 68 OFFCURVE",
"186 49 OFFCURVE",
"186 28 CURVE SMOOTH",
"186 5 OFFCURVE",
"203 -12 OFFCURVE",
"226 -12 CURVE SMOOTH"
);
}
);
width = 500;
},
{
hints = (
{
origin = "{0, 19}";
target = "{0, 5}";
type = Stem;
}
);
layerId = "58CA432C-E1D8-4E0E-9662-6D1D9C8D1884";
paths = (
{
closed = 1;
nodes = (
"278 284 OFFCURVE",
"288 303 OFFCURVE",
"313 336 CURVE SMOOTH",
"348 376 OFFCURVE",
"404 438 OFFCURVE",
"404 519 CURVE SMOOTH",
"404 651 OFFCURVE",
"308 711 OFFCURVE",
"191 711 CURVE SMOOTH",
"112 711 OFFCURVE",
"45 674 OFFCURVE",
"12 644 CURVE",
"12 459 LINE",
"22 459 LINE",
"37 475 OFFCURVE",
"114 535 OFFCURVE",
"176 535 CURVE SMOOTH",
"198 535 OFFCURVE",
"206 521 OFFCURVE",
"206 507 CURVE SMOOTH",
"206 494 OFFCURVE",
"199 475 OFFCURVE",
"173 452 CURVE SMOOTH",
"148 431 LINE SMOOTH",
"117 400 OFFCURVE",
"88 358 OFFCURVE",
"88 280 CURVE SMOOTH",
"88 232 LINE",
"278 232 LINE",
"278 247 LINE"
);
},
{
closed = 1;
nodes = (
"248 -12 OFFCURVE",
"291 35 OFFCURVE",
"291 93 CURVE SMOOTH",
"291 152 OFFCURVE",
"248 200 OFFCURVE",
"186 200 CURVE SMOOTH",
"122 200 OFFCURVE",
"80 152 OFFCURVE",
"80 93 CURVE SMOOTH",
"80 35 OFFCURVE",
"122 -12 OFFCURVE",
"186 -12 CURVE SMOOTH"
);
}
);
width = 417.8;
}
);
leftKerningGroup = "2";
rightKerningGroup = "2";
unicode = 003F;
},
{
glyphname = questiondown;
lastChange = "2022-09-29 16:44:45 +0000";
layers = (
{
layerId = "29C4A576-5D06-4D79-A0A1-2A812E5B89FB";
paths = (
{
closed = 1;
nodes = (
"159 247 OFFCURVE",
"153 216 OFFCURVE",
"117 181 CURVE SMOOTH",
"75 141 OFFCURVE",
"18 82 OFFCURVE",
"18 -3 CURVE SMOOTH",
"18 -131 OFFCURVE",
"112 -189 OFFCURVE",
"228 -189 CURVE SMOOTH",
"313 -189 OFFCURVE",
"378 -151 OFFCURVE",
"409 -123 CURVE",
"409 32 LINE",
"399 32 LINE",
"382 13 OFFCURVE",
"306 -43 OFFCURVE",
"251 -43 CURVE SMOOTH",
"218 -43 OFFCURVE",
"191 -27 OFFCURVE",
"188 5 CURVE SMOOTH",
"184 45 OFFCURVE",
"209 64 OFFCURVE",
"238 88 CURVE SMOOTH",
"293 134 OFFCURVE",
"317 184 OFFCURVE",
"317 259 CURVE SMOOTH",
"317 316 LINE",
"159 316 LINE",
"159 287 LINE"
);
},
{
closed = 1;
nodes = (
"183 534 OFFCURVE",
"146 494 OFFCURVE",
"146 444 CURVE SMOOTH",
"146 394 OFFCURVE",
"183 353 OFFCURVE",
"236 353 CURVE SMOOTH",
"290 353 OFFCURVE",
"326 394 OFFCURVE",
"326 444 CURVE SMOOTH",
"326 494 OFFCURVE",
"290 534 OFFCURVE",
"236 534 CURVE SMOOTH"
);
}
);
width = 429;
},
{
layerId = "AAC1BB4D-C727-4C18-8F18-05769E5A021D";
paths = (
{
closed = 1;
nodes = (
"243 264 OFFCURVE",
"247 214 OFFCURVE",
"185 170 CURVE SMOOTH",
"156 150 OFFCURVE",
"52 96 OFFCURVE",
"52 -17 CURVE SMOOTH",
"52 -133 OFFCURVE",
"141 -186 OFFCURVE",
"258 -186 CURVE SMOOTH",
"361 -186 OFFCURVE",
"414 -145 OFFCURVE",
"439 -122 CURVE",
"439 -70 LINE",
"429 -70 LINE",
"408 -96 OFFCURVE",
"334 -138 OFFCURVE",
"248 -138 CURVE SMOOTH",
"170 -138 OFFCURVE",
"104 -98 OFFCURVE",
"104 -20 CURVE SMOOTH",
"104 51 OFFCURVE",
"153 81 OFFCURVE",
"209 121 CURVE SMOOTH",
"292 181 OFFCURVE",
"295 245 OFFCURVE",
"295 313 CURVE SMOOTH",
"295 405 LINE",
"243 405 LINE",
"243 313 LINE"
);
},
{
closed = 1;
nodes = (
"245 537 OFFCURVE",
"228 520 OFFCURVE",
"228 497 CURVE SMOOTH",
"228 476 OFFCURVE",
"245 457 OFFCURVE",
"268 457 CURVE SMOOTH",
"291 457 OFFCURVE",
"308 476 OFFCURVE",
"308 497 CURVE SMOOTH",
"308 520 OFFCURVE",
"291 537 OFFCURVE",
"268 537 CURVE SMOOTH"
);
}
);
width = 489;
},
{
layerId = "58CA432C-E1D8-4E0E-9662-6D1D9C8D1884";
paths = (
{
closed = 1;
nodes = (
"138 242 OFFCURVE",
"129 217 OFFCURVE",
"101 184 CURVE SMOOTH",
"55 138 OFFCURVE",
"12 78 OFFCURVE",
"12 1 CURVE SMOOTH",
"12 -130 OFFCURVE",
"107 -190 OFFCURVE",
"223 -190 CURVE SMOOTH",
"303 -190 OFFCURVE",
"371 -153 OFFCURVE",
"404 -123 CURVE",
"404 63 LINE",
"394 63 LINE",
"378 46 OFFCURVE",
"302 -14 OFFCURVE",
"256 -14 CURVE SMOOTH",
"237 -14 OFFCURVE",
"222 -5 OFFCURVE",
"218 13 CURVE SMOOTH",
"213 43 OFFCURVE",
"230 59 OFFCURVE",
"251 78 CURVE SMOOTH",
"298 120 OFFCURVE",
"328 165 OFFCURVE",
"328 243 CURVE SMOOTH",
"328 289 LINE",
"138 289 LINE",
"138 279 LINE"
);
},
{
closed = 1;
nodes = (
"168 533 OFFCURVE",
"125 486 OFFCURVE",
"125 428 CURVE SMOOTH",
"125 369 OFFCURVE",
"168 321 OFFCURVE",
"231 321 CURVE SMOOTH",
"294 321 OFFCURVE",
"336 369 OFFCURVE",
"336 428 CURVE SMOOTH",
"336 486 OFFCURVE",
"294 533 OFFCURVE",
"231 533 CURVE SMOOTH"
);
}
);
width = 418;
}
);
unicode = 00BF;
},
{
glyphname = periodcentered;
lastChange = "2022-09-04 15:46:46 +0000";
layers = (
{
layerId = "29C4A576-5D06-4D79-A0A1-2A812E5B89FB";
paths = (
{
closed = 1;
nodes = (
"158 262 OFFCURVE",
"195 302 OFFCURVE",
"195 352 CURVE SMOOTH",
"195 402 OFFCURVE",
"158 443 OFFCURVE",
"105 443 CURVE SMOOTH",
"51 443 OFFCURVE",
"15 402 OFFCURVE",
"15 352 CURVE SMOOTH",
"15 302 OFFCURVE",
"51 262 OFFCURVE",
"105 262 CURVE SMOOTH"
);
}
);
width = 210;
},
{
layerId = "AAC1BB4D-C727-4C18-8F18-05769E5A021D";
paths = (
{
closed = 1;
nodes = (
"99 312 OFFCURVE",
"115 330 OFFCURVE",
"115 352 CURVE SMOOTH",
"115 375 OFFCURVE",
"99 393 OFFCURVE",
"75 393 CURVE SMOOTH",
"51 393 OFFCURVE",
"35 375 OFFCURVE",
"35 352 CURVE SMOOTH",
"35 330 OFFCURVE",
"51 312 OFFCURVE",
"75 312 CURVE SMOOTH"
);
}
);
width = 150;
},
{
layerId = "58CA432C-E1D8-4E0E-9662-6D1D9C8D1884";
paths = (
{
closed = 1;
nodes = (
"179 247 OFFCURVE",
"222 293 OFFCURVE",
"222 352 CURVE SMOOTH",
"222 410 OFFCURVE",
"179 458 OFFCURVE",
"117 458 CURVE SMOOTH",
"54 458 OFFCURVE",
"12 410 OFFCURVE",
"12 352 CURVE SMOOTH",
"12 293 OFFCURVE",
"54 247 OFFCURVE",
"117 247 CURVE SMOOTH"
);
}
);
width = 234;
}
);
unicode = 00B7;
},
{
glyphname = bullet;
lastChange = "2022-09-03 19:03:39 +0000";
layers = (
{
layerId = "29C4A576-5D06-4D79-A0A1-2A812E5B89FB";
paths = (
{
closed = 1;
nodes = (
"225 226 OFFCURVE",
"277 282 OFFCURVE",
"277 352 CURVE SMOOTH",
"277 422 OFFCURVE",
"225 479 OFFCURVE",
"151 479 CURVE SMOOTH",
"75 479 OFFCURVE",
"25 422 OFFCURVE",
"25 352 CURVE SMOOTH",
"25 282 OFFCURVE",
"75 226 OFFCURVE",
"151 226 CURVE SMOOTH"
);
}
);
width = 302;
},
{
layerId = "AAC1BB4D-C727-4C18-8F18-05769E5A021D";
paths = (
{
closed = 1;
nodes = (
"140 292 OFFCURVE",
"165 319 OFFCURVE",
"165 352 CURVE SMOOTH",
"165 386 OFFCURVE",
"140 413 OFFCURVE",
"105 413 CURVE SMOOTH",
"69 413 OFFCURVE",
"45 386 OFFCURVE",
"45 352 CURVE SMOOTH",
"45 319 OFFCURVE",
"69 292 OFFCURVE",
"105 292 CURVE SMOOTH"
);
}
);
width = 210;
},
{
layerId = "58CA432C-E1D8-4E0E-9662-6D1D9C8D1884";
paths = (
{
closed = 1;
nodes = (
"251 206 OFFCURVE",
"311 271 OFFCURVE",
"311 352 CURVE SMOOTH",
"311 433 OFFCURVE",
"251 499 OFFCURVE",
"165 499 CURVE SMOOTH",
"77 499 OFFCURVE",
"19 433 OFFCURVE",
"19 352 CURVE SMOOTH",
"19 271 OFFCURVE",
"77 206 OFFCURVE",
"165 206 CURVE SMOOTH"
);
}
);
width = 330.0381;
}
);
unicode = 2022;
},
{
glyphname = asterisk;
lastChange = "2022-09-03 19:03:39 +0000";
layers = (
{
layerId = "29C4A576-5D06-4D79-A0A1-2A812E5B89FB";
paths = (
{
closed = 1;
nodes = (
"135 400 LINE",
"175 400 LINE",
"175 700 LINE",
"135 700 LINE"
);
},
{
closed = 1;
nodes = (
"275 458 LINE",
"295 492 LINE",
"35 642 LINE",
"15 608 LINE"
);
},
{
closed = 1;
nodes = (
"15 492 LINE",
"35 458 LINE",
"295 608 LINE",
"275 642 LINE"
);
}
);
width = 310;
},
{
layerId = "AAC1BB4D-C727-4C18-8F18-05769E5A021D";
paths = (
{
closed = 1;
nodes = (
"159 400 LINE",
"183 400 LINE",
"183 700 LINE",
"159 700 LINE"
);
},
{
closed = 1;
nodes = (
"295 465 LINE",
"307 485 LINE",
"47 635 LINE",
"35 615 LINE"
);
},
{
closed = 1;
nodes = (
"35 485 LINE",
"47 465 LINE",
"307 615 LINE",
"295 635 LINE"
);
}
);
width = 342;
},
{
layerId = "58CA432C-E1D8-4E0E-9662-6D1D9C8D1884";
paths = (
{
closed = 1;
nodes = (
"128 400 LINE",
"173 400 LINE",
"173 700 LINE",
"128 700 LINE"
);
},
{
closed = 1;
nodes = (
"269 456 LINE",
"291 494 LINE",
"31 644 LINE",
"9 606 LINE"
);
},
{
closed = 1;
nodes = (
"9 494 LINE",
"31 456 LINE",
"291 606 LINE",
"269 644 LINE"
);
}
);
width = 300.24762;
}
);
unicode = 002A;
},
{
glyphname = numbersign;
lastChange = "2022-09-04 15:47:06 +0000";
layers = (
{
layerId = "29C4A576-5D06-4D79-A0A1-2A812E5B89FB";
paths = (
{
closed = 1;
nodes = (
"75 12 LINE",
"75 0 LINE",
"123 0 LINE",
"341 688 LINE",
"341 700 LINE",
"293 700 LINE"
);
},
{
closed = 1;
nodes = (
"293 12 LINE",
"293 0 LINE",
"341 0 LINE",
"559 688 LINE",
"559 700 LINE",
"511 700 LINE"
);
},
{
closed = 1;
nodes = (
"88 453 LINE",
"634 453 LINE",
"634 499 LINE",
"88 499 LINE"
);
},
{
closed = 1;
nodes = (
"12 204 LINE",
"557 204 LINE",
"557 250 LINE",
"12 250 LINE"
);
}
);
width = 646;
},
{
layerId = "AAC1BB4D-C727-4C18-8F18-05769E5A021D";
paths = (
{
closed = 1;
nodes = (
"118 12 LINE",
"118 0 LINE",
"142 0 LINE",
"360 688 LINE",
"360 700 LINE",
"336 700 LINE"
);
},
{
closed = 1;
nodes = (
"340 12 LINE",
"340 0 LINE",
"364 0 LINE",
"582 688 LINE",
"582 700 LINE",
"558 700 LINE"
);
},
{
closed = 1;
nodes = (
"121 475 LINE",
"667 475 LINE",
"667 499 LINE",
"121 499 LINE"
);
},
{
closed = 1;
nodes = (
"45 204 LINE",
"590 204 LINE",
"590 228 LINE",
"45 228 LINE"
);
}
);
width = 712;
},
{
layerId = "58CA432C-E1D8-4E0E-9662-6D1D9C8D1884";
paths = (
{
closed = 1;
nodes = (
"66 12 LINE",
"66 0 LINE",
"121 0 LINE",
"339 688 LINE",
"339 700 LINE",
"284 700 LINE"
);
},
{
closed = 1;
nodes = (
"283 12 LINE",
"283 0 LINE",
"338 0 LINE",
"556 688 LINE",
"556 700 LINE",
"501 700 LINE"
);
},
{
closed = 1;
nodes = (
"82 446 LINE",
"628 446 LINE",
"628 499 LINE",
"82 499 LINE"
);
},
{
closed = 1;
nodes = (
"6 204 LINE",
"551 204 LINE",
"551 257 LINE",
"6 257 LINE"
);
}
);
width = 634;
}
);
unicode = 0023;
},
{
glyphname = slash;
lastChange = "2022-09-03 19:03:39 +0000";
layers = (
{
layerId = "29C4A576-5D06-4D79-A0A1-2A812E5B89FB";
paths = (
{
closed = 1;
nodes = (
"10 -70 LINE",
"10 -82 LINE",
"48 -82 LINE",
"306 770 LINE",
"306 782 LINE",
"268 782 LINE"
);
}
);
width = 315;
},
{
layerId = "AAC1BB4D-C727-4C18-8F18-05769E5A021D";
paths = (
{
closed = 1;
nodes = (
"30 -70 LINE",
"30 -82 LINE",
"52 -82 LINE",
"310 770 LINE",
"310 782 LINE",
"288 782 LINE"
);
}
);
width = 340;
},
{
layerId = "58CA432C-E1D8-4E0E-9662-6D1D9C8D1884";
paths = (
{
closed = 1;
nodes = (
"4 -70 LINE",
"4 -82 LINE",
"47 -82 LINE",
"305 770 LINE",
"305 782 LINE",
"262 782 LINE"
);
}
);
width = 307.38095;
}
);
unicode = 002F;
},
{
glyphname = backslash;
lastChange = "2022-09-03 19:03:39 +0000";
layers = (
{
layerId = "29C4A576-5D06-4D79-A0A1-2A812E5B89FB";
paths = (
{
closed = 1;
nodes = (
"9 782 LINE",
"9 770 LINE",
"267 -82 LINE",
"305 -82 LINE",
"305 -70 LINE",
"47 782 LINE"
);
}
);
width = 315;
},
{
layerId = "AAC1BB4D-C727-4C18-8F18-05769E5A021D";
paths = (
{
closed = 1;
nodes = (
"30 782 LINE",
"30 770 LINE",
"288 -82 LINE",
"310 -82 LINE",
"310 -70 LINE",
"52 782 LINE"
);
}
);
width = 340;
},
{
layerId = "58CA432C-E1D8-4E0E-9662-6D1D9C8D1884";
paths = (
{
closed = 1;
nodes = (
"3 782 LINE",
"3 770 LINE",
"261 -82 LINE",
"303 -82 LINE",
"303 -70 LINE",
"45 782 LINE"
);
}
);
width = 307.38095;
}
);
unicode = 005C;
},
{
glyphname = endash;
lastChange = "2022-09-04 15:39:34 +0000";
layers = (
{
layerId = "29C4A576-5D06-4D79-A0A1-2A812E5B89FB";
paths = (
{
closed = 1;
nodes = (
"30 325 LINE",
"405 325 LINE",
"405 365 LINE",
"30 365 LINE"
);
}
);
width = 435;
},
{
layerId = "AAC1BB4D-C727-4C18-8F18-05769E5A021D";
paths = (
{
closed = 1;
nodes = (
"45 333 LINE",
"420 333 LINE",
"420 357 LINE",
"45 357 LINE"
);
}
);
width = 465;
},
{
layerId = "58CA432C-E1D8-4E0E-9662-6D1D9C8D1884";
paths = (
{
closed = 1;
nodes = (
"25 323 LINE",
"400 323 LINE",
"400 367 LINE",
"25 367 LINE"
);
}
);
width = 426;
}
);
unicode = 2013;
},
{
glyphname = emdash;
lastChange = "2022-09-04 15:39:37 +0000";
layers = (
{
layerId = "29C4A576-5D06-4D79-A0A1-2A812E5B89FB";
paths = (
{
closed = 1;
nodes = (
"25 325 LINE",
"555 325 LINE",
"555 365 LINE",
"25 365 LINE"
);
},
{
closed = 1;
nodes = (
"25 325 LINE",
"555 325 LINE",
"555 365 LINE",
"25 365 LINE"
);
}
);
width = 580;
},
{
layerId = "AAC1BB4D-C727-4C18-8F18-05769E5A021D";
paths = (
{
closed = 1;
nodes = (
"45 333 LINE",
"575 333 LINE",
"575 357 LINE",
"45 357 LINE"
);
},
{
closed = 1;
nodes = (
"45 333 LINE",
"575 333 LINE",
"575 357 LINE",
"45 357 LINE"
);
}
);
width = 620;
},
{
layerId = "58CA432C-E1D8-4E0E-9662-6D1D9C8D1884";
paths = (
{
closed = 1;
nodes = (
"20 323 LINE",
"550 323 LINE",
"550 367 LINE",
"20 367 LINE"
);
},
{
closed = 1;
nodes = (
"20 323 LINE",
"550 323 LINE",
"550 367 LINE",
"20 367 LINE"
);
}
);
width = 570;
}
);
unicode = 2014;
},
{
glyphname = underscore;
lastChange = "2022-09-03 19:03:39 +0000";
layers = (
{
layerId = "29C4A576-5D06-4D79-A0A1-2A812E5B89FB";
paths = (
{
closed = 1;
nodes = (
"5 -52 LINE",
"535 -52 LINE",
"535 -12 LINE",
"5 -12 LINE"
);
},
{
closed = 1;
nodes = (
"5 -52 LINE",
"535 -52 LINE",
"535 -12 LINE",
"5 -12 LINE"
);
}
);
width = 540;
},
{
layerId = "AAC1BB4D-C727-4C18-8F18-05769E5A021D";
paths = (
{
closed = 1;
nodes = (
"25 -36 LINE",
"555 -36 LINE",
"555 -12 LINE",
"25 -12 LINE"
);
},
{
closed = 1;
nodes = (
"25 -36 LINE",
"555 -36 LINE",
"555 -12 LINE",
"25 -12 LINE"
);
}
);
width = 580;
},
{
layerId = "58CA432C-E1D8-4E0E-9662-6D1D9C8D1884";
paths = (
{
closed = 1;
nodes = (
"-1 -57 LINE",
"529 -57 LINE",
"529 -12 LINE",
"-1 -12 LINE"
);
},
{
closed = 1;
nodes = (
"-1 -57 LINE",
"529 -57 LINE",
"529 -12 LINE",
"-1 -12 LINE"
);
}
);
width = 527.80952;
}
);
unicode = 005F;
},
{
glyphname = parenright;
lastChange = "2022-09-10 07:24:22 +0000";
layers = (
{
layerId = "29C4A576-5D06-4D79-A0A1-2A812E5B89FB";
paths = (
{
closed = 1;
nodes = (
"198 530 OFFCURVE",
"132 703 OFFCURVE",
"22 803 CURVE",
"0 803 LINE",
"0 795 LINE",
"103 684 OFFCURVE",
"152 522 OFFCURVE",
"152 350 CURVE SMOOTH",
"152 178 OFFCURVE",
"103 16 OFFCURVE",
"0 -95 CURVE",
"0 -103 LINE",
"22 -103 LINE",
"132 -3 OFFCURVE",
"198 170 OFFCURVE",
"198 350 CURVE SMOOTH"
);
}
);
width = 218;
},
{
layerId = "AAC1BB4D-C727-4C18-8F18-05769E5A021D";
paths = (
{
closed = 1;
nodes = (
"224 540 OFFCURVE",
"159 698 OFFCURVE",
"64 803 CURVE",
"50 803 LINE",
"50 795 LINE",
"133 694 OFFCURVE",
"188 522 OFFCURVE",
"188 350 CURVE SMOOTH",
"188 178 OFFCURVE",
"133 6 OFFCURVE",
"50 -95 CURVE",
"50 -103 LINE",
"64 -103 LINE",
"159 2 OFFCURVE",
"224 160 OFFCURVE",
"224 350 CURVE SMOOTH"
);
}
);
width = 264;
},
{
layerId = "58CA432C-E1D8-4E0E-9662-6D1D9C8D1884";
paths = (
{
closed = 1;
nodes = (
"195 527 OFFCURVE",
"129 705 OFFCURVE",
"14 803 CURVE",
"-10 803 LINE",
"-10 795 LINE",
"99 681 OFFCURVE",
"146 522 OFFCURVE",
"146 350 CURVE SMOOTH",
"146 178 OFFCURVE",
"99 19 OFFCURVE",
"-10 -95 CURVE",
"-10 -103 LINE",
"14 -103 LINE",
"129 -5 OFFCURVE",
"195 173 OFFCURVE",
"195 350 CURVE SMOOTH"
);
}
);
width = 209;
}
);
unicode = 0029;
},
{
glyphname = braceleft;
lastChange = "2022-09-10 07:26:56 +0000";
layers = (
{
layerId = "29C4A576-5D06-4D79-A0A1-2A812E5B89FB";
paths = (
{
closed = 1;
nodes = (
"20 337 LINE",
"51 327 OFFCURVE",
"69 295 OFFCURVE",
"68 246 CURVE SMOOTH",
"64 6 LINE SMOOTH",
"63 -75 OFFCURVE",
"113 -103 OFFCURVE",
"172 -103 CURVE SMOOTH",
"211 -103 LINE",
"211 -63 LINE",
"173 -63 LINE SMOOTH",
"130 -63 OFFCURVE",
"104 -41 OFFCURVE",
"104 6 CURVE SMOOTH",
"104 233 LINE SMOOTH",
"104 302 OFFCURVE",
"95 334 OFFCURVE",
"62 353 CURVE",
"62 359 LINE",
"95 378 OFFCURVE",
"104 410 OFFCURVE",
"104 479 CURVE SMOOTH",
"104 694 LINE SMOOTH",
"104 741 OFFCURVE",
"130 763 OFFCURVE",
"173 763 CURVE SMOOTH",
"211 763 LINE",
"211 803 LINE",
"172 803 LINE SMOOTH",
"113 803 OFFCURVE",
"64 775 OFFCURVE",
"64 694 CURVE SMOOTH",
"64 466 LINE SMOOTH",
"64 417 OFFCURVE",
"51 385 OFFCURVE",
"20 375 CURVE"
);
}
);
width = 216;
},
{
layerId = "AAC1BB4D-C727-4C18-8F18-05769E5A021D";
paths = (
{
closed = 1;
nodes = (
"22 343 LINE",
"53 333 OFFCURVE",
"66 305 OFFCURVE",
"66 266 CURVE SMOOTH",
"66 -24 LINE SMOOTH",
"66 -85 OFFCURVE",
"103 -103 OFFCURVE",
"150 -103 CURVE SMOOTH",
"189 -103 LINE",
"189 -81 LINE",
"151 -81 LINE SMOOTH",
"116 -81 OFFCURVE",
"90 -66 OFFCURVE",
"90 -25 CURVE SMOOTH",
"90 263 LINE SMOOTH",
"90 312 OFFCURVE",
"81 335 OFFCURVE",
"48 354 CURVE",
"48 358 LINE",
"81 377 OFFCURVE",
"90 400 OFFCURVE",
"90 449 CURVE SMOOTH",
"90 725 LINE SMOOTH",
"90 766 OFFCURVE",
"116 781 OFFCURVE",
"151 781 CURVE SMOOTH",
"189 781 LINE",
"189 803 LINE",
"150 803 LINE SMOOTH",
"103 803 OFFCURVE",
"66 785 OFFCURVE",
"66 724 CURVE SMOOTH",
"66 446 LINE SMOOTH",
"66 407 OFFCURVE",
"53 379 OFFCURVE",
"22 369 CURVE"
);
}
);
width = 214;
},
{
layerId = "58CA432C-E1D8-4E0E-9662-6D1D9C8D1884";
paths = (
{
closed = 1;
nodes = (
"10 335 LINE",
"41 325 OFFCURVE",
"61 292 OFFCURVE",
"60 240 CURVE SMOOTH",
"54 15 LINE SMOOTH",
"53 -72 OFFCURVE",
"107 -103 OFFCURVE",
"170 -103 CURVE SMOOTH",
"209 -103 LINE",
"209 -58 LINE",
"171 -58 LINE SMOOTH",
"125 -58 OFFCURVE",
"99 -33 OFFCURVE",
"99 15 CURVE SMOOTH",
"99 224 LINE SMOOTH",
"99 299 OFFCURVE",
"90 334 OFFCURVE",
"57 353 CURVE",
"57 359 LINE",
"90 378 OFFCURVE",
"99 413 OFFCURVE",
"99 488 CURVE SMOOTH",
"99 685 LINE SMOOTH",
"99 733 OFFCURVE",
"125 758 OFFCURVE",
"171 758 CURVE SMOOTH",
"209 758 LINE",
"209 803 LINE",
"170 803 LINE SMOOTH",
"107 803 OFFCURVE",
"54 772 OFFCURVE",
"54 685 CURVE SMOOTH",
"54 472 LINE SMOOTH",
"54 420 OFFCURVE",
"41 387 OFFCURVE",
"10 377 CURVE"
);
}
);
width = 209;
}
);
unicode = 007B;
},
{
glyphname = braceright;
lastChange = "2022-09-10 07:26:50 +0000";
layers = (
{
layerId = "29C4A576-5D06-4D79-A0A1-2A812E5B89FB";
paths = (
{
closed = 1;
nodes = (
"165 385 OFFCURVE",
"152 417 OFFCURVE",
"152 466 CURVE SMOOTH",
"152 694 LINE SMOOTH",
"152 775 OFFCURVE",
"103 803 OFFCURVE",
"44 803 CURVE SMOOTH",
"5 803 LINE",
"5 763 LINE",
"43 763 LINE SMOOTH",
"86 763 OFFCURVE",
"112 741 OFFCURVE",
"112 694 CURVE SMOOTH",
"112 479 LINE SMOOTH",
"112 410 OFFCURVE",
"121 378 OFFCURVE",
"154 359 CURVE",
"154 353 LINE",
"121 334 OFFCURVE",
"112 302 OFFCURVE",
"112 233 CURVE SMOOTH",
"112 6 LINE SMOOTH",
"112 -41 OFFCURVE",
"86 -63 OFFCURVE",
"43 -63 CURVE SMOOTH",
"5 -63 LINE",
"5 -103 LINE",
"44 -103 LINE SMOOTH",
"103 -103 OFFCURVE",
"153 -75 OFFCURVE",
"152 6 CURVE SMOOTH",
"148 246 LINE SMOOTH",
"147 295 OFFCURVE",
"165 327 OFFCURVE",
"196 337 CURVE",
"196 375 LINE"
);
}
);
width = 216;
},
{
layerId = "AAC1BB4D-C727-4C18-8F18-05769E5A021D";
paths = (
{
closed = 1;
nodes = (
"161 379 OFFCURVE",
"148 407 OFFCURVE",
"148 446 CURVE SMOOTH",
"148 724 LINE SMOOTH",
"148 785 OFFCURVE",
"111 803 OFFCURVE",
"64 803 CURVE SMOOTH",
"25 803 LINE",
"25 781 LINE",
"63 781 LINE SMOOTH",
"98 781 OFFCURVE",
"124 766 OFFCURVE",
"124 725 CURVE SMOOTH",
"124 449 LINE SMOOTH",
"124 400 OFFCURVE",
"133 377 OFFCURVE",
"166 358 CURVE",
"166 354 LINE",
"133 335 OFFCURVE",
"124 312 OFFCURVE",
"124 263 CURVE SMOOTH",
"124 -25 LINE SMOOTH",
"124 -66 OFFCURVE",
"98 -81 OFFCURVE",
"63 -81 CURVE SMOOTH",
"25 -81 LINE",
"25 -103 LINE",
"64 -103 LINE SMOOTH",
"111 -103 OFFCURVE",
"148 -85 OFFCURVE",
"148 -24 CURVE SMOOTH",
"148 266 LINE SMOOTH",
"148 305 OFFCURVE",
"161 333 OFFCURVE",
"192 343 CURVE",
"192 369 LINE"
);
}
);
width = 214;
},
{
layerId = "58CA432C-E1D8-4E0E-9662-6D1D9C8D1884";
paths = (
{
closed = 1;
nodes = (
"167 387 OFFCURVE",
"154 420 OFFCURVE",
"154 472 CURVE SMOOTH",
"154 685 LINE SMOOTH",
"154 772 OFFCURVE",
"102 803 OFFCURVE",
"39 803 CURVE SMOOTH",
"0 803 LINE",
"0 758 LINE",
"38 758 LINE SMOOTH",
"83 758 OFFCURVE",
"109 733 OFFCURVE",
"109 685 CURVE SMOOTH",
"109 488 LINE SMOOTH",
"109 413 OFFCURVE",
"118 378 OFFCURVE",
"151 359 CURVE",
"151 353 LINE",
"118 334 OFFCURVE",
"109 299 OFFCURVE",
"109 224 CURVE SMOOTH",
"109 15 LINE SMOOTH",
"109 -33 OFFCURVE",
"83 -58 OFFCURVE",
"38 -58 CURVE SMOOTH",
"0 -58 LINE",
"0 -103 LINE",
"39 -103 LINE SMOOTH",
"102 -103 OFFCURVE",
"156 -72 OFFCURVE",
"154 15 CURVE SMOOTH",
"149 240 LINE SMOOTH",
"148 292 OFFCURVE",
"167 325 OFFCURVE",
"198 335 CURVE",
"198 377 LINE"
);
}
);
width = 208;
}
);
unicode = 007D;
},
{
glyphname = bracketleft;
lastChange = "2022-09-03 19:03:39 +0000";
layers = (
{
layerId = "29C4A576-5D06-4D79-A0A1-2A812E5B89FB";
paths = (
{
closed = 1;
nodes = (
"45 -103 LINE",
"85 -103 LINE",
"85 803 LINE",
"45 803 LINE"
);
},
{
closed = 1;
nodes = (
"59 763 LINE",
"153 763 LINE",
"153 803 LINE",
"59 803 LINE"
);
},
{
closed = 1;
nodes = (
"59 -103 LINE",
"153 -103 LINE",
"153 -63 LINE",
"59 -63 LINE"
);
}
);
width = 183;
},
{
layerId = "AAC1BB4D-C727-4C18-8F18-05769E5A021D";
paths = (
{
closed = 1;
nodes = (
"75 -103 LINE",
"99 -103 LINE",
"99 803 LINE",
"75 803 LINE"
);
},
{
closed = 1;
nodes = (
"89 779 LINE",
"173 779 LINE",
"173 803 LINE",
"89 803 LINE"
);
},
{
closed = 1;
nodes = (
"89 -103 LINE",
"173 -103 LINE",
"173 -79 LINE",
"89 -79 LINE"
);
}
);
width = 233;
},
{
layerId = "58CA432C-E1D8-4E0E-9662-6D1D9C8D1884";
paths = (
{
closed = 1;
nodes = (
"36 -103 LINE",
"81 -103 LINE",
"81 803 LINE",
"36 803 LINE"
);
},
{
closed = 1;
nodes = (
"50 758 LINE",
"147 758 LINE",
"147 803 LINE",
"50 803 LINE"
);
},
{
closed = 1;
nodes = (
"50 -103 LINE",
"147 -103 LINE",
"147 -58 LINE",
"50 -58 LINE"
);
}
);
width = 167.7619;
}
);
leftKerningGroup = H;
unicode = 005B;
},
{
glyphname = bracketright;
lastChange = "2022-09-03 19:03:39 +0000";
layers = (
{
layerId = "29C4A576-5D06-4D79-A0A1-2A812E5B89FB";
paths = (
{
closed = 1;
nodes = (
"98 803 LINE",
"98 -103 LINE",
"138 -103 LINE",
"138 803 LINE"
);
},
{
closed = 1;
nodes = (
"30 803 LINE",
"30 763 LINE",
"124 763 LINE",
"124 803 LINE"
);
},
{
closed = 1;
nodes = (
"30 -63 LINE",
"30 -103 LINE",
"124 -103 LINE",
"124 -63 LINE"
);
}
);
width = 183;
},
{
layerId = "AAC1BB4D-C727-4C18-8F18-05769E5A021D";
paths = (
{
closed = 1;
nodes = (
"134 803 LINE",
"134 -103 LINE",
"158 -103 LINE",
"158 803 LINE"
);
},
{
closed = 1;
nodes = (
"60 803 LINE",
"60 779 LINE",
"144 779 LINE",
"144 803 LINE"
);
},
{
closed = 1;
nodes = (
"60 -79 LINE",
"60 -103 LINE",
"144 -103 LINE",
"144 -79 LINE"
);
}
);
width = 233;
},
{
layerId = "58CA432C-E1D8-4E0E-9662-6D1D9C8D1884";
paths = (
{
closed = 1;
nodes = (
"87 803 LINE",
"87 -103 LINE",
"132 -103 LINE",
"132 803 LINE"
);
},
{
closed = 1;
nodes = (
"21 803 LINE",
"21 758 LINE",
"118 758 LINE",
"118 803 LINE"
);
},
{
closed = 1;
nodes = (
"21 -58 LINE",
"21 -103 LINE",
"118 -103 LINE",
"118 -58 LINE"
);
}
);
width = 167.7619;
}
);
rightKerningGroup = H;
unicode = 005D;
},
{
glyphname = guillemetleft;
lastChange = "2022-09-03 19:03:39 +0000";
layers = (
{
layerId = "29C4A576-5D06-4D79-A0A1-2A812E5B89FB";
paths = (
{
closed = 1;
nodes = (
"20 366 LINE",
"20 334 LINE",
"179 141 LINE",
"217 141 LINE",
"217 153 LINE",
"57 345 LINE",
"57 355 LINE",
"217 547 LINE",
"217 559 LINE",
"179 559 LINE"
);
},
{
closed = 1;
nodes = (
"147 366 LINE",
"147 334 LINE",
"306 141 LINE",
"344 141 LINE",
"344 153 LINE",
"184 345 LINE",
"184 355 LINE",
"344 547 LINE",
"344 559 LINE",
"306 559 LINE"
);
}
);
width = 374;
},
{
layerId = "AAC1BB4D-C727-4C18-8F18-05769E5A021D";
paths = (
{
closed = 1;
nodes = (
"50 366 LINE",
"50 334 LINE",
"209 141 LINE",
"233 141 LINE",
"233 153 LINE",
"73 346 LINE",
"73 354 LINE",
"233 547 LINE",
"233 559 LINE",
"209 559 LINE"
);
},
{
closed = 1;
nodes = (
"163 366 LINE",
"163 334 LINE",
"322 141 LINE",
"346 141 LINE",
"346 153 LINE",
"186 346 LINE",
"186 354 LINE",
"346 547 LINE",
"346 559 LINE",
"322 559 LINE"
);
}
);
width = 396;
},
{
layerId = "58CA432C-E1D8-4E0E-9662-6D1D9C8D1884";
paths = (
{
closed = 1;
nodes = (
"11 366 LINE",
"11 334 LINE",
"170 141 LINE",
"212 141 LINE",
"212 153 LINE",
"52 345 LINE",
"52 355 LINE",
"212 547 LINE",
"212 559 LINE",
"170 559 LINE"
);
},
{
closed = 1;
nodes = (
"142 366 LINE",
"142 334 LINE",
"301 141 LINE",
"343 141 LINE",
"343 153 LINE",
"183 345 LINE",
"183 355 LINE",
"343 547 LINE",
"343 559 LINE",
"301 559 LINE"
);
}
);
width = 367.29524;
}
);
leftKerningGroup = arl;
rightKerningGroup = arl;
unicode = 00AB;
},
{
glyphname = guillemetright;
lastChange = "2022-09-03 19:03:39 +0000";
layers = (
{
layerId = "29C4A576-5D06-4D79-A0A1-2A812E5B89FB";
paths = (
{
closed = 1;
nodes = (
"157 559 LINE",
"157 547 LINE",
"317 355 LINE",
"317 345 LINE",
"157 153 LINE",
"157 141 LINE",
"195 141 LINE",
"354 334 LINE",
"354 366 LINE",
"195 559 LINE"
);
},
{
closed = 1;
nodes = (
"30 559 LINE",
"30 547 LINE",
"190 355 LINE",
"190 345 LINE",
"30 153 LINE",
"30 141 LINE",
"68 141 LINE",
"227 334 LINE",
"227 366 LINE",
"68 559 LINE"
);
}
);
width = 374;
},
{
layerId = "AAC1BB4D-C727-4C18-8F18-05769E5A021D";
paths = (
{
closed = 1;
nodes = (
"163 559 LINE",
"163 547 LINE",
"323 354 LINE",
"323 346 LINE",
"163 153 LINE",
"163 141 LINE",
"187 141 LINE",
"346 334 LINE",
"346 366 LINE",
"187 559 LINE"
);
},
{
closed = 1;
nodes = (
"50 559 LINE",
"50 547 LINE",
"210 354 LINE",
"210 346 LINE",
"50 153 LINE",
"50 141 LINE",
"74 141 LINE",
"233 334 LINE",
"233 366 LINE",
"74 559 LINE"
);
}
);
width = 396;
},
{
layerId = "58CA432C-E1D8-4E0E-9662-6D1D9C8D1884";
paths = (
{
closed = 1;
nodes = (
"155 559 LINE",
"155 547 LINE",
"315 355 LINE",
"315 345 LINE",
"155 153 LINE",
"155 141 LINE",
"197 141 LINE",
"356 334 LINE",
"356 366 LINE",
"197 559 LINE"
);
},
{
closed = 1;
nodes = (
"24 559 LINE",
"24 547 LINE",
"184 355 LINE",
"184 345 LINE",
"24 153 LINE",
"24 141 LINE",
"66 141 LINE",
"225 334 LINE",
"225 366 LINE",
"66 559 LINE"
);
}
);
width = 367.29524;
}
);
leftKerningGroup = arr;
rightKerningGroup = arr;
unicode = 00BB;
},
{
glyphname = guilsinglleft;
lastChange = "2022-09-03 19:03:39 +0000";
layers = (
{
layerId = "29C4A576-5D06-4D79-A0A1-2A812E5B89FB";
paths = (
{
closed = 1;
nodes = (
"20 366 LINE",
"20 334 LINE",
"179 141 LINE",
"217 141 LINE",
"217 153 LINE",
"57 345 LINE",
"57 355 LINE",
"217 547 LINE",
"217 559 LINE",
"179 559 LINE"
);
}
);
width = 247;
},
{
layerId = "AAC1BB4D-C727-4C18-8F18-05769E5A021D";
paths = (
{
closed = 1;
nodes = (
"50 366 LINE",
"50 334 LINE",
"209 141 LINE",
"233 141 LINE",
"233 153 LINE",
"73 346 LINE",
"73 354 LINE",
"233 547 LINE",
"233 559 LINE",
"209 559 LINE"
);
}
);
width = 293;
},
{
layerId = "58CA432C-E1D8-4E0E-9662-6D1D9C8D1884";
paths = (
{
closed = 1;
nodes = (
"11 366 LINE",
"11 334 LINE",
"170 141 LINE",
"212 141 LINE",
"212 153 LINE",
"52 345 LINE",
"52 355 LINE",
"212 547 LINE",
"212 559 LINE",
"170 559 LINE"
);
}
);
width = 232.98095;
}
);
leftKerningGroup = arl;
rightKerningGroup = arl;
unicode = 2039;
},
{
glyphname = guilsinglright;
lastChange = "2022-09-03 19:03:39 +0000";
layers = (
{
layerId = "29C4A576-5D06-4D79-A0A1-2A812E5B89FB";
paths = (
{
closed = 1;
nodes = (
"30 559 LINE",
"30 547 LINE",
"190 355 LINE",
"190 345 LINE",
"30 153 LINE",
"30 141 LINE",
"68 141 LINE",
"227 334 LINE",
"227 366 LINE",
"68 559 LINE"
);
}
);
width = 247;
},
{
layerId = "AAC1BB4D-C727-4C18-8F18-05769E5A021D";
paths = (
{
closed = 1;
nodes = (
"60 559 LINE",
"60 547 LINE",
"220 354 LINE",
"220 346 LINE",
"60 153 LINE",
"60 141 LINE",
"84 141 LINE",
"243 334 LINE",
"243 366 LINE",
"84 559 LINE"
);
}
);
width = 293;
},
{
layerId = "58CA432C-E1D8-4E0E-9662-6D1D9C8D1884";
paths = (
{
closed = 1;
nodes = (
"21 559 LINE",
"21 547 LINE",
"181 355 LINE",
"181 345 LINE",
"21 153 LINE",
"21 141 LINE",
"63 141 LINE",
"222 334 LINE",
"222 366 LINE",
"63 559 LINE"
);
}
);
width = 232.98095;
}
);
leftKerningGroup = arr;
rightKerningGroup = arr;
unicode = 203A;
},
{
glyphname = quotedbl;
lastChange = "2022-09-03 19:03:39 +0000";
layers = (
{
layerId = "29C4A576-5D06-4D79-A0A1-2A812E5B89FB";
paths = (
{
closed = 1;
nodes = (
"157 701 LINE",
"18 701 LINE",
"40 470 LINE",
"130 470 LINE"
);
},
{
closed = 1;
nodes = (
"328 701 LINE",
"189 701 LINE",
"211 470 LINE",
"301 470 LINE"
);
}
);
width = 346;
},
{
layerId = "AAC1BB4D-C727-4C18-8F18-05769E5A021D";
paths = (
{
closed = 1;
nodes = (
"106 701 LINE",
"45 701 LINE",
"56 575 LINE",
"92 575 LINE"
);
},
{
closed = 1;
nodes = (
"193 701 LINE",
"130 701 LINE",
"142 575 LINE",
"180 575 LINE"
);
}
);
width = 238;
},
{
layerId = "58CA432C-E1D8-4E0E-9662-6D1D9C8D1884";
paths = (
{
closed = 1;
nodes = (
"173 701 LINE",
"10 701 LINE",
"35 438 LINE",
"142 438 LINE"
);
},
{
closed = 1;
nodes = (
"369 701 LINE",
"207 701 LINE",
"232 438 LINE",
"338 438 LINE"
);
}
);
width = 378.91429;
}
);
leftKerningGroup = quote;
rightKerningGroup = quote;
unicode = 0022;
},
{
glyphname = quotesingle;
lastChange = "2022-09-03 19:03:39 +0000";
layers = (
{
layerId = "29C4A576-5D06-4D79-A0A1-2A812E5B89FB";
paths = (
{
closed = 1;
nodes = (
"157 701 LINE",
"18 701 LINE",
"40 470 LINE",
"130 470 LINE"
);
}
);
width = 175;
},
{
layerId = "AAC1BB4D-C727-4C18-8F18-05769E5A021D";
paths = (
{
closed = 1;
nodes = (
"109 701 LINE",
"45 701 LINE",
"57 575 LINE",
"93 575 LINE"
);
}
);
width = 154;
},
{
layerId = "58CA432C-E1D8-4E0E-9662-6D1D9C8D1884";
paths = (
{
closed = 1;
nodes = (
"172 701 LINE",
"10 701 LINE",
"35 438 LINE",
"141 438 LINE"
);
}
);
width = 181.4;
}
);
unicode = 0027;
},
{
glyphname = baht;
lastChange = "2022-09-03 19:03:39 +0000";
layers = (
{
anchors = (
{
name = bottom;
position = "{288, 0}";
},
{
name = center;
position = "{288, 350}";
},
{
name = top;
position = "{288, 700}";
}
);
layerId = "AAC1BB4D-C727-4C18-8F18-05769E5A021D";
paths = (
{
closed = 1;
nodes = (
"263 0 LINE",
"263 -70 LINE",
"287 -70 LINE",
"287 0 LINE",
"350 0 LINE SMOOTH",
"460 0 OFFCURVE",
"541 56 OFFCURVE",
"541 195 CURVE SMOOTH",
"541 304 OFFCURVE",
"480 350 OFFCURVE",
"425 364 CURVE",
"425 368 LINE",
"465 379 OFFCURVE",
"522 422 OFFCURVE",
"522 528 CURVE SMOOTH",
"522 638 OFFCURVE",
"456 700 OFFCURVE",
"359 700 CURVE SMOOTH",
"287 700 LINE",
"287 782 LINE",
"263 782 LINE",
"263 700 LINE",
"70 700 LINE",
"70 0 LINE"
);
},
{
closed = 1;
nodes = (
"123 337 LINE",
"343 337 LINE SMOOTH",
"422 337 OFFCURVE",
"487 284 OFFCURVE",
"487 195 CURVE SMOOTH",
"487 96 OFFCURVE",
"440 48 OFFCURVE",
"345 48 CURVE SMOOTH",
"123 48 LINE"
);
},
{
closed = 1;
nodes = (
"123 652 LINE",
"348 652 LINE SMOOTH",
"423 652 OFFCURVE",
"468 603 OFFCURVE",
"468 515 CURVE SMOOTH",
"468 430 OFFCURVE",
"422 383 OFFCURVE",
"348 383 CURVE SMOOTH",
"123 383 LINE"
);
}
);
width = 576;
},
{
anchors = (
{
name = bottom;
position = "{263, 0}";
},
{
name = center;
position = "{263, 350}";
},
{
name = top;
position = "{263, 700}";
}
);
hints = (
{
horizontal = 1;
place = "{-1, 144}";
type = Stem;
},
{
place = "{45, 158}";
type = Stem;
},
{
horizontal = 1;
place = "{293, 124}";
type = Stem;
},
{
place = "{350, 166}";
type = Stem;
},
{
horizontal = 1;
place = "{700, 136}";
type = Stem;
}
);
layerId = "29C4A576-5D06-4D79-A0A1-2A812E5B89FB";
paths = (
{
closed = 1;
nodes = (
"243 0 LINE",
"243 -70 LINE",
"283 -70 LINE",
"283 0 LINE",
"323 0 LINE SMOOTH",
"445 0 OFFCURVE",
"526 69 OFFCURVE",
"526 198 CURVE SMOOTH",
"526 305 OFFCURVE",
"455 366 OFFCURVE",
"400 380 CURVE",
"400 387 LINE",
"446 401 OFFCURVE",
"501 446 OFFCURVE",
"501 537 CURVE SMOOTH",
"501 636 OFFCURVE",
"433 700 OFFCURVE",
"330 700 CURVE SMOOTH",
"283 700 LINE",
"283 782 LINE",
"243 782 LINE",
"243 700 LINE",
"45 700 LINE",
"45 0 LINE"
);
},
{
closed = 1;
nodes = (
"203 293 LINE",
"288 293 LINE SMOOTH",
"329 293 OFFCURVE",
"360 267 OFFCURVE",
"360 219 CURVE SMOOTH",
"360 171 OFFCURVE",
"329 143 OFFCURVE",
"288 143 CURVE SMOOTH",
"203 143 LINE"
);
},
{
closed = 1;
nodes = (
"203 564 LINE",
"284 564 LINE SMOOTH",
"320 564 OFFCURVE",
"347 537 OFFCURVE",
"347 491 CURVE SMOOTH",
"347 445 OFFCURVE",
"320 417 OFFCURVE",
"284 417 CURVE SMOOTH",
"203 417 LINE"
);
}
);
width = 536;
},
{
anchors = (
{
name = bottom;
position = "{255, 0}";
},
{
name = center;
position = "{255, 350}";
},
{
name = top;
position = "{255, 700}";
}
);
hints = (
{
horizontal = 1;
place = "{-1, 188}";
type = Stem;
},
{
place = "{59, 206}";
type = Stem;
},
{
horizontal = 1;
place = "{382, 162}";
type = Stem;
},
{
place = "{457, 217}";
type = Stem;
},
{
horizontal = 1;
place = "{913, 177}";
type = Stem;
}
);
layerId = "58CA432C-E1D8-4E0E-9662-6D1D9C8D1884";
paths = (
{
closed = 1;
nodes = (
"237 0 LINE",
"237 -70 LINE",
"282 -70 LINE",
"282 0 LINE",
"315 0 LINE SMOOTH",
"440 0 OFFCURVE",
"521 73 OFFCURVE",
"521 199 CURVE SMOOTH",
"521 305 OFFCURVE",
"447 371 OFFCURVE",
"392 385 CURVE",
"392 393 LINE",
"440 408 OFFCURVE",
"495 453 OFFCURVE",
"495 540 CURVE SMOOTH",
"495 635 OFFCURVE",
"425.99 700 OFFCURVE",
"321 700 CURVE SMOOTH",
"282 700 LINE",
"282 782 LINE",
"237 782 LINE",
"237 700 LINE",
"37 700 LINE",
"37 0 LINE"
);
},
{
closed = 1;
nodes = (
"227 280 LINE",
"271 280 LINE SMOOTH",
"301 280 OFFCURVE",
"321 262 OFFCURVE",
"321 226 CURVE SMOOTH",
"321 194 OFFCURVE",
"295 172 OFFCURVE",
"271 172 CURVE SMOOTH",
"227 172 LINE"
);
},
{
closed = 1;
nodes = (
"227 537 LINE",
"264 537 LINE SMOOTH",
"289 537 OFFCURVE",
"310 517 OFFCURVE",
"310 484 CURVE SMOOTH",
"310 450 OFFCURVE",
"289 427 OFFCURVE",
"264 427 CURVE SMOOTH",
"227 427 LINE"
);
}
);
width = 523.80952;
}
);
leftKerningGroup = H;
rightKerningGroup = B;
unicode = 0E3F;
},
{
glyphname = at;
lastChange = "2022-09-03 19:03:39 +0000";
layers = (
{
hints = (
{
horizontal = 1;
origin = "{0, 45}";
target = "{0, 9}";
type = Stem;
},
{
horizontal = 1;
origin = "{0, 32}";
target = "{0, 23}";
type = Stem;
},
{
origin = "{0, 35}";
target = "{0, 19}";
type = Stem;
}
);
layerId = "29C4A576-5D06-4D79-A0A1-2A812E5B89FB";
paths = (
{
closed = 1;
nodes = (
"311 185 LINE",
"296 73 LINE",
"177 73 LINE",
"177 80 LINE",
"269 548 LINE",
"455 548 LINE",
"533 140 LINE SMOOTH",
"538 113 OFFCURVE",
"546 99 OFFCURVE",
"562 99 CURVE SMOOTH",
"577 99 OFFCURVE",
"582 116 OFFCURVE",
"582 142 CURVE SMOOTH",
"582 386 LINE SMOOTH",
"582 539 OFFCURVE",
"515 612 OFFCURVE",
"362 612 CURVE SMOOTH",
"209 612 OFFCURVE",
"142 539 OFFCURVE",
"142 386 CURVE SMOOTH",
"142 189 LINE SMOOTH",
"142 41 OFFCURVE",
"209 -6 OFFCURVE",
"334 -6 CURVE SMOOTH",
"378 -6 OFFCURVE",
"424 0 OFFCURVE",
"448 14 CURVE",
"458 11 LINE",
"458 -86 LINE",
"434 -101 OFFCURVE",
"385 -106 OFFCURVE",
"334 -106 CURVE SMOOTH",
"166 -106 OFFCURVE",
"35 -32 OFFCURVE",
"35 184 CURVE SMOOTH",
"35 391 LINE SMOOTH",
"35 612 OFFCURVE",
"166 712 OFFCURVE",
"362 712 CURVE SMOOTH",
"558 712 OFFCURVE",
"689 612 OFFCURVE",
"689 391 CURVE SMOOTH",
"689 184 LINE SMOOTH",
"689 81 OFFCURVE",
"671 -1 OFFCURVE",
"564 -1 CURVE SMOOTH",
"478 -1 OFFCURVE",
"431 47 OFFCURVE",
"420 133 CURVE SMOOTH",
"413 185 LINE"
);
},
{
closed = 1;
nodes = (
"400 283 LINE",
"382 422 LINE",
"342 422 LINE",
"324 283 LINE"
);
}
);
width = 724;
},
{
layerId = "AAC1BB4D-C727-4C18-8F18-05769E5A021D";
paths = (
{
closed = 1;
nodes = (
"291 212 LINE",
"259 73 LINE",
"202 73 LINE",
"202 80 LINE",
"318 548 LINE",
"456 548 LINE",
"558 140 LINE SMOOTH",
"573 79 OFFCURVE",
"590 58 OFFCURVE",
"621 58 CURVE SMOOTH",
"647 58 OFFCURVE",
"666 89 OFFCURVE",
"666 149 CURVE SMOOTH",
"666 378 LINE SMOOTH",
"666 564 OFFCURVE",
"573 666 OFFCURVE",
"387 666 CURVE SMOOTH",
"201 666 OFFCURVE",
"108 566 OFFCURVE",
"108 390 CURVE SMOOTH",
"108 204 LINE SMOOTH",
"108 37 OFFCURVE",
"201 -45 OFFCURVE",
"376 -45 CURVE SMOOTH",
"467 -45 OFFCURVE",
"511 -20 OFFCURVE",
"538 -4 CURVE",
"546 -7 LINE",
"546 -51 LINE",
"526 -67 OFFCURVE",
"476 -91 OFFCURVE",
"382 -91 CURVE SMOOTH",
"191 -91 OFFCURVE",
"60 -6 OFFCURVE",
"60 204 CURVE SMOOTH",
"60 391 LINE SMOOTH",
"60 601 OFFCURVE",
"191 712 OFFCURVE",
"387 712 CURVE SMOOTH",
"583 712 OFFCURVE",
"714 602 OFFCURVE",
"714 381 CURVE SMOOTH",
"714 149 LINE SMOOTH",
"714 81 OFFCURVE",
"693 10 OFFCURVE",
"620 10 CURVE SMOOTH",
"563 10 OFFCURVE",
"530 49 OFFCURVE",
"509 133 CURVE SMOOTH",
"488 212 LINE"
);
},
{
closed = 1;
nodes = (
"477 258 LINE",
"416 501 LINE",
"358 501 LINE",
"302 258 LINE"
);
}
);
width = 774;
},
{
hints = (
{
horizontal = 1;
origin = "{0, 45}";
target = "{0, 9}";
type = Stem;
},
{
horizontal = 1;
origin = "{0, 32}";
target = "{0, 23}";
type = Stem;
},
{
origin = "{0, 35}";
target = "{0, 19}";
type = Stem;
}
);
layerId = "58CA432C-E1D8-4E0E-9662-6D1D9C8D1884";
paths = (
{
closed = 1;
nodes = (
"317 177 LINE",
"307 73 LINE",
"169 73 LINE",
"169 80 LINE",
"254 548 LINE",
"455 548 LINE",
"525 140 LINE SMOOTH",
"527 123 OFFCURVE",
"533 111 OFFCURVE",
"544 111 CURVE SMOOTH",
"556 111 OFFCURVE",
"556 124 OFFCURVE",
"556 140 CURVE SMOOTH",
"556 388 LINE SMOOTH",
"556 531 OFFCURVE",
"497 596 OFFCURVE",
"354 596 CURVE SMOOTH",
"211 596 OFFCURVE",
"152 531 OFFCURVE",
"152 385 CURVE SMOOTH",
"152 184 LINE SMOOTH",
"152 42 OFFCURVE",
"211 6 OFFCURVE",
"321 6 CURVE SMOOTH",
"351 6 OFFCURVE",
"397 6 OFFCURVE",
"421 19 CURVE",
"431 16 LINE",
"431 -97 LINE",
"406 -111 OFFCURVE",
"357 -111 OFFCURVE",
"319 -111 CURVE SMOOTH",
"158 -111 OFFCURVE",
"27 -40 OFFCURVE",
"27 178 CURVE SMOOTH",
"27 391 LINE SMOOTH",
"27 615 OFFCURVE",
"158 712 OFFCURVE",
"354 712 CURVE SMOOTH",
"550 712 OFFCURVE",
"681 615 OFFCURVE",
"681 394 CURVE SMOOTH",
"681 195 LINE SMOOTH",
"681 81 OFFCURVE",
"664 -4 OFFCURVE",
"547 -4 CURVE SMOOTH",
"452 -4 OFFCURVE",
"401 46 OFFCURVE",
"393 133 CURVE SMOOTH",
"390 177 LINE"
);
},
{
closed = 1;
nodes = (
"377 291 LINE",
"372 398 LINE",
"337 398 LINE",
"331 291 LINE"
);
}
);
width = 708.7619;
}
);
unicode = 0040;
},
{
glyphname = ampersand;
lastChange = "2022-09-03 19:03:39 +0000";
layers = (
{
hints = (
{
origin = "{0, 3}";
target = "{0, 5}";
type = Stem;
},
{
horizontal = 1;
origin = "{0, 30}";
target = "{0, 39}";
type = Stem;
},
{
origin = "{0, 27}";
target = "{0, 42}";
type = Stem;
},
{
origin = "{0, 18}";
target = "{1, 2}";
type = Stem;
},
{
origin = "{1, 8}";
target = "{0, 12}";
type = Stem;
}
);
layerId = "29C4A576-5D06-4D79-A0A1-2A812E5B89FB";
paths = (
{
closed = 1;
nodes = (
"326 156 LINE SMOOTH",
"447 25 OFFCURVE",
"482 0 OFFCURVE",
"584 0 CURVE",
"584 136 LINE",
"576 142 LINE",
"528 142 OFFCURVE",
"475 200 OFFCURVE",
"414 268 CURVE SMOOTH",
"340 350 LINE",
"443 427 OFFCURVE",
"487 463 OFFCURVE",
"487 547 CURVE SMOOTH",
"487 644 OFFCURVE",
"404 712 OFFCURVE",
"276 712 CURVE SMOOTH",
"142 712 OFFCURVE",
"54 632 OFFCURVE",
"54 528 CURVE SMOOTH",
"54 463 OFFCURVE",
"90 415 OFFCURVE",
"148 350 CURVE",
"143 347 OFFCURVE",
"138 344 OFFCURVE",
"133 340 CURVE SMOOTH",
"83 306 OFFCURVE",
"15 265 OFFCURVE",
"15 164 CURVE SMOOTH",
"15 61 OFFCURVE",
"100 -11 OFFCURVE",
"229 -11 CURVE SMOOTH",
"510 -11 OFFCURVE",
"583 240 OFFCURVE",
"583 417 CURVE",
"583 443 LINE",
"442 443 LINE",
"442 387 LINE SMOOTH",
"442 244 OFFCURVE",
"356 115 OFFCURVE",
"261 115 CURVE SMOOTH",
"208 115 OFFCURVE",
"179 147 OFFCURVE",
"179 186 CURVE SMOOTH",
"179 216 OFFCURVE",
"196 239 OFFCURVE",
"226 265 CURVE"
);
},
{
closed = 1;
nodes = (
"232 472 OFFCURVE",
"210 498 OFFCURVE",
"210 524 CURVE SMOOTH",
"210 555 OFFCURVE",
"236 578 OFFCURVE",
"271 578 CURVE SMOOTH",
"306 578 OFFCURVE",
"331 551 OFFCURVE",
"331 524 CURVE SMOOTH",
"331 494 OFFCURVE",
"312 461 OFFCURVE",
"267 432 CURVE"
);
}
);
width = 604;
},
{
layerId = "AAC1BB4D-C727-4C18-8F18-05769E5A021D";
paths = (
{
closed = 1;
nodes = (
"430 78 LINE SMOOTH",
"477 20 OFFCURVE",
"508 0 OFFCURVE",
"564 0 CURVE",
"564 50 LINE",
"557 55 LINE",
"529 55 OFFCURVE",
"509 63 OFFCURVE",
"457 126 CURVE SMOOTH",
"273 349 LINE",
"363 403 OFFCURVE",
"437 449 OFFCURVE",
"437 571 CURVE SMOOTH",
"437 650 OFFCURVE",
"375 712 OFFCURVE",
"273 712 CURVE SMOOTH",
"178 712 OFFCURVE",
"104 657 OFFCURVE",
"104 556 CURVE SMOOTH",
"104 489 OFFCURVE",
"133 447 OFFCURVE",
"200 363 CURVE",
"195 360 OFFCURVE",
"166 341 OFFCURVE",
"161 337 CURVE SMOOTH",
"94 291 OFFCURVE",
"45 246 OFFCURVE",
"45 162 CURVE SMOOTH",
"45 61 OFFCURVE",
"125 -11 OFFCURVE",
"248 -11 CURVE SMOOTH",
"490 -11 OFFCURVE",
"523 211 OFFCURVE",
"523 388 CURVE",
"523 443 LINE",
"470 443 LINE",
"470 351 LINE SMOOTH",
"470 131 OFFCURVE",
"373 37 OFFCURVE",
"254 37 CURVE SMOOTH",
"159 37 OFFCURVE",
"99 91 OFFCURVE",
"99 160 CURVE SMOOTH",
"99 215 OFFCURVE",
"124 249 OFFCURVE",
"231 324 CURVE"
);
},
{
closed = 1;
nodes = (
"174 469 OFFCURVE",
"156 514 OFFCURVE",
"156 559 CURVE SMOOTH",
"156 628 OFFCURVE",
"209 664 OFFCURVE",
"279 664 CURVE SMOOTH",
"344 664 OFFCURVE",
"385 621 OFFCURVE",
"385 567 CURVE SMOOTH",
"385 465 OFFCURVE",
"320 434 OFFCURVE",
"241 387 CURVE"
);
}
);
width = 604;
},
{
hints = (
{
origin = "{0, 3}";
target = "{0, 5}";
type = Stem;
},
{
horizontal = 1;
origin = "{0, 30}";
target = "{0, 39}";
type = Stem;
},
{
origin = "{0, 27}";
target = "{0, 42}";
type = Stem;
},
{
origin = "{0, 18}";
target = "{1, 2}";
type = Stem;
},
{
origin = "{1, 8}";
target = "{0, 12}";
type = Stem;
}
);
layerId = "58CA432C-E1D8-4E0E-9662-6D1D9C8D1884";
paths = (
{
closed = 1;
nodes = (
"294 180 LINE SMOOTH",
"438 27 OFFCURVE",
"474 0 OFFCURVE",
"590 0 CURVE",
"590 162 LINE",
"582 169 LINE",
"528 169 OFFCURVE",
"465 242 OFFCURVE",
"401 311 CURVE SMOOTH",
"360 350 LINE",
"467 434 OFFCURVE",
"502 467 OFFCURVE",
"502 540 CURVE SMOOTH",
"502 642 OFFCURVE",
"413 712 OFFCURVE",
"277 712 CURVE SMOOTH",
"131 712 OFFCURVE",
"39 624 OFFCURVE",
"39 519 CURVE SMOOTH",
"39 455 OFFCURVE",
"77 405 OFFCURVE",
"132 346 CURVE",
"127 343 OFFCURVE",
"129 345 OFFCURVE",
"124 341 CURVE SMOOTH",
"80 311 OFFCURVE",
"6 271 OFFCURVE",
"6 165 CURVE SMOOTH",
"6 61 OFFCURVE",
"92 -11 OFFCURVE",
"223 -11 CURVE SMOOTH",
"516 -11 OFFCURVE",
"601 249 OFFCURVE",
"601 426 CURVE",
"601 443 LINE",
"433 443 LINE",
"433 398 LINE SMOOTH",
"433 278 OFFCURVE",
"351 139 OFFCURVE",
"263 139 CURVE SMOOTH",
"223 139 OFFCURVE",
"203 164 OFFCURVE",
"203 194 CURVE SMOOTH",
"203 216 OFFCURVE",
"218 236 OFFCURVE",
"224 247 CURVE"
);
},
{
closed = 1;
nodes = (
"250 473 OFFCURVE",
"226 493 OFFCURVE",
"226 513 CURVE SMOOTH",
"226 533 OFFCURVE",
"244 552 OFFCURVE",
"269 552 CURVE SMOOTH",
"294 552 OFFCURVE",
"315 530 OFFCURVE",
"315 511 CURVE SMOOTH",
"315 503 OFFCURVE",
"310 469 OFFCURVE",
"275 446 CURVE"
);
}
);
width = 604;
}
);
leftKerningGroup = S;
rightKerningGroup = S;
unicode = 0026;
},
{
glyphname = paragraph;
lastChange = "2022-09-03 19:03:39 +0000";
layers = (
{
layerId = "29C4A576-5D06-4D79-A0A1-2A812E5B89FB";
paths = (
{
closed = 1;
nodes = (
"246 700 LINE",
"167 700 LINE SMOOTH",
"77 700 OFFCURVE",
"10 648 OFFCURVE",
"10 530 CURVE SMOOTH",
"10 415 OFFCURVE",
"86 354 OFFCURVE",
"167 354 CURVE SMOOTH",
"198 354 LINE",
"198 0 LINE",
"246 0 LINE"
);
},
{
closed = 1;
nodes = (
"286 0 LINE",
"334 0 LINE",
"334 700 LINE",
"286 700 LINE"
);
}
);
width = 369;
},
{
layerId = "AAC1BB4D-C727-4C18-8F18-05769E5A021D";
paths = (
{
closed = 1;
nodes = (
"206 700 LINE",
"152 700 LINE SMOOTH",
"89 700 OFFCURVE",
"42 664 OFFCURVE",
"42 581 CURVE SMOOTH",
"42 500 OFFCURVE",
"96 458 OFFCURVE",
"152 458 CURVE SMOOTH",
"174 458 LINE",
"174 0 LINE",
"206 0 LINE"
);
},
{
closed = 1;
nodes = (
"246 0 LINE",
"278 0 LINE",
"278 700 LINE",
"246 700 LINE"
);
}
);
width = 349;
},
{
layerId = "58CA432C-E1D8-4E0E-9662-6D1D9C8D1884";
paths = (
{
closed = 1;
nodes = (
"258 700 LINE",
"172 700 LINE SMOOTH",
"73 700 OFFCURVE",
"0 643 OFFCURVE",
"0 514 CURVE SMOOTH",
"0 389 OFFCURVE",
"83 322 OFFCURVE",
"172 322 CURVE SMOOTH",
"205 322 LINE",
"205 0 LINE",
"258 0 LINE"
);
},
{
closed = 1;
nodes = (
"298 0 LINE",
"351 0 LINE",
"351 700 LINE",
"298 700 LINE"
);
}
);
width = 375.09524;
}
);
leftKerningGroup = P;
rightKerningGroup = H;
unicode = 00B6;
},
{
glyphname = section;
lastChange = "2022-11-02 06:53:56 +0000";
layers = (
{
hints = (
{
place = "{18.206, 109.114}";
type = Stem;
},
{
place = "{198.715, 109.114}";
type = Stem;
},
{
horizontal = 1;
place = "{480.888, 98.337}";
type = Stem;
},
{
horizontal = 1;
place = "{-6.082, 98.337}";
type = Stem;
},
{
place = "{45.206, 109.114}";
type = Stem;
},
{
place = "{225.715, 109.114}";
type = Stem;
},
{
horizontal = 1;
place = "{711.888, 98.337}";
type = Stem;
},
{
horizontal = 1;
place = "{224.918, 98.337}";
type = Stem;
}
);
layerId = "29C4A576-5D06-4D79-A0A1-2A812E5B89FB";
paths = (
{
closed = 1;
nodes = (
"45 663 OFFCURVE",
"107 712 OFFCURVE",
"184 712 CURVE SMOOTH",
"241 712 OFFCURVE",
"285 686 OFFCURVE",
"306 667 CURVE",
"306 563 LINE",
"299 563 LINE",
"288 576 OFFCURVE",
"231 614 OFFCURVE",
"193 614 CURVE SMOOTH",
"172 614 OFFCURVE",
"154 602 OFFCURVE",
"154 581 CURVE SMOOTH",
"154 558 OFFCURVE",
"177 544 OFFCURVE",
"212 522 CURVE SMOOTH",
"241 504 LINE SMOOTH",
"306 464 OFFCURVE",
"335 426 OFFCURVE",
"335 362 CURVE SMOOTH",
"335 302 OFFCURVE",
"307 260 OFFCURVE",
"263 239 CURVE",
"263 236 LINE",
"296 203 OFFCURVE",
"308 172 OFFCURVE",
"308 131 CURVE SMOOTH",
"308 44 OFFCURVE",
"249 -6 OFFCURVE",
"166 -6 CURVE SMOOTH",
"102 -6 OFFCURVE",
"47 23 OFFCURVE",
"28 38 CURVE",
"28 143 LINE",
"35 143 LINE",
"64 116 OFFCURVE",
"117 92 OFFCURVE",
"152 92 CURVE SMOOTH",
"179 92 OFFCURVE",
"199 106 OFFCURVE",
"199 128 CURVE SMOOTH",
"199 151 OFFCURVE",
"185 162 OFFCURVE",
"153 180 CURVE SMOOTH",
"106 207 LINE SMOOTH",
"64 231 OFFCURVE",
"18 271 OFFCURVE",
"18 347 CURVE SMOOTH",
"18 408 OFFCURVE",
"46 453 OFFCURVE",
"87 472 CURVE",
"87 474 LINE",
"61 496 OFFCURVE",
"45 528 OFFCURVE",
"45 573 CURVE SMOOTH"
);
},
{
closed = 1;
nodes = (
"188 397 OFFCURVE",
"176 405 OFFCURVE",
"156 404 CURVE SMOOTH",
"135 403 OFFCURVE",
"120 388 OFFCURVE",
"120 364 CURVE SMOOTH",
"120 341 OFFCURVE",
"131 328 OFFCURVE",
"143 317 CURVE SMOOTH",
"160 302 OFFCURVE",
"175 294 OFFCURVE",
"188 294 CURVE SMOOTH",
"209 294 OFFCURVE",
"226 307 OFFCURVE",
"226 332 CURVE SMOOTH",
"226 355 OFFCURVE",
"217 371 OFFCURVE",
"201 385 CURVE SMOOTH"
);
}
);
width = 353;
},
{
layerId = "AAC1BB4D-C727-4C18-8F18-05769E5A021D";
paths = (
{
closed = 1;
nodes = (
"73 676 OFFCURVE",
"133 712 OFFCURVE",
"211 712 CURVE SMOOTH",
"281 712 OFFCURVE",
"316 684 OFFCURVE",
"333 669 CURVE",
"333 634 LINE",
"326 634 LINE",
"312 651 OFFCURVE",
"263 680 OFFCURVE",
"205 680 CURVE SMOOTH",
"152 680 OFFCURVE",
"108 653 OFFCURVE",
"108 607 CURVE SMOOTH",
"108 566 OFFCURVE",
"140 539 OFFCURVE",
"179 516 CURVE SMOOTH",
"264 466 LINE SMOOTH",
"320 433 OFFCURVE",
"362 401 OFFCURVE",
"362 342 CURVE SMOOTH",
"362 276 OFFCURVE",
"319 236 OFFCURVE",
"258 227 CURVE",
"258 225 LINE",
"305 195 OFFCURVE",
"335 167 OFFCURVE",
"335 118 CURVE SMOOTH",
"335 44 OFFCURVE",
"287 -6 OFFCURVE",
"198 -6 CURVE SMOOTH",
"126 -6 OFFCURVE",
"75 23 OFFCURVE",
"56 38 CURVE",
"56 73 LINE",
"62 73 LINE",
"89 50 OFFCURVE",
"143 26 OFFCURVE",
"198 26 CURVE SMOOTH",
"250 26 OFFCURVE",
"300 55 OFFCURVE",
"300 110 CURVE SMOOTH",
"300 150 OFFCURVE",
"280 173 OFFCURVE",
"211 212 CURVE SMOOTH",
"151 246 LINE SMOOTH",
"100 275 OFFCURVE",
"46 310 OFFCURVE",
"46 374 CURVE SMOOTH",
"46 444 OFFCURVE",
"104 480 OFFCURVE",
"174 477 CURVE",
"174 479 LINE",
"136 500 OFFCURVE",
"73 532 OFFCURVE",
"73 605 CURVE SMOOTH"
);
},
{
closed = 1;
nodes = (
"251 441 OFFCURVE",
"225 449 OFFCURVE",
"178 449 CURVE SMOOTH",
"125 449 OFFCURVE",
"81 422 OFFCURVE",
"81 376 CURVE SMOOTH",
"81 336 OFFCURVE",
"107 316 OFFCURVE",
"136 296 CURVE SMOOTH",
"175 270 OFFCURVE",
"198 257 OFFCURVE",
"225 257 CURVE SMOOTH",
"277 257 OFFCURVE",
"327 279 OFFCURVE",
"327 334 CURVE SMOOTH",
"327 374 OFFCURVE",
"307 393 OFFCURVE",
"295 404 CURVE"
);
}
);
width = 408;
},
{
hints = (
{
place = "{24, 142}";
type = Stem;
},
{
place = "{259, 142}";
type = Stem;
},
{
horizontal = 1;
place = "{627, 128}";
type = Stem;
},
{
horizontal = 1;
place = "{-8, 128}";
type = Stem;
},
{
place = "{59, 142}";
type = Stem;
},
{
place = "{295, 142}";
type = Stem;
},
{
horizontal = 1;
place = "{929, 128}";
type = Stem;
},
{
horizontal = 1;
place = "{293, 128}";
type = Stem;
}
);
layerId = "58CA432C-E1D8-4E0E-9662-6D1D9C8D1884";
paths = (
{
closed = 1;
nodes = (
"36 659 OFFCURVE",
"99 712 OFFCURVE",
"176 712 CURVE SMOOTH",
"229 712 OFFCURVE",
"276 687 OFFCURVE",
"298 666 CURVE",
"298 541 LINE",
"291 541 LINE",
"281 553 OFFCURVE",
"221 594 OFFCURVE",
"189 594 CURVE SMOOTH",
"178 594 OFFCURVE",
"168 586 OFFCURVE",
"168 573 CURVE SMOOTH",
"168 556 OFFCURVE",
"188 546 OFFCURVE",
"222 524 CURVE SMOOTH",
"234 516 LINE SMOOTH",
"301 471 OFFCURVE",
"327 434 OFFCURVE",
"327 368 CURVE SMOOTH",
"327 310 OFFCURVE",
"302 268 OFFCURVE",
"263 244 CURVE",
"263 242 LINE",
"294 205 OFFCURVE",
"303 178 OFFCURVE",
"303 138 CURVE SMOOTH",
"303 47 OFFCURVE",
"237 -6 OFFCURVE",
"156 -6 CURVE SMOOTH",
"95 -6 OFFCURVE",
"38 23 OFFCURVE",
"19 38 CURVE",
"19 164 LINE",
"27 164 LINE",
"56 136 OFFCURVE",
"109 112 OFFCURVE",
"138 112 CURVE SMOOTH",
"157 112 OFFCURVE",
"168 122 OFFCURVE",
"168 133 CURVE SMOOTH",
"168 151 OFFCURVE",
"155 158 OFFCURVE",
"135 170 CURVE SMOOTH",
"92 195 LINE SMOOTH",
"53 218 OFFCURVE",
"9 259 OFFCURVE",
"9 339 CURVE SMOOTH",
"9 397 OFFCURVE",
"34 445 OFFCURVE",
"82 469 CURVE",
"82 471 LINE",
"62 486 OFFCURVE",
"36 527 OFFCURVE",
"36 570 CURVE SMOOTH"
);
},
{
closed = 1;
nodes = (
"181 395 OFFCURVE",
"170 403 OFFCURVE",
"152 402 CURVE SMOOTH",
"133 401 OFFCURVE",
"119 387 OFFCURVE",
"119 366 CURVE SMOOTH",
"119 345 OFFCURVE",
"129 333 OFFCURVE",
"140 323 CURVE SMOOTH",
"155 310 OFFCURVE",
"170 302 OFFCURVE",
"184 302 CURVE SMOOTH",
"200 302 OFFCURVE",
"215 314 OFFCURVE",
"215 337 CURVE SMOOTH",
"215 357 OFFCURVE",
"207 372 OFFCURVE",
"192 385 CURVE SMOOTH"
);
}
);
width = 336.2381;
}
);
leftKerningGroup = S;
rightKerningGroup = S;
unicode = 00A7;
},
{
glyphname = copyright;
lastChange = "2022-09-03 19:03:39 +0000";
layers = (
{
anchors = (
{
name = bottom;
position = "{293, 92}";
},
{
name = top;
position = "{293, 606}";
}
);
hints = (
{
horizontal = 1;
origin = "{2, 20}";
target = "{2, 21}";
type = Stem;
},
{
horizontal = 1;
place = "{83.922, 110.154}";
type = Stem;
},
{
origin = "{2, 27}";
target = "{2, 0}";
type = Stem;
},
{
origin = "{2, 27}";
target = "{2, 13}";
type = Stem;
}
);
layerId = "29C4A576-5D06-4D79-A0A1-2A812E5B89FB";
paths = (
{
closed = 1;
nodes = (
"30 97 OFFCURVE",
"181 -12 OFFCURVE",
"340 -12 CURVE SMOOTH",
"499 -12 OFFCURVE",
"650 97 OFFCURVE",
"650 350 CURVE SMOOTH",
"650 603 OFFCURVE",
"499 712 OFFCURVE",
"340 712 CURVE SMOOTH",
"181 712 OFFCURVE",
"30 603 OFFCURVE",
"30 350 CURVE SMOOTH"
);
},
{
closed = 1;
nodes = (
"66 570 OFFCURVE",
"195 676 OFFCURVE",
"339 676 CURVE SMOOTH",
"479 676 OFFCURVE",
"614 574 OFFCURVE",
"614 350 CURVE SMOOTH",
"614 126 OFFCURVE",
"482 24 OFFCURVE",
"339 24 CURVE SMOOTH",
"195 24 OFFCURVE",
"66 126 OFFCURVE",
"66 350 CURVE SMOOTH"
);
},
{
closed = 1;
nodes = (
"126 167 OFFCURVE",
"233 84 OFFCURVE",
"347 84 CURVE SMOOTH",
"402 84 OFFCURVE",
"437 105 OFFCURVE",
"453 118 CURVE",
"453 232 LINE",
"446 232 LINE",
"433 218 OFFCURVE",
"402 194 OFFCURVE",
"367 194 CURVE SMOOTH",
"295 194 OFFCURVE",
"246 246 OFFCURVE",
"246 349 CURVE SMOOTH",
"246 452 OFFCURVE",
"295 504 OFFCURVE",
"367 504 CURVE SMOOTH",
"402 504 OFFCURVE",
"433 480 OFFCURVE",
"446 466 CURVE",
"453 466 LINE",
"453 580 LINE",
"437 593 OFFCURVE",
"402 614 OFFCURVE",
"347 614 CURVE SMOOTH",
"233 614 OFFCURVE",
"126 531 OFFCURVE",
"126 349 CURVE SMOOTH"
);
}
);
width = 680;
},
{
anchors = (
{
name = bottom;
position = "{311, 91}";
},
{
name = top;
position = "{311, 607}";
}
);
layerId = "AAC1BB4D-C727-4C18-8F18-05769E5A021D";
paths = (
{
closed = 1;
nodes = (
"42 99 OFFCURVE",
"195 -12 OFFCURVE",
"352 -12 CURVE SMOOTH",
"509 -12 OFFCURVE",
"662 99 OFFCURVE",
"662 350 CURVE SMOOTH",
"662 601 OFFCURVE",
"509 712 OFFCURVE",
"352 712 CURVE SMOOTH",
"195 712 OFFCURVE",
"42 601 OFFCURVE",
"42 350 CURVE SMOOTH"
);
},
{
closed = 1;
nodes = (
"66 577 OFFCURVE",
"202 689 OFFCURVE",
"351 689 CURVE SMOOTH",
"495 689 OFFCURVE",
"638 581 OFFCURVE",
"638 350 CURVE SMOOTH",
"638 119 OFFCURVE",
"497 11 OFFCURVE",
"351 11 CURVE SMOOTH",
"202 11 OFFCURVE",
"66 119 OFFCURVE",
"66 350 CURVE SMOOTH"
);
},
{
closed = 1;
nodes = (
"142 168 OFFCURVE",
"246 84 OFFCURVE",
"353 84 CURVE SMOOTH",
"410 84 OFFCURVE",
"445 101 OFFCURVE",
"462 117 CURVE",
"462 165 LINE",
"452 165 LINE",
"433 147 OFFCURVE",
"401 132 OFFCURVE",
"352 132 CURVE SMOOTH",
"267 132 OFFCURVE",
"194 208 OFFCURVE",
"194 349 CURVE SMOOTH",
"194 490 OFFCURVE",
"268 566 OFFCURVE",
"352 566 CURVE SMOOTH",
"402 566 OFFCURVE",
"433 553 OFFCURVE",
"452 533 CURVE",
"462 533 LINE",
"462 581 LINE",
"445 597 OFFCURVE",
"410 614 OFFCURVE",
"355 614 CURVE SMOOTH",
"252 614 OFFCURVE",
"142 530 OFFCURVE",
"142 349 CURVE SMOOTH"
);
}
);
width = 704;
},
{
anchors = (
{
name = bottom;
position = "{288, 92}";
},
{
name = top;
position = "{288, 606}";
}
);
hints = (
{
horizontal = 1;
origin = "{2, 20}";
target = "{2, 21}";
type = Stem;
},
{
horizontal = 1;
place = "{109, 144}";
type = Stem;
},
{
origin = "{2, 27}";
target = "{2, 0}";
type = Stem;
},
{
origin = "{2, 27}";
target = "{2, 13}";
type = Stem;
}
);
layerId = "58CA432C-E1D8-4E0E-9662-6D1D9C8D1884";
paths = (
{
closed = 1;
nodes = (
"26 96 OFFCURVE",
"177 -12 OFFCURVE",
"336 -12 CURVE SMOOTH",
"496 -12 OFFCURVE",
"646 96 OFFCURVE",
"646 350 CURVE SMOOTH",
"646 604 OFFCURVE",
"496 712 OFFCURVE",
"336 712 CURVE SMOOTH",
"177 712 OFFCURVE",
"26 604 OFFCURVE",
"26 350 CURVE SMOOTH"
);
},
{
closed = 1;
nodes = (
"66 568 OFFCURVE",
"193 672 OFFCURVE",
"335 672 CURVE SMOOTH",
"474 672 OFFCURVE",
"607 572 OFFCURVE",
"607 350 CURVE SMOOTH",
"607 128 OFFCURVE",
"477 28 OFFCURVE",
"335 28 CURVE SMOOTH",
"193 28 OFFCURVE",
"66 128 OFFCURVE",
"66 350 CURVE SMOOTH"
);
},
{
closed = 1;
nodes = (
"121 167 OFFCURVE",
"229 84 OFFCURVE",
"345 84 CURVE SMOOTH",
"400 84 OFFCURVE",
"435 106 OFFCURVE",
"450 118 CURVE",
"450 252 LINE",
"444 252 LINE",
"433 240 OFFCURVE",
"402 213 OFFCURVE",
"372 213 CURVE SMOOTH",
"304 213 OFFCURVE",
"262 258 OFFCURVE",
"262 349 CURVE SMOOTH",
"262 440 OFFCURVE",
"303 485 OFFCURVE",
"372 485 CURVE SMOOTH",
"402 485 OFFCURVE",
"433 458 OFFCURVE",
"444 446 CURVE",
"450 446 LINE",
"450 580 LINE",
"435 592 OFFCURVE",
"400 614 OFFCURVE",
"345 614 CURVE SMOOTH",
"227 614 OFFCURVE",
"121 531 OFFCURVE",
"121 349 CURVE SMOOTH"
);
}
);
width = 672.68571;
}
);
leftKerningGroup = O;
rightKerningGroup = O;
unicode = 00A9;
},
{
glyphname = registered;
lastChange = "2022-09-03 19:03:39 +0000";
layers = (
{
anchors = (
{
name = bottom;
position = "{193.134, 423}";
},
{
name = top;
position = "{193.134, 630.063}";
}
);
hints = (
{
horizontal = 1;
origin = "{3, 2}";
target = "{4, 7}";
type = Stem;
},
{
horizontal = 1;
origin = "{3, 8}";
target = "{4, 1}";
type = Stem;
},
{
origin = "{5, 0}";
target = "{5, 1}";
type = Stem;
},
{
origin = "{2, 0}";
target = "{2, 1}";
type = Stem;
}
);
layerId = "29C4A576-5D06-4D79-A0A1-2A812E5B89FB";
paths = (
{
closed = 1;
nodes = (
"300 344 OFFCURVE",
"374 424 OFFCURVE",
"374 524 CURVE SMOOTH",
"374 624 OFFCURVE",
"300 705 OFFCURVE",
"195 705 CURVE SMOOTH",
"86 705 OFFCURVE",
"15 624 OFFCURVE",
"15 524 CURVE SMOOTH",
"15 424 OFFCURVE",
"86 344 OFFCURVE",
"195 344 CURVE SMOOTH"
);
},
{
closed = 1;
nodes = (
"107 380 OFFCURVE",
"51 442 OFFCURVE",
"51 524 CURVE SMOOTH",
"51 605 OFFCURVE",
"107 669 OFFCURVE",
"195 669 CURVE SMOOTH",
"278 669 OFFCURVE",
"339 605 OFFCURVE",
"339 524 CURVE SMOOTH",
"339 442 OFFCURVE",
"278 380 OFFCURVE",
"195 380 CURVE SMOOTH"
);
},
{
closed = 1;
nodes = (
"131 423 LINE",
"179 423 LINE",
"179 630 LINE",
"132 630 LINE"
);
},
{
closed = 1;
nodes = (
"155 630 LINE",
"155 507 LINE",
"209 507 LINE",
"240 507 OFFCURVE",
"270 529 OFFCURVE",
"270 570 CURVE SMOOTH",
"270 609 OFFCURVE",
"244 630 OFFCURVE",
"209 630 CURVE"
);
},
{
closed = 1;
nodes = (
"179 587 LINE",
"203 587 LINE SMOOTH",
"215 587 OFFCURVE",
"222 579 OFFCURVE",
"222 568 CURVE SMOOTH",
"222 557 OFFCURVE",
"215 547 OFFCURVE",
"203 547 CURVE SMOOTH",
"179 547 LINE"
);
},
{
closed = 1;
nodes = (
"222 423 LINE",
"270 423 LINE",
"270 427 LINE",
"233 527 LINE",
"188 527 LINE"
);
}
);
width = 389;
},
{
anchors = (
{
name = bottom;
position = "{219, 423}";
},
{
name = top;
position = "{219, 630}";
}
);
layerId = "AAC1BB4D-C727-4C18-8F18-05769E5A021D";
paths = (
{
closed = 1;
nodes = (
"325 344 OFFCURVE",
"399 424 OFFCURVE",
"399 524 CURVE SMOOTH",
"399 624 OFFCURVE",
"325 705 OFFCURVE",
"220 705 CURVE SMOOTH",
"111 705 OFFCURVE",
"40 624 OFFCURVE",
"40 524 CURVE SMOOTH",
"40 424 OFFCURVE",
"111 344 OFFCURVE",
"220 344 CURVE SMOOTH"
);
},
{
closed = 1;
nodes = (
"123 366 OFFCURVE",
"62 434 OFFCURVE",
"62 524 CURVE SMOOTH",
"62 613 OFFCURVE",
"123 683 OFFCURVE",
"220 683 CURVE SMOOTH",
"311 683 OFFCURVE",
"378 613 OFFCURVE",
"378 524 CURVE SMOOTH",
"378 434 OFFCURVE",
"311 366 OFFCURVE",
"220 366 CURVE SMOOTH"
);
},
{
closed = 1;
nodes = (
"151 415 LINE",
"183 415 LINE",
"183 638 LINE",
"152 638 LINE"
);
},
{
closed = 1;
nodes = (
"155 638 LINE",
"155 499 LINE",
"232 499 LINE SMOOTH",
"267 499 OFFCURVE",
"300 524 OFFCURVE",
"300 570 CURVE SMOOTH",
"300 614 OFFCURVE",
"271 638 OFFCURVE",
"232 638 CURVE SMOOTH"
);
},
{
closed = 1;
nodes = (
"180 608 LINE",
"232 608 LINE SMOOTH",
"253 608 OFFCURVE",
"268 596 OFFCURVE",
"268 569 CURVE SMOOTH",
"268 541 OFFCURVE",
"253 530 OFFCURVE",
"232 530 CURVE SMOOTH",
"180 530 LINE"
);
},
{
closed = 1;
nodes = (
"268 415 LINE",
"300 415 LINE",
"300 422 LINE",
"246 522 LINE",
"211 522 LINE"
);
}
);
width = 439;
},
{
anchors = (
{
name = bottom;
position = "{185, 423}";
},
{
name = top;
position = "{185, 630}";
}
);
hints = (
{
horizontal = 1;
origin = "{3, 2}";
target = "{4, 7}";
type = Stem;
},
{
horizontal = 1;
origin = "{3, 8}";
target = "{4, 1}";
type = Stem;
},
{
origin = "{5, 0}";
target = "{5, 1}";
type = Stem;
},
{
origin = "{2, 0}";
target = "{2, 1}";
type = Stem;
}
);
layerId = "58CA432C-E1D8-4E0E-9662-6D1D9C8D1884";
paths = (
{
closed = 1;
nodes = (
"292 344 OFFCURVE",
"366 424 OFFCURVE",
"366 524 CURVE SMOOTH",
"366 624 OFFCURVE",
"292 705 OFFCURVE",
"187 705 CURVE SMOOTH",
"78 705 OFFCURVE",
"7 624 OFFCURVE",
"7 524 CURVE SMOOTH",
"7 424 OFFCURVE",
"78 344 OFFCURVE",
"187 344 CURVE SMOOTH"
);
},
{
closed = 1;
nodes = (
"102 384 OFFCURVE",
"48 444 OFFCURVE",
"48 524 CURVE SMOOTH",
"48 603 OFFCURVE",
"102 665 OFFCURVE",
"187 665 CURVE SMOOTH",
"268 665 OFFCURVE",
"327 603 OFFCURVE",
"327 524 CURVE SMOOTH",
"327 444 OFFCURVE",
"268 384 OFFCURVE",
"187 384 CURVE SMOOTH"
);
},
{
closed = 1;
nodes = (
"125 425 LINE",
"178 425 LINE",
"178 628 LINE",
"126 628 LINE"
);
},
{
closed = 1;
nodes = (
"155 628 LINE",
"155 509 LINE",
"202 509 LINE SMOOTH",
"232 509 OFFCURVE",
"261 531 OFFCURVE",
"261 570 CURVE SMOOTH",
"261 607 OFFCURVE",
"236 628 OFFCURVE",
"202 628 CURVE SMOOTH"
);
},
{
closed = 1;
nodes = (
"179 581 LINE",
"194 581 LINE SMOOTH",
"203 581 OFFCURVE",
"208 574 OFFCURVE",
"208 568 CURVE SMOOTH",
"208 562 OFFCURVE",
"203 552 OFFCURVE",
"194 552 CURVE SMOOTH",
"179 552 LINE"
);
},
{
closed = 1;
nodes = (
"208 425 LINE",
"261 425 LINE",
"261 429 LINE",
"229 529 LINE",
"181 529 LINE"
);
}
);
width = 373.7619;
}
);
leftKerningGroup = O;
rightKerningGroup = O;
unicode = 00AE;
},
{
glyphname = degree;
lastChange = "2022-09-03 19:03:39 +0000";
layers = (
{
layerId = "29C4A576-5D06-4D79-A0A1-2A812E5B89FB";
paths = (
{
closed = 1;
nodes = (
"215 459 OFFCURVE",
"267 515 OFFCURVE",
"267 585 CURVE SMOOTH",
"267 655 OFFCURVE",
"215 712 OFFCURVE",
"141 712 CURVE SMOOTH",
"65 712 OFFCURVE",
"15 655 OFFCURVE",
"15 585 CURVE SMOOTH",
"15 515 OFFCURVE",
"65 459 OFFCURVE",
"141 459 CURVE SMOOTH"
);
},
{
closed = 1;
nodes = (
"96 511 OFFCURVE",
"67 543 OFFCURVE",
"67 585 CURVE SMOOTH",
"67 627 OFFCURVE",
"96 660 OFFCURVE",
"141 660 CURVE SMOOTH",
"184 660 OFFCURVE",
"215 627 OFFCURVE",
"215 585 CURVE SMOOTH",
"215 543 OFFCURVE",
"184 511 OFFCURVE",
"141 511 CURVE SMOOTH"
);
}
);
width = 282;
},
{
layerId = "AAC1BB4D-C727-4C18-8F18-05769E5A021D";
paths = (
{
closed = 1;
nodes = (
"203 500 OFFCURVE",
"247 547 OFFCURVE",
"247 606 CURVE SMOOTH",
"247 664 OFFCURVE",
"203 712 OFFCURVE",
"141 712 CURVE SMOOTH",
"77 712 OFFCURVE",
"35 664 OFFCURVE",
"35 606 CURVE SMOOTH",
"35 547 OFFCURVE",
"77 500 OFFCURVE",
"141 500 CURVE SMOOTH"
);
},
{
closed = 1;
nodes = (
"94 528 OFFCURVE",
"63 563 OFFCURVE",
"63 606 CURVE SMOOTH",
"63 649 OFFCURVE",
"94 684 OFFCURVE",
"141 684 CURVE SMOOTH",
"186 684 OFFCURVE",
"219 649 OFFCURVE",
"219 606 CURVE SMOOTH",
"219 563 OFFCURVE",
"186 528 OFFCURVE",
"141 528 CURVE SMOOTH"
);
}
);
width = 282;
},
{
layerId = "58CA432C-E1D8-4E0E-9662-6D1D9C8D1884";
paths = (
{
closed = 1;
nodes = (
"219 447 OFFCURVE",
"273 505 OFFCURVE",
"273 579 CURVE SMOOTH",
"273 652 OFFCURVE",
"219 712 OFFCURVE",
"141 712 CURVE SMOOTH",
"61 712 OFFCURVE",
"9 652 OFFCURVE",
"9 579 CURVE SMOOTH",
"9 505 OFFCURVE",
"61 447 OFFCURVE",
"141 447 CURVE SMOOTH"
);
},
{
closed = 1;
nodes = (
"97 506 OFFCURVE",
"68 537 OFFCURVE",
"68 579 CURVE SMOOTH",
"68 620 OFFCURVE",
"97 653 OFFCURVE",
"141 653 CURVE SMOOTH",
"183 653 OFFCURVE",
"214 620 OFFCURVE",
"214 579 CURVE SMOOTH",
"214 537 OFFCURVE",
"183 506 OFFCURVE",
"141 506 CURVE SMOOTH"
);
}
);
width = 282;
}
);
leftKerningGroup = O;
rightKerningGroup = O;
unicode = 00B0;
},
{
glyphname = bar;
lastChange = "2022-09-03 19:03:39 +0000";
layers = (
{
layerId = "29C4A576-5D06-4D79-A0A1-2A812E5B89FB";
paths = (
{
closed = 1;
nodes = (
"45 -82 LINE",
"85 -82 LINE",
"85 782 LINE",
"45 782 LINE"
);
}
);
width = 130;
},
{
layerId = "AAC1BB4D-C727-4C18-8F18-05769E5A021D";
paths = (
{
closed = 1;
nodes = (
"75 -82 LINE",
"99 -82 LINE",
"99 782 LINE",
"75 782 LINE"
);
}
);
width = 175;
},
{
layerId = "58CA432C-E1D8-4E0E-9662-6D1D9C8D1884";
paths = (
{
closed = 1;
nodes = (
"36 -82 LINE",
"81 -82 LINE",
"81 782 LINE",
"36 782 LINE"
);
}
);
width = 116.28571;
}
);
leftKerningGroup = H;
rightKerningGroup = H;
unicode = 007C;
},
{
glyphname = brokenbar;
lastChange = "2022-09-03 19:03:39 +0000";
layers = (
{
layerId = "29C4A576-5D06-4D79-A0A1-2A812E5B89FB";
paths = (
{
closed = 1;
nodes = (
"45 -82 LINE",
"85 -82 LINE",
"85 310 LINE",
"45 310 LINE"
);
},
{
closed = 1;
nodes = (
"45 390 LINE",
"85 390 LINE",
"85 782 LINE",
"45 782 LINE"
);
}
);
width = 130;
},
{
layerId = "AAC1BB4D-C727-4C18-8F18-05769E5A021D";
paths = (
{
closed = 1;
nodes = (
"72 -82 LINE",
"96 -82 LINE",
"96 310 LINE",
"72 310 LINE"
);
},
{
closed = 1;
nodes = (
"72 390 LINE",
"96 390 LINE",
"96 782 LINE",
"72 782 LINE"
);
}
);
width = 169;
},
{
layerId = "58CA432C-E1D8-4E0E-9662-6D1D9C8D1884";
paths = (
{
closed = 1;
nodes = (
"37 -82 LINE",
"82 -82 LINE",
"82 310 LINE",
"37 310 LINE"
);
},
{
closed = 1;
nodes = (
"37 390 LINE",
"82 390 LINE",
"82 782 LINE",
"37 782 LINE"
);
}
);
width = 118.11429;
}
);
leftKerningGroup = H;
rightKerningGroup = H;
unicode = 00A6;
},
{
glyphname = dagger;
lastChange = "2022-09-03 19:03:39 +0000";
layers = (
{
layerId = "29C4A576-5D06-4D79-A0A1-2A812E5B89FB";
paths = (
{
closed = 1;
nodes = (
"35 568 LINE",
"330 568 LINE",
"330 612 LINE",
"35 612 LINE"
);
},
{
closed = 1;
nodes = (
"159 758 LINE",
"159 263 LINE",
"207 263 LINE",
"207 758 LINE"
);
}
);
width = 365;
},
{
layerId = "AAC1BB4D-C727-4C18-8F18-05769E5A021D";
paths = (
{
closed = 1;
nodes = (
"55 575 LINE",
"350 575 LINE",
"350 605 LINE",
"55 605 LINE"
);
},
{
closed = 1;
nodes = (
"187 758 LINE",
"187 263 LINE",
"219 263 LINE",
"219 758 LINE"
);
}
);
width = 405;
},
{
layerId = "58CA432C-E1D8-4E0E-9662-6D1D9C8D1884";
paths = (
{
closed = 1;
nodes = (
"29 566 LINE",
"324 566 LINE",
"324 614 LINE",
"29 614 LINE"
);
},
{
closed = 1;
nodes = (
"150 758 LINE",
"150 263 LINE",
"203 263 LINE",
"203 758 LINE"
);
}
);
width = 352.80952;
}
);
unicode = 2020;
},
{
glyphname = daggerdbl;
lastChange = "2022-09-03 19:03:39 +0000";
layers = (
{
layerId = "29C4A576-5D06-4D79-A0A1-2A812E5B89FB";
paths = (
{
closed = 1;
nodes = (
"41 569 LINE",
"336 569 LINE",
"336 613 LINE",
"41 613 LINE"
);
},
{
closed = 1;
nodes = (
"165 758 LINE",
"165 263 LINE",
"213 263 LINE",
"213 758 LINE"
);
},
{
closed = 1;
nodes = (
"35 410 LINE",
"330 410 LINE",
"330 454 LINE",
"35 454 LINE"
);
}
);
width = 371;
},
{
layerId = "AAC1BB4D-C727-4C18-8F18-05769E5A021D";
paths = (
{
closed = 1;
nodes = (
"60 575 LINE",
"355 575 LINE",
"355 605 LINE",
"60 605 LINE"
);
},
{
closed = 1;
nodes = (
"192 758 LINE",
"192 263 LINE",
"224 263 LINE",
"224 758 LINE"
);
},
{
closed = 1;
nodes = (
"60 418 LINE",
"355 418 LINE",
"355 448 LINE",
"60 448 LINE"
);
}
);
width = 415;
},
{
layerId = "58CA432C-E1D8-4E0E-9662-6D1D9C8D1884";
paths = (
{
closed = 1;
nodes = (
"35 567 LINE",
"330 567 LINE",
"330 615 LINE",
"35 615 LINE"
);
},
{
closed = 1;
nodes = (
"157 758 LINE",
"157 263 LINE",
"210 263 LINE",
"210 758 LINE"
);
},
{
closed = 1;
nodes = (
"27 408 LINE",
"322 408 LINE",
"322 456 LINE",
"27 456 LINE"
);
}
);
width = 357.59048;
}
);
unicode = 2021;
},
{
glyphname = cent;
lastChange = "2022-09-03 19:03:39 +0000";
layers = (
{
anchors = (
{
name = bottom;
position = "{266, 52}";
},
{
name = top;
position = "{266, 639}";
}
);
hints = (
{
horizontal = 1;
origin = "{2, 20}";
target = "{2, 21}";
type = Stem;
},
{
horizontal = 1;
place = "{51.923, 123.777}";
type = Stem;
},
{
origin = "{2, 27}";
target = "{2, 0}";
type = Stem;
},
{
origin = "{2, 27}";
target = "{2, 13}";
type = Stem;
}
);
layerId = "29C4A576-5D06-4D79-A0A1-2A812E5B89FB";
paths = (
{
closed = 1;
nodes = (
"259 554 LINE",
"299 554 LINE",
"299 702 LINE",
"259 702 LINE"
);
},
{
closed = 1;
nodes = (
"259 0 LINE",
"299 0 LINE",
"299 148 LINE",
"259 148 LINE"
);
},
{
closed = 1;
nodes = (
"20 145 OFFCURVE",
"148 52 OFFCURVE",
"276 52 CURVE SMOOTH",
"338 52 OFFCURVE",
"377 67 OFFCURVE",
"396 82 CURVE",
"396 229 LINE",
"379 229 LINE",
"365 214 OFFCURVE",
"338 195 OFFCURVE",
"299 195 CURVE SMOOTH",
"239 195 OFFCURVE",
"184 242 OFFCURVE",
"184 350 CURVE SMOOTH",
"184 458 OFFCURVE",
"239 504 OFFCURVE",
"299 504 CURVE SMOOTH",
"338 504 OFFCURVE",
"365 486 OFFCURVE",
"379 470 CURVE",
"396 470 LINE",
"396 618 LINE",
"377 633 OFFCURVE",
"338 648 OFFCURVE",
"276 648 CURVE SMOOTH",
"148 648 OFFCURVE",
"20 554 OFFCURVE",
"20 350 CURVE SMOOTH"
);
}
);
width = 426;
},
{
anchors = (
{
name = bottom;
position = "{275.96, 61}";
},
{
name = top;
position = "{278.42, 635}";
}
);
hints = (
{
origin = "{2, 27}";
target = "{2, 13}";
type = Stem;
}
);
layerId = "AAC1BB4D-C727-4C18-8F18-05769E5A021D";
paths = (
{
closed = 1;
nodes = (
"263 612 LINE",
"287 612 LINE",
"287 700 LINE",
"263 700 LINE"
);
},
{
closed = 1;
nodes = (
"263 0 LINE",
"287 0 LINE",
"287 88 LINE",
"263 88 LINE"
);
},
{
closed = 1;
nodes = (
"40 141 OFFCURVE",
"160 52 OFFCURVE",
"282 52 CURVE SMOOTH",
"346 52 OFFCURVE",
"387 68 OFFCURVE",
"406 86 CURVE",
"406 138 LINE",
"394 138 LINE",
"375 116 OFFCURVE",
"334 102 OFFCURVE",
"287 102 CURVE SMOOTH",
"194 102 OFFCURVE",
"94 174 OFFCURVE",
"94 348 CURVE SMOOTH",
"94 522 OFFCURVE",
"195 594 OFFCURVE",
"288 594 CURVE SMOOTH",
"335 594 OFFCURVE",
"375 580 OFFCURVE",
"394 558 CURVE",
"406 558 LINE",
"406 610 LINE",
"387 628 OFFCURVE",
"346 644 OFFCURVE",
"285 644 CURVE SMOOTH",
"167 644 OFFCURVE",
"40 555 OFFCURVE",
"40 348 CURVE SMOOTH"
);
}
);
width = 431;
},
{
anchors = (
{
name = bottom;
position = "{263, 49}";
},
{
name = top;
position = "{262, 640}";
}
);
hints = (
{
origin = "{2, 27}";
target = "{2, 13}";
type = Stem;
}
);
layerId = "58CA432C-E1D8-4E0E-9662-6D1D9C8D1884";
paths = (
{
closed = 1;
nodes = (
"258 536 LINE",
"303 536 LINE",
"303 703 LINE",
"258 703 LINE"
);
},
{
closed = 1;
nodes = (
"258 0 LINE",
"303 0 LINE",
"303 166 LINE",
"258 166 LINE"
);
},
{
closed = 1;
nodes = (
"14 146 OFFCURVE",
"144 52 OFFCURVE",
"274 52 CURVE SMOOTH",
"336 52 OFFCURVE",
"374 67 OFFCURVE",
"393 81 CURVE",
"393 257 LINE",
"374 257 LINE",
"362 244 OFFCURVE",
"339 223 OFFCURVE",
"303 223 CURVE SMOOTH",
"253 223 OFFCURVE",
"211 263 OFFCURVE",
"211 351 CURVE SMOOTH",
"211 438 OFFCURVE",
"252 477 OFFCURVE",
"302 477 CURVE SMOOTH",
"339 477 OFFCURVE",
"362 457 OFFCURVE",
"374 443 CURVE",
"393 443 LINE",
"393 620 LINE",
"374 635 OFFCURVE",
"336 649 OFFCURVE",
"273 649 CURVE SMOOTH",
"142 649 OFFCURVE",
"14 554 OFFCURVE",
"14 351 CURVE SMOOTH"
);
}
);
width = 424.47619;
}
);
leftKerningGroup = O;
rightKerningGroup = C;
unicode = 00A2;
},
{
glyphname = currency;
lastChange = "2022-09-03 19:03:39 +0000";
layers = (
{
layerId = "29C4A576-5D06-4D79-A0A1-2A812E5B89FB";
paths = (
{
closed = 1;
nodes = (
"261 223 OFFCURVE",
"313 279 OFFCURVE",
"313 349 CURVE SMOOTH",
"313 419 OFFCURVE",
"261 476 OFFCURVE",
"187 476 CURVE SMOOTH",
"111 476 OFFCURVE",
"61 419 OFFCURVE",
"61 349 CURVE SMOOTH",
"61 279 OFFCURVE",
"111 223 OFFCURVE",
"187 223 CURVE SMOOTH"
);
},
{
closed = 1;
nodes = (
"142 275 OFFCURVE",
"113 308 OFFCURVE",
"113 349 CURVE SMOOTH",
"113 390 OFFCURVE",
"142 424 OFFCURVE",
"187 424 CURVE SMOOTH",
"231 424 OFFCURVE",
"261 390 OFFCURVE",
"261 349 CURVE SMOOTH",
"261 308 OFFCURVE",
"231 275 OFFCURVE",
"187 275 CURVE SMOOTH"
);
},
{
closed = 1;
nodes = (
"30 471 LINE",
"93 408 LINE",
"129 444 LINE",
"67 506 LINE"
);
},
{
closed = 1;
nodes = (
"246 254 LINE",
"309 191 LINE",
"345 228 LINE",
"282 290 LINE"
);
},
{
closed = 1;
nodes = (
"309 507 LINE",
"246 444 LINE",
"282 408 LINE",
"345 471 LINE"
);
},
{
closed = 1;
nodes = (
"93 290 LINE",
"31 228 LINE",
"67 192 LINE",
"129 254 LINE"
);
}
);
width = 375;
},
{
layerId = "AAC1BB4D-C727-4C18-8F18-05769E5A021D";
paths = (
{
closed = 1;
nodes = (
"273 223 OFFCURVE",
"325 279 OFFCURVE",
"325 349 CURVE SMOOTH",
"325 419 OFFCURVE",
"273 476 OFFCURVE",
"199 476 CURVE SMOOTH",
"123 476 OFFCURVE",
"73 419 OFFCURVE",
"73 349 CURVE SMOOTH",
"73 279 OFFCURVE",
"123 223 OFFCURVE",
"199 223 CURVE SMOOTH"
);
},
{
closed = 1;
nodes = (
"142 256 OFFCURVE",
"106 297 OFFCURVE",
"106 349 CURVE SMOOTH",
"106 401 OFFCURVE",
"142 443 OFFCURVE",
"199 443 CURVE SMOOTH",
"254 443 OFFCURVE",
"292 401 OFFCURVE",
"292 349 CURVE SMOOTH",
"292 297 OFFCURVE",
"254 256 OFFCURVE",
"199 256 CURVE SMOOTH"
);
},
{
closed = 1;
nodes = (
"50 479 LINE",
"112 416 LINE",
"133 437 LINE",
"71 499 LINE"
);
},
{
closed = 1;
nodes = (
"266 262 LINE",
"329 200 LINE",
"349 221 LINE",
"287 283 LINE"
);
},
{
closed = 1;
nodes = (
"329 499 LINE",
"266 437 LINE",
"287 416 LINE",
"349 479 LINE"
);
},
{
closed = 1;
nodes = (
"112 283 LINE",
"50 221 LINE",
"71 200 LINE",
"133 262 LINE"
);
}
);
width = 399;
},
{
layerId = "58CA432C-E1D8-4E0E-9662-6D1D9C8D1884";
paths = (
{
closed = 1;
nodes = (
"257 223 OFFCURVE",
"309 279 OFFCURVE",
"309 349 CURVE SMOOTH",
"309 419 OFFCURVE",
"257 476 OFFCURVE",
"183 476 CURVE SMOOTH",
"107 476 OFFCURVE",
"57 419 OFFCURVE",
"57 349 CURVE SMOOTH",
"57 279 OFFCURVE",
"107 223 OFFCURVE",
"183 223 CURVE SMOOTH"
);
},
{
closed = 1;
nodes = (
"142 281 OFFCURVE",
"115 311 OFFCURVE",
"115 349 CURVE SMOOTH",
"115 387 OFFCURVE",
"142 418 OFFCURVE",
"183 418 CURVE SMOOTH",
"224 418 OFFCURVE",
"252 387 OFFCURVE",
"252 349 CURVE SMOOTH",
"252 311 OFFCURVE",
"224 281 OFFCURVE",
"183 281 CURVE SMOOTH"
);
},
{
closed = 1;
nodes = (
"24 469 LINE",
"87 406 LINE",
"128 446 LINE",
"66 508 LINE"
);
},
{
closed = 1;
nodes = (
"240 252 LINE",
"303 188 LINE",
"344 230 LINE",
"280 292 LINE"
);
},
{
closed = 1;
nodes = (
"303 509 LINE",
"240 446 LINE",
"280 406 LINE",
"344 469 LINE"
);
},
{
closed = 1;
nodes = (
"87 292 LINE",
"25 230 LINE",
"66 190 LINE",
"128 252 LINE"
);
}
);
width = 367.68571;
}
);
unicode = 00A4;
},
{
glyphname = dollar;
lastChange = "2022-09-03 19:03:39 +0000";
layers = (
{
anchors = (
{
name = bottom;
position = "{231, 0}";
},
{
name = top;
position = "{231, 700}";
}
);
hints = (
{
place = "{30, 162}";
type = Stem;
},
{
place = "{298, 162}";
type = Stem;
},
{
horizontal = 1;
place = "{711, 146}";
type = Stem;
},
{
horizontal = 1;
place = "{-12, 146}";
type = Stem;
}
);
layerId = "29C4A576-5D06-4D79-A0A1-2A812E5B89FB";
paths = (
{
closed = 1;
nodes = (
"450 287 OFFCURVE",
"409 344 OFFCURVE",
"311 403 CURVE SMOOTH",
"268 429 LINE SMOOTH",
"215 461 OFFCURVE",
"182 483 OFFCURVE",
"182 516 CURVE SMOOTH",
"182 548 OFFCURVE",
"208 565 OFFCURVE",
"239 565 CURVE SMOOTH",
"296 565 OFFCURVE",
"364 519 OFFCURVE",
"387 490 CURVE",
"407 490 LINE",
"407 645 LINE",
"381 668 OFFCURVE",
"332 698 OFFCURVE",
"268 708 CURVE",
"268 782 LINE",
"228 782 LINE",
"228 711 LINE",
"226 711 LINE SMOOTH",
"112 711 OFFCURVE",
"20 639 OFFCURVE",
"20 505 CURVE SMOOTH",
"20 392 OFFCURVE",
"88 340 OFFCURVE",
"150 305 CURVE SMOOTH",
"220 265 LINE SMOOTH",
"267 238 OFFCURVE",
"288 221 OFFCURVE",
"288 187 CURVE SMOOTH",
"288 154 OFFCURVE",
"259 134 OFFCURVE",
"219 134 CURVE SMOOTH",
"166 134 OFFCURVE",
"98 169 OFFCURVE",
"55 209 CURVE",
"35 209 LINE",
"35 54 LINE",
"62 32 OFFCURVE",
"137 -8 OFFCURVE",
"228 -12 CURVE",
"228 -82 LINE",
"268 -82 LINE",
"268 -11 LINE",
"375 0 OFFCURVE",
"450 72 OFFCURVE",
"450 192 CURVE SMOOTH"
);
}
);
width = 470;
},
{
anchors = (
{
name = bottom;
position = "{236, 0}";
},
{
name = top;
position = "{236, 700}";
}
);
layerId = "AAC1BB4D-C727-4C18-8F18-05769E5A021D";
paths = (
{
closed = 1;
nodes = (
"445 251 OFFCURVE",
"382 294 OFFCURVE",
"307 342 CURVE SMOOTH",
"192 416 LINE SMOOTH",
"134 453 OFFCURVE",
"87 494 OFFCURVE",
"87 555 CURVE SMOOTH",
"87 623 OFFCURVE",
"144 663 OFFCURVE",
"212 663 CURVE SMOOTH",
"298 663 OFFCURVE",
"371 621 OFFCURVE",
"392 595 CURVE",
"402 595 LINE",
"402 647 LINE",
"381 666 OFFCURVE",
"340 699 OFFCURVE",
"266 708 CURVE",
"266 782 LINE",
"242 782 LINE",
"242 711 LINE",
"238 711 LINE",
"115 711 OFFCURVE",
"35 658 OFFCURVE",
"35 552 CURVE SMOOTH",
"35 439 OFFCURVE",
"139 387 OFFCURVE",
"191 354 CURVE SMOOTH",
"270 304 LINE SMOOTH",
"363 245 OFFCURVE",
"393 210 OFFCURVE",
"393 151 CURVE SMOOTH",
"393 69 OFFCURVE",
"324 36 OFFCURVE",
"248 36 CURVE SMOOTH",
"175 36 OFFCURVE",
"100 71 OFFCURVE",
"60 106 CURVE",
"50 106 LINE",
"50 54 LINE",
"77 31 OFFCURVE",
"147 -10 OFFCURVE",
"242 -12 CURVE",
"242 -82 LINE",
"266 -82 LINE",
"266 -11 LINE",
"376 -5 OFFCURVE",
"445 59 OFFCURVE",
"445 163 CURVE SMOOTH"
);
}
);
width = 480;
},
{
anchors = (
{
name = bottom;
position = "{229, 0}";
},
{
name = top;
position = "{229, 700}";
}
);
hints = (
{
place = "{39, 211}";
type = Stem;
},
{
place = "{389, 211}";
type = Stem;
},
{
horizontal = 1;
place = "{928, 190}";
type = Stem;
},
{
horizontal = 1;
place = "{-16, 190}";
type = Stem;
}
);
layerId = "58CA432C-E1D8-4E0E-9662-6D1D9C8D1884";
paths = (
{
closed = 1;
nodes = (
"452 298 OFFCURVE",
"417 359 OFFCURVE",
"312 422 CURVE SMOOTH",
"291 433 LINE SMOOTH",
"240 463 OFFCURVE",
"211 480 OFFCURVE",
"211 504 CURVE SMOOTH",
"211 525 OFFCURVE",
"228 535 OFFCURVE",
"247 535 CURVE SMOOTH",
"295 535 OFFCURVE",
"362 488 OFFCURVE",
"385 458 CURVE",
"409 458 LINE",
"409 644 LINE",
"381 669 OFFCURVE",
"330 698 OFFCURVE",
"269 708 CURVE",
"269 782 LINE",
"224 782 LINE",
"224 711 LINE",
"222 711 LINE",
"111 711 OFFCURVE",
"15 633 OFFCURVE",
"15 491 CURVE SMOOTH",
"15 378 OFFCURVE",
"72 326 OFFCURVE",
"138 290 CURVE SMOOTH",
"205 253 LINE SMOOTH",
"238 236 OFFCURVE",
"256 224 OFFCURVE",
"256 198 CURVE SMOOTH",
"256 180 OFFCURVE",
"239 164 OFFCURVE",
"210 164 CURVE SMOOTH",
"163 164 OFFCURVE",
"97 199 OFFCURVE",
"53 240 CURVE",
"30 240 LINE",
"30 54 LINE",
"57 32 OFFCURVE",
"134 -7 OFFCURVE",
"224 -12 CURVE",
"224 -82 LINE",
"269 -82 LINE",
"269 -11 LINE",
"375 2 OFFCURVE",
"452 76 OFFCURVE",
"452 201 CURVE SMOOTH"
);
}
);
width = 466.95238;
}
);
leftKerningGroup = S;
rightKerningGroup = S;
unicode = 0024;
},
